%TF.GenerationSoftware,KiCad,Pcbnew,9.0.7*%
%TF.CreationDate,2026-03-21T11:52:10-05:00*%
%TF.ProjectId,Saxboard,53617862-6f61-4726-942e-6b696361645f,rev?*%
%TF.SameCoordinates,Original*%
%TF.FileFunction,Soldermask,Bot*%
%TF.FilePolarity,Negative*%
%FSLAX46Y46*%
G04 Gerber Fmt 4.6, Leading zero omitted, Abs format (unit mm)*
G04 Created by KiCad (PCBNEW 9.0.7) date 2026-03-21 11:52:10*
%MOMM*%
%LPD*%
G01*
G04 APERTURE LIST*
%ADD10R,1.700000X1.700000*%
%ADD11C,1.700000*%
%ADD12C,0.650000*%
%ADD13O,1.000000X2.100000*%
%ADD14O,1.000000X1.600000*%
G04 APERTURE END LIST*
D10*
%TO.C,J2*%
X167665400Y-65201800D03*
D11*
X167665400Y-67741800D03*
X167665400Y-70281800D03*
X167665400Y-72821800D03*
X167665400Y-75361800D03*
X167665400Y-77901800D03*
X167665400Y-80441800D03*
X167665400Y-82981800D03*
X167665400Y-85521800D03*
X167665400Y-88061800D03*
X167665400Y-90601800D03*
X167665400Y-93141800D03*
X167665400Y-95681800D03*
X167665400Y-98221800D03*
X167665400Y-100761800D03*
X167665400Y-103301800D03*
X167665400Y-105841800D03*
X167665400Y-108381800D03*
X167665400Y-110921800D03*
X167665400Y-113461800D03*
%TD*%
D10*
%TO.C,J4*%
X174015400Y-113221800D03*
D11*
X176555400Y-113221800D03*
X179095400Y-113221800D03*
%TD*%
D10*
%TO.C,J3*%
X185445400Y-65201800D03*
D11*
X185445400Y-67741800D03*
X185445400Y-70281800D03*
X185445400Y-72821800D03*
X185445400Y-75361800D03*
X185445400Y-77901800D03*
X185445400Y-80441800D03*
X185445400Y-82981800D03*
X185445400Y-85521800D03*
X185445400Y-88061800D03*
X185445400Y-90601800D03*
X185445400Y-93141800D03*
X185445400Y-95681800D03*
X185445400Y-98221800D03*
X185445400Y-100761800D03*
X185445400Y-103301800D03*
X185445400Y-105841800D03*
X185445400Y-108381800D03*
X185445400Y-110921800D03*
X185445400Y-113461800D03*
%TD*%
D12*
%TO.C,J1*%
X179394600Y-68817800D03*
X173614600Y-68817800D03*
D13*
X180824600Y-69347800D03*
D14*
X180824600Y-65167800D03*
D13*
X172184600Y-69347800D03*
D14*
X172184600Y-65167800D03*
%TD*%
M02*
