%TF.GenerationSoftware,KiCad,Pcbnew,9.0.7*%
%TF.CreationDate,2026-03-21T11:52:10-05:00*%
%TF.ProjectId,Saxboard,53617862-6f61-4726-942e-6b696361645f,rev?*%
%TF.SameCoordinates,Original*%
%TF.FileFunction,Soldermask,Top*%
%TF.FilePolarity,Negative*%
%FSLAX46Y46*%
G04 Gerber Fmt 4.6, Leading zero omitted, Abs format (unit mm)*
G04 Created by KiCad (PCBNEW 9.0.7) date 2026-03-21 11:52:10*
%MOMM*%
%LPD*%
G01*
G04 APERTURE LIST*
G04 Aperture macros list*
%AMRoundRect*
0 Rectangle with rounded corners*
0 $1 Rounding radius*
0 $2 $3 $4 $5 $6 $7 $8 $9 X,Y pos of 4 corners*
0 Add a 4 corners polygon primitive as box body*
4,1,4,$2,$3,$4,$5,$6,$7,$8,$9,$2,$3,0*
0 Add four circle primitives for the rounded corners*
1,1,$1+$1,$2,$3*
1,1,$1+$1,$4,$5*
1,1,$1+$1,$6,$7*
1,1,$1+$1,$8,$9*
0 Add four rect primitives between the rounded corners*
20,1,$1+$1,$2,$3,$4,$5,0*
20,1,$1+$1,$4,$5,$6,$7,0*
20,1,$1+$1,$6,$7,$8,$9,0*
20,1,$1+$1,$8,$9,$2,$3,0*%
G04 Aperture macros list end*
%ADD10RoundRect,0.140000X-0.170000X0.140000X-0.170000X-0.140000X0.170000X-0.140000X0.170000X0.140000X0*%
%ADD11RoundRect,0.250000X0.450000X0.350000X-0.450000X0.350000X-0.450000X-0.350000X0.450000X-0.350000X0*%
%ADD12R,1.600000X0.850000*%
%ADD13R,1.700000X1.700000*%
%ADD14C,1.700000*%
%ADD15RoundRect,0.062500X-0.387500X-0.062500X0.387500X-0.062500X0.387500X0.062500X-0.387500X0.062500X0*%
%ADD16RoundRect,0.135000X-0.185000X0.135000X-0.185000X-0.135000X0.185000X-0.135000X0.185000X0.135000X0*%
%ADD17RoundRect,0.140000X0.170000X-0.140000X0.170000X0.140000X-0.170000X0.140000X-0.170000X-0.140000X0*%
%ADD18RoundRect,0.150000X0.150000X-0.587500X0.150000X0.587500X-0.150000X0.587500X-0.150000X-0.587500X0*%
%ADD19RoundRect,0.200000X-0.200000X-0.800000X0.200000X-0.800000X0.200000X0.800000X-0.200000X0.800000X0*%
%ADD20RoundRect,0.135000X0.135000X0.185000X-0.135000X0.185000X-0.135000X-0.185000X0.135000X-0.185000X0*%
%ADD21C,0.650000*%
%ADD22R,0.600000X1.450000*%
%ADD23R,0.300000X1.450000*%
%ADD24O,1.000000X2.100000*%
%ADD25O,1.000000X1.600000*%
%ADD26RoundRect,0.135000X0.185000X-0.135000X0.185000X0.135000X-0.185000X0.135000X-0.185000X-0.135000X0*%
%ADD27RoundRect,0.050000X-0.387500X-0.050000X0.387500X-0.050000X0.387500X0.050000X-0.387500X0.050000X0*%
%ADD28RoundRect,0.050000X-0.050000X-0.387500X0.050000X-0.387500X0.050000X0.387500X-0.050000X0.387500X0*%
%ADD29R,3.200000X3.200000*%
%ADD30RoundRect,0.135000X-0.135000X-0.185000X0.135000X-0.185000X0.135000X0.185000X-0.135000X0.185000X0*%
%ADD31RoundRect,0.140000X0.140000X0.170000X-0.140000X0.170000X-0.140000X-0.170000X0.140000X-0.170000X0*%
G04 APERTURE END LIST*
D10*
%TO.C,C5*%
X180441600Y-77594400D03*
X180441600Y-78554400D03*
%TD*%
%TO.C,C7*%
X181660800Y-79603600D03*
X181660800Y-80563600D03*
%TD*%
%TO.C,C11*%
X171526200Y-84023200D03*
X171526200Y-84983200D03*
%TD*%
D11*
%TO.C,Y1*%
X176875800Y-103682800D03*
X174675800Y-103682800D03*
X174675800Y-105382800D03*
X176875800Y-105382800D03*
%TD*%
D12*
%TO.C,D2*%
X175206600Y-110095000D03*
X175206600Y-108345000D03*
X171706600Y-108345000D03*
X171706600Y-110095000D03*
%TD*%
D13*
%TO.C,J2*%
X167665400Y-65201800D03*
D14*
X167665400Y-67741800D03*
X167665400Y-70281800D03*
X167665400Y-72821800D03*
X167665400Y-75361800D03*
X167665400Y-77901800D03*
X167665400Y-80441800D03*
X167665400Y-82981800D03*
X167665400Y-85521800D03*
X167665400Y-88061800D03*
X167665400Y-90601800D03*
X167665400Y-93141800D03*
X167665400Y-95681800D03*
X167665400Y-98221800D03*
X167665400Y-100761800D03*
X167665400Y-103301800D03*
X167665400Y-105841800D03*
X167665400Y-108381800D03*
X167665400Y-110921800D03*
X167665400Y-113461800D03*
%TD*%
D10*
%TO.C,C16*%
X178435000Y-103990200D03*
X178435000Y-104950200D03*
%TD*%
D15*
%TO.C,U3*%
X172920600Y-87674100D03*
X172920600Y-88174100D03*
X172920600Y-88674100D03*
X172920600Y-89174100D03*
X175770600Y-89174100D03*
X175770600Y-88674100D03*
X175770600Y-88174100D03*
X175770600Y-87674100D03*
%TD*%
D10*
%TO.C,C6*%
X179247800Y-77599600D03*
X179247800Y-78559600D03*
%TD*%
D16*
%TO.C,R6*%
X178206400Y-90371200D03*
X178206400Y-91391200D03*
%TD*%
%TO.C,R7*%
X177190400Y-90369400D03*
X177190400Y-91389400D03*
%TD*%
D17*
%TO.C,C14*%
X176225200Y-76908600D03*
X176225200Y-75948600D03*
%TD*%
D18*
%TO.C,U2*%
X173065400Y-77366100D03*
X174965400Y-77366100D03*
X174015400Y-75491100D03*
%TD*%
D13*
%TO.C,J4*%
X174015400Y-113221800D03*
D14*
X176555400Y-113221800D03*
X179095400Y-113221800D03*
%TD*%
D19*
%TO.C,SW1*%
X177630400Y-109067600D03*
X181830400Y-109067600D03*
%TD*%
D10*
%TO.C,C3*%
X179247800Y-75511600D03*
X179247800Y-76471600D03*
%TD*%
D20*
%TO.C,R4*%
X175873600Y-86360000D03*
X174853600Y-86360000D03*
%TD*%
D10*
%TO.C,C12*%
X172745400Y-84000400D03*
X172745400Y-84960400D03*
%TD*%
D13*
%TO.C,J3*%
X185445400Y-65201800D03*
D14*
X185445400Y-67741800D03*
X185445400Y-70281800D03*
X185445400Y-72821800D03*
X185445400Y-75361800D03*
X185445400Y-77901800D03*
X185445400Y-80441800D03*
X185445400Y-82981800D03*
X185445400Y-85521800D03*
X185445400Y-88061800D03*
X185445400Y-90601800D03*
X185445400Y-93141800D03*
X185445400Y-95681800D03*
X185445400Y-98221800D03*
X185445400Y-100761800D03*
X185445400Y-103301800D03*
X185445400Y-105841800D03*
X185445400Y-108381800D03*
X185445400Y-110921800D03*
X185445400Y-113461800D03*
%TD*%
D17*
%TO.C,C15*%
X173151800Y-104950200D03*
X173151800Y-103990200D03*
%TD*%
D10*
%TO.C,C1*%
X181635400Y-75516800D03*
X181635400Y-76476800D03*
%TD*%
%TO.C,C10*%
X178155600Y-83901400D03*
X178155600Y-84861400D03*
%TD*%
D16*
%TO.C,R5*%
X171046200Y-87976900D03*
X171046200Y-88996900D03*
%TD*%
%TO.C,R1*%
X174955200Y-79451200D03*
X174955200Y-80471200D03*
%TD*%
D21*
%TO.C,J1*%
X179394600Y-68817800D03*
X173614600Y-68817800D03*
D22*
X179754600Y-70262800D03*
X178954600Y-70262800D03*
D23*
X177754600Y-70262800D03*
X176754600Y-70262800D03*
X176254600Y-70262800D03*
X175254600Y-70262800D03*
D22*
X174054600Y-70262800D03*
X173254600Y-70262800D03*
X173254600Y-70262800D03*
X174054600Y-70262800D03*
D23*
X174754600Y-70262800D03*
X175754600Y-70262800D03*
X177254600Y-70262800D03*
X178254600Y-70262800D03*
D22*
X178954600Y-70262800D03*
X179754600Y-70262800D03*
D24*
X180824600Y-69347800D03*
D25*
X180824600Y-65167800D03*
D24*
X172184600Y-69347800D03*
D25*
X172184600Y-65167800D03*
%TD*%
D26*
%TO.C,R2*%
X173177200Y-80443800D03*
X173177200Y-79423800D03*
%TD*%
D10*
%TO.C,C9*%
X179222400Y-79631600D03*
X179222400Y-80591600D03*
%TD*%
%TO.C,C2*%
X180441600Y-75511600D03*
X180441600Y-76471600D03*
%TD*%
%TO.C,C4*%
X181635400Y-77569000D03*
X181635400Y-78529000D03*
%TD*%
D27*
%TO.C,U1*%
X173105300Y-93678600D03*
X173105300Y-94078600D03*
X173105300Y-94478600D03*
X173105300Y-94878600D03*
X173105300Y-95278600D03*
X173105300Y-95678600D03*
X173105300Y-96078600D03*
X173105300Y-96478600D03*
X173105300Y-96878600D03*
X173105300Y-97278600D03*
X173105300Y-97678600D03*
X173105300Y-98078600D03*
X173105300Y-98478600D03*
X173105300Y-98878600D03*
D28*
X173942800Y-99716100D03*
X174342800Y-99716100D03*
X174742800Y-99716100D03*
X175142800Y-99716100D03*
X175542800Y-99716100D03*
X175942800Y-99716100D03*
X176342800Y-99716100D03*
X176742800Y-99716100D03*
X177142800Y-99716100D03*
X177542800Y-99716100D03*
X177942800Y-99716100D03*
X178342800Y-99716100D03*
X178742800Y-99716100D03*
X179142800Y-99716100D03*
D27*
X179980300Y-98878600D03*
X179980300Y-98478600D03*
X179980300Y-98078600D03*
X179980300Y-97678600D03*
X179980300Y-97278600D03*
X179980300Y-96878600D03*
X179980300Y-96478600D03*
X179980300Y-96078600D03*
X179980300Y-95678600D03*
X179980300Y-95278600D03*
X179980300Y-94878600D03*
X179980300Y-94478600D03*
X179980300Y-94078600D03*
X179980300Y-93678600D03*
D28*
X179142800Y-92841100D03*
X178742800Y-92841100D03*
X178342800Y-92841100D03*
X177942800Y-92841100D03*
X177542800Y-92841100D03*
X177142800Y-92841100D03*
X176742800Y-92841100D03*
X176342800Y-92841100D03*
X175942800Y-92841100D03*
X175542800Y-92841100D03*
X175142800Y-92841100D03*
X174742800Y-92841100D03*
X174342800Y-92841100D03*
X173942800Y-92841100D03*
D29*
X176542800Y-96278600D03*
%TD*%
D30*
%TO.C,R3*%
X175080200Y-102260400D03*
X176100200Y-102260400D03*
%TD*%
D17*
%TO.C,C13*%
X171526200Y-77569000D03*
X171526200Y-76609000D03*
%TD*%
D31*
%TO.C,C17*%
X173733400Y-86360000D03*
X172773400Y-86360000D03*
%TD*%
D10*
%TO.C,C8*%
X180441600Y-79601000D03*
X180441600Y-80561000D03*
%TD*%
M02*
