%TF.GenerationSoftware,KiCad,Pcbnew,9.0.7*%
%TF.CreationDate,2026-03-21T11:52:10-05:00*%
%TF.ProjectId,Saxboard,53617862-6f61-4726-942e-6b696361645f,rev?*%
%TF.SameCoordinates,Original*%
%TF.FileFunction,Legend,Bot*%
%TF.FilePolarity,Positive*%
%FSLAX46Y46*%
G04 Gerber Fmt 4.6, Leading zero omitted, Abs format (unit mm)*
G04 Created by KiCad (PCBNEW 9.0.7) date 2026-03-21 11:52:10*
%MOMM*%
%LPD*%
G01*
G04 APERTURE LIST*
%ADD10C,0.100000*%
%ADD11C,0.000000*%
G04 APERTURE END LIST*
D10*
G36*
X170892004Y-69312015D02*
G01*
X171075767Y-69365177D01*
X171240725Y-69452293D01*
X171390078Y-69575291D01*
X171513073Y-69724716D01*
X171600191Y-69889749D01*
X171653354Y-70073590D01*
X171671721Y-70280695D01*
X171654921Y-70483858D01*
X171604982Y-70677036D01*
X171521202Y-70862919D01*
X171401069Y-71043648D01*
X171327367Y-71115199D01*
X171265667Y-71134629D01*
X171230602Y-71127029D01*
X171210754Y-71106256D01*
X171203232Y-71068072D01*
X171214015Y-71021453D01*
X171254981Y-70952668D01*
X171376686Y-70764836D01*
X171439537Y-70632404D01*
X171473306Y-70495348D01*
X171486096Y-70308630D01*
X171471242Y-70146526D01*
X171428187Y-70002527D01*
X171357429Y-69873049D01*
X171257118Y-69755572D01*
X171136122Y-69659563D01*
X171002351Y-69591319D01*
X170853240Y-69549577D01*
X170685285Y-69535143D01*
X170512135Y-69547466D01*
X170350683Y-69583678D01*
X170198859Y-69643461D01*
X170054965Y-69727579D01*
X169917752Y-69837852D01*
X169796794Y-69967306D01*
X169705887Y-70101819D01*
X169642073Y-70242563D01*
X169603753Y-70391299D01*
X169590772Y-70550278D01*
X169603377Y-70692360D01*
X169639800Y-70817969D01*
X169699390Y-70930245D01*
X169783418Y-71031436D01*
X169885455Y-71114640D01*
X169998423Y-71173682D01*
X170124539Y-71209770D01*
X170266866Y-71222251D01*
X170467590Y-71204122D01*
X170647191Y-71151441D01*
X170809849Y-71064714D01*
X170909963Y-70980908D01*
X170961976Y-70901636D01*
X170978071Y-70823219D01*
X170970506Y-70785096D01*
X170950492Y-70764294D01*
X170915026Y-70756663D01*
X170848470Y-70767196D01*
X170102766Y-70966712D01*
X170036209Y-70984114D01*
X169997741Y-70991136D01*
X169964166Y-70978619D01*
X169952251Y-70938624D01*
X169977591Y-70858176D01*
X169995757Y-70798642D01*
X169989040Y-70763685D01*
X169972401Y-70693618D01*
X169957018Y-70611042D01*
X169952251Y-70539592D01*
X169954382Y-70518679D01*
X170128106Y-70518679D01*
X170140680Y-70616128D01*
X170180771Y-70721706D01*
X170532328Y-70627214D01*
X170708509Y-70565415D01*
X170829329Y-70493449D01*
X170907886Y-70413257D01*
X170953039Y-70323842D01*
X170968301Y-70221313D01*
X170952789Y-70128508D01*
X170910490Y-70066286D01*
X170839046Y-70026579D01*
X170725738Y-70011264D01*
X170571943Y-70028425D01*
X170433830Y-70078787D01*
X170307472Y-70163458D01*
X170226251Y-70246188D01*
X170171208Y-70331919D01*
X170138936Y-70422029D01*
X170128106Y-70518679D01*
X169954382Y-70518679D01*
X169967171Y-70393161D01*
X170011421Y-70256876D01*
X170086153Y-70127846D01*
X170194967Y-70004090D01*
X170323452Y-69901387D01*
X170458212Y-69830086D01*
X170601220Y-69787532D01*
X170755199Y-69773127D01*
X170872232Y-69785383D01*
X170969156Y-69820082D01*
X171050275Y-69876320D01*
X171112825Y-69951632D01*
X171150529Y-70040654D01*
X171163696Y-70147582D01*
X171150309Y-70282540D01*
X171112745Y-70392619D01*
X171052596Y-70483055D01*
X170968301Y-70557147D01*
X171013944Y-70553636D01*
X171072478Y-70568055D01*
X171121411Y-70613170D01*
X171152523Y-70678460D01*
X171163696Y-70763685D01*
X171152858Y-70859957D01*
X171119721Y-70955548D01*
X171061829Y-71052453D01*
X170974865Y-71152184D01*
X170843342Y-71263878D01*
X170706237Y-71348542D01*
X170562370Y-71408380D01*
X170410084Y-71444474D01*
X170247327Y-71456724D01*
X170065888Y-71440402D01*
X169907903Y-71393515D01*
X169768899Y-71317194D01*
X169645726Y-71209886D01*
X169546454Y-71080239D01*
X169474854Y-70932982D01*
X169430445Y-70764773D01*
X169414917Y-70571191D01*
X169430254Y-70368564D01*
X169475359Y-70179856D01*
X169550009Y-70002415D01*
X169655497Y-69834110D01*
X169794562Y-69673446D01*
X169955339Y-69533978D01*
X170123014Y-69428403D01*
X170299043Y-69353853D01*
X170485502Y-69308905D01*
X170684980Y-69293648D01*
X170892004Y-69312015D01*
G37*
G36*
X181270138Y-91951144D02*
G01*
X181502548Y-92039952D01*
X181584626Y-92074561D01*
X181645430Y-92098533D01*
X181645430Y-92146637D01*
X181509692Y-92205219D01*
X181287430Y-92291447D01*
X181174554Y-92311904D01*
X181095585Y-92297271D01*
X181027386Y-92253163D01*
X180980070Y-92188592D01*
X180964676Y-92114568D01*
X180970649Y-92086150D01*
X181045960Y-92086150D01*
X181055506Y-92124791D01*
X181085650Y-92158068D01*
X181129050Y-92179720D01*
X181185191Y-92187438D01*
X181294165Y-92171652D01*
X181523504Y-92103931D01*
X181271622Y-92011667D01*
X181171062Y-91992007D01*
X181122965Y-91999276D01*
X181082951Y-92020424D01*
X181054663Y-92052051D01*
X181045960Y-92086150D01*
X180970649Y-92086150D01*
X180979163Y-92045641D01*
X181023734Y-91985657D01*
X181088942Y-91945322D01*
X181169315Y-91931520D01*
X181270138Y-91951144D01*
G37*
G36*
X181272807Y-91503226D02*
G01*
X181502548Y-91590191D01*
X181645430Y-91648931D01*
X181645430Y-91698622D01*
X181509692Y-91757363D01*
X181287430Y-91843591D01*
X181174554Y-91864048D01*
X181095585Y-91849415D01*
X181027386Y-91805308D01*
X180980070Y-91740736D01*
X180964676Y-91666712D01*
X180971049Y-91636389D01*
X181045960Y-91636389D01*
X181055501Y-91675059D01*
X181085650Y-91708465D01*
X181129050Y-91730118D01*
X181185191Y-91737836D01*
X181292934Y-91722464D01*
X181523504Y-91656075D01*
X181271616Y-91563679D01*
X181171062Y-91543992D01*
X181122965Y-91551262D01*
X181082951Y-91572410D01*
X181054545Y-91603783D01*
X181045960Y-91636389D01*
X180971049Y-91636389D01*
X180979163Y-91597785D01*
X181023734Y-91537801D01*
X181088942Y-91497466D01*
X181169315Y-91483664D01*
X181272807Y-91503226D01*
G37*
G36*
X181689882Y-92573854D02*
G01*
X181512988Y-92640698D01*
X181369963Y-92723634D01*
X181255680Y-92821834D01*
X181165380Y-92939896D01*
X181113798Y-93061089D01*
X181096763Y-93188882D01*
X181106694Y-93282395D01*
X181135024Y-93361135D01*
X181180712Y-93427275D01*
X181238851Y-93473218D01*
X181332029Y-93507053D01*
X181494610Y-93521162D01*
X182911841Y-93521162D01*
X183043981Y-93516002D01*
X183126800Y-93503382D01*
X183196190Y-93477721D01*
X183252853Y-93437656D01*
X183315701Y-93359188D01*
X183365059Y-93249587D01*
X183398434Y-93099978D01*
X183454000Y-93099978D01*
X183454000Y-94353054D01*
X183398434Y-94353054D01*
X183369442Y-94217766D01*
X183326649Y-94114426D01*
X183272063Y-94036649D01*
X183211812Y-93985638D01*
X183143310Y-93954889D01*
X183059090Y-93939965D01*
X182911524Y-93933615D01*
X181494610Y-93933615D01*
X181344634Y-93944161D01*
X181260125Y-93969018D01*
X181192293Y-94016147D01*
X181140263Y-94083800D01*
X181108096Y-94166085D01*
X181096763Y-94265896D01*
X181114482Y-94395429D01*
X181168680Y-94521019D01*
X181254230Y-94633445D01*
X181373795Y-94734231D01*
X181516166Y-94814735D01*
X181689882Y-94879018D01*
X181689882Y-94936012D01*
X181025639Y-94880923D01*
X181025639Y-94745821D01*
X181094858Y-94745821D01*
X181331407Y-94779636D01*
X181243112Y-94708315D01*
X181184715Y-94646279D01*
X181138137Y-94577015D01*
X181094858Y-94488157D01*
X181094858Y-94745821D01*
X181025639Y-94745821D01*
X181025639Y-93427019D01*
X181096763Y-93427019D01*
X181096763Y-93974416D01*
X181171379Y-93873129D01*
X181239804Y-93796607D01*
X181272778Y-93782509D01*
X181322199Y-93777080D01*
X181380939Y-93777080D01*
X181400467Y-93776128D01*
X181411103Y-93775334D01*
X183071393Y-93775334D01*
X183082030Y-93776128D01*
X183101557Y-93777080D01*
X183160139Y-93777080D01*
X183209266Y-93781740D01*
X183238248Y-93793115D01*
X183311117Y-93873129D01*
X183362555Y-93942506D01*
X183362555Y-93421621D01*
X183311117Y-93492745D01*
X183239994Y-93570060D01*
X183209426Y-93582192D01*
X183160139Y-93587047D01*
X183101557Y-93587047D01*
X183071393Y-93588793D01*
X181411103Y-93588793D01*
X181380939Y-93587047D01*
X181322199Y-93587047D01*
X181243296Y-93571012D01*
X181171379Y-93510526D01*
X181096763Y-93427019D01*
X181025639Y-93427019D01*
X181025639Y-92632595D01*
X181094858Y-92632595D01*
X181094858Y-92875971D01*
X181144122Y-92796275D01*
X181192653Y-92737375D01*
X181253197Y-92683206D01*
X181356332Y-92607670D01*
X181094858Y-92632595D01*
X181025639Y-92632595D01*
X181025639Y-92573854D01*
X181689882Y-92518765D01*
X181689882Y-92573854D01*
G37*
G36*
X181131642Y-95171086D02*
G01*
X181181063Y-95230032D01*
X181256508Y-95262009D01*
X181393323Y-95275437D01*
X183110765Y-95275437D01*
X183247582Y-95262208D01*
X183321595Y-95230984D01*
X183370160Y-95172711D01*
X183404150Y-95065718D01*
X183454000Y-95065718D01*
X183454000Y-95846012D01*
X183404150Y-95846012D01*
X183369946Y-95739264D01*
X183320802Y-95681539D01*
X183246595Y-95650936D01*
X183111559Y-95638040D01*
X182423344Y-95638040D01*
X182243613Y-95803508D01*
X182148534Y-95914437D01*
X182090560Y-96025556D01*
X182072171Y-96135745D01*
X182083763Y-96212454D01*
X182117417Y-96275929D01*
X182170585Y-96325861D01*
X182244265Y-96361340D01*
X182333546Y-96378530D01*
X182512089Y-96386265D01*
X183111559Y-96386265D01*
X183246580Y-96373325D01*
X183320802Y-96342607D01*
X183369938Y-96285011D01*
X183404150Y-96178293D01*
X183454000Y-96178293D01*
X183454000Y-96958587D01*
X183404150Y-96958587D01*
X183369946Y-96851839D01*
X183320802Y-96794114D01*
X183246595Y-96763511D01*
X183111559Y-96750615D01*
X182522726Y-96750615D01*
X182386792Y-96741568D01*
X182279869Y-96716941D01*
X182196320Y-96679491D01*
X182099827Y-96604494D01*
X182024226Y-96500889D01*
X181976431Y-96380110D01*
X181960406Y-96249416D01*
X181960699Y-96245923D01*
X182021369Y-96245923D01*
X182037887Y-96355803D01*
X182086400Y-96449708D01*
X182170284Y-96532005D01*
X182232910Y-96568108D01*
X182306974Y-96592492D01*
X182392008Y-96605206D01*
X182519710Y-96610273D01*
X183197129Y-96610273D01*
X183214910Y-96612019D01*
X183250313Y-96612019D01*
X183287924Y-96618823D01*
X183317785Y-96638690D01*
X183335407Y-96661869D01*
X183338106Y-96666155D01*
X183340805Y-96668854D01*
X183372715Y-96709814D01*
X183372715Y-96356101D01*
X183340805Y-96391663D01*
X183339059Y-96394203D01*
X183335407Y-96398807D01*
X183287621Y-96440561D01*
X183197129Y-96446752D01*
X182509073Y-96446752D01*
X182346323Y-96439349D01*
X182239502Y-96420875D01*
X182151770Y-96385008D01*
X182093286Y-96334669D01*
X182054184Y-96265857D01*
X182028513Y-96164163D01*
X182021369Y-96245923D01*
X181960699Y-96245923D01*
X181969412Y-96142080D01*
X181995650Y-96044936D01*
X182040797Y-95952397D01*
X182114242Y-95849505D01*
X182205431Y-95749547D01*
X182326184Y-95638040D01*
X180995158Y-95638040D01*
X181011074Y-95499444D01*
X181076442Y-95499444D01*
X183215069Y-95499444D01*
X183250472Y-95499444D01*
X183289408Y-95507320D01*
X183317785Y-95526115D01*
X183335566Y-95549135D01*
X183340805Y-95556279D01*
X183372715Y-95598985D01*
X183372715Y-95243526D01*
X183340805Y-95280834D01*
X183337312Y-95283533D01*
X183335566Y-95286232D01*
X183287780Y-95328779D01*
X183197288Y-95335923D01*
X181301402Y-95335923D01*
X181217419Y-95330526D01*
X181180905Y-95307506D01*
X181163282Y-95284327D01*
X181157885Y-95277342D01*
X181108352Y-95207965D01*
X181076442Y-95499444D01*
X181011074Y-95499444D01*
X181060884Y-95065718D01*
X181100097Y-95065718D01*
X181131642Y-95171086D01*
G37*
G36*
X182899809Y-97128772D02*
G01*
X183025773Y-97159746D01*
X183141405Y-97210536D01*
X183245662Y-97280796D01*
X183332147Y-97367087D01*
X183402403Y-97470899D01*
X183453074Y-97586017D01*
X183484010Y-97711756D01*
X183494642Y-97850330D01*
X183485776Y-97983757D01*
X183459994Y-98105523D01*
X183417961Y-98217378D01*
X183321577Y-98378670D01*
X183162996Y-98564899D01*
X183116798Y-98529338D01*
X183203761Y-98428789D01*
X183262538Y-98347084D01*
X183308602Y-98264847D01*
X183341758Y-98183563D01*
X183362460Y-98100589D01*
X183369223Y-98019249D01*
X183359181Y-97919147D01*
X183329974Y-97830200D01*
X183281588Y-97749995D01*
X183216979Y-97681114D01*
X183135247Y-97622153D01*
X183033609Y-97573139D01*
X182865156Y-97527322D01*
X182660210Y-97510906D01*
X182620838Y-97510906D01*
X182620838Y-98582680D01*
X182470183Y-98565038D01*
X182348698Y-98529911D01*
X182251091Y-98479646D01*
X182166338Y-98414438D01*
X182095109Y-98334118D01*
X182036609Y-98236906D01*
X181985115Y-98090372D01*
X182042642Y-98090372D01*
X182084689Y-98186837D01*
X182146946Y-98268975D01*
X182226930Y-98335714D01*
X182324914Y-98387091D01*
X182434340Y-98420069D01*
X182559875Y-98435194D01*
X182559875Y-98282310D01*
X182510819Y-98284057D01*
X182352299Y-98271697D01*
X182233787Y-98238652D01*
X182131836Y-98179797D01*
X182042642Y-98090372D01*
X181985115Y-98090372D01*
X181979808Y-98075270D01*
X181960406Y-97894941D01*
X181961308Y-97884146D01*
X182021369Y-97884146D01*
X182034373Y-97974060D01*
X182073124Y-98054652D01*
X182134619Y-98121465D01*
X182219657Y-98172132D01*
X182340195Y-98204787D01*
X182559875Y-98220077D01*
X182559875Y-97510906D01*
X182369451Y-97535355D01*
X182232651Y-97578018D01*
X182136989Y-97634340D01*
X182072911Y-97702631D01*
X182034708Y-97784410D01*
X182021369Y-97884146D01*
X181961308Y-97884146D01*
X181972349Y-97752000D01*
X182007332Y-97620904D01*
X182018200Y-97598064D01*
X182065821Y-97598064D01*
X182149439Y-97513716D01*
X182234104Y-97451372D01*
X182327239Y-97404784D01*
X182434298Y-97371358D01*
X182548916Y-97352314D01*
X182678785Y-97345639D01*
X182864968Y-97361096D01*
X183032180Y-97405967D01*
X183181210Y-97480166D01*
X183293495Y-97574885D01*
X183353799Y-97650371D01*
X183393830Y-97724118D01*
X183420634Y-97807378D01*
X183442093Y-97926852D01*
X183443839Y-97852235D01*
X183433782Y-97728975D01*
X183404231Y-97614916D01*
X183355252Y-97508207D01*
X183288353Y-97411977D01*
X183206933Y-97331543D01*
X183109654Y-97265625D01*
X183002078Y-97217618D01*
X182886488Y-97188546D01*
X182761021Y-97178626D01*
X182615140Y-97190968D01*
X182481210Y-97227149D01*
X182356824Y-97287057D01*
X182245316Y-97368686D01*
X182148588Y-97471513D01*
X182065821Y-97598064D01*
X182018200Y-97598064D01*
X182065186Y-97499317D01*
X182143746Y-97389984D01*
X182239650Y-97297403D01*
X182354601Y-97220379D01*
X182481059Y-97163855D01*
X182615943Y-97129743D01*
X182761339Y-97118139D01*
X182899809Y-97128772D01*
G37*
G36*
X183322707Y-100018963D02*
G01*
X183340488Y-100068654D01*
X183413181Y-100275940D01*
X183453841Y-100418874D01*
X183493036Y-100639032D01*
X183504802Y-100817038D01*
X183493681Y-100980672D01*
X183461232Y-101131011D01*
X183408118Y-101270133D01*
X183333909Y-101398683D01*
X183245053Y-101504454D01*
X183140929Y-101590030D01*
X183022949Y-101654182D01*
X182896591Y-101692569D01*
X182759275Y-101705606D01*
X182604045Y-101689689D01*
X182468131Y-101643631D01*
X182347385Y-101567586D01*
X182239184Y-101458579D01*
X182155202Y-101341257D01*
X182072965Y-101186627D01*
X181970566Y-100952141D01*
X181842449Y-100654311D01*
X181738303Y-100475709D01*
X181648421Y-100384003D01*
X181548569Y-100331583D01*
X181434441Y-100313935D01*
X181328928Y-100328050D01*
X181239403Y-100369006D01*
X181161854Y-100438242D01*
X181104349Y-100526547D01*
X181068716Y-100631757D01*
X181056121Y-100758298D01*
X181070316Y-100893932D01*
X181112956Y-101023900D01*
X181181139Y-101142259D01*
X181271079Y-101241715D01*
X181338836Y-101294542D01*
X181425709Y-101344749D01*
X181527176Y-101388609D01*
X181677817Y-101439051D01*
X181677817Y-101499538D01*
X181086285Y-101396346D01*
X181086285Y-101378565D01*
X181078130Y-101246182D01*
X181054375Y-101124552D01*
X181025957Y-101017867D01*
X180994601Y-100867762D01*
X180984997Y-100740676D01*
X180994546Y-100611172D01*
X181022498Y-100491735D01*
X181068504Y-100380613D01*
X181087887Y-100349496D01*
X181148518Y-100349496D01*
X181279176Y-100255353D01*
X181380304Y-100212647D01*
X181496674Y-100198518D01*
X181600686Y-100209693D01*
X181693571Y-100242361D01*
X181777960Y-100296962D01*
X181855467Y-100376168D01*
X181918850Y-100462665D01*
X181965645Y-100544133D01*
X182123767Y-100902291D01*
X182224857Y-101123182D01*
X182309977Y-101272011D01*
X182381273Y-101366182D01*
X182467469Y-101446270D01*
X182570512Y-101505730D01*
X182683509Y-101542505D01*
X182798647Y-101554627D01*
X182938233Y-101537203D01*
X183067246Y-101485166D01*
X183189384Y-101395571D01*
X183306672Y-101261401D01*
X183220823Y-101343167D01*
X183137119Y-101395552D01*
X183044680Y-101426460D01*
X182935496Y-101437305D01*
X182822663Y-101425747D01*
X182718692Y-101391599D01*
X182621247Y-101334120D01*
X182528759Y-101250606D01*
X182425749Y-101105456D01*
X182287129Y-100824024D01*
X182166315Y-100550325D01*
X182096755Y-100415957D01*
X182020734Y-100301551D01*
X181936657Y-100210618D01*
X181841135Y-100147215D01*
X181731878Y-100108703D01*
X181605106Y-100095325D01*
X181475565Y-100110815D01*
X181358350Y-100156576D01*
X181249974Y-100234369D01*
X181148518Y-100349496D01*
X181087887Y-100349496D01*
X181131887Y-100278860D01*
X181208042Y-100194120D01*
X181297750Y-100124695D01*
X181398188Y-100072829D01*
X181504700Y-100041837D01*
X181619235Y-100031346D01*
X181730087Y-100041683D01*
X181832447Y-100072146D01*
X181926991Y-100123290D01*
X182017082Y-100198359D01*
X182097104Y-100291949D01*
X182175205Y-100413476D01*
X182349362Y-100795606D01*
X182445784Y-100999022D01*
X182529711Y-101136935D01*
X182623811Y-101247503D01*
X182716093Y-101316490D01*
X182819558Y-101357528D01*
X182937243Y-101371579D01*
X183069173Y-101353475D01*
X183183317Y-101300456D01*
X183278423Y-101216755D01*
X183352077Y-101104072D01*
X183397466Y-100972333D01*
X183413357Y-100817038D01*
X183396391Y-100666272D01*
X183346038Y-100527195D01*
X183260450Y-100396290D01*
X183134420Y-100271387D01*
X182986319Y-100166219D01*
X182825235Y-100082230D01*
X182748309Y-100054524D01*
X182995983Y-100054524D01*
X183113702Y-100132733D01*
X183191414Y-100194072D01*
X183367159Y-100374421D01*
X183300642Y-100202308D01*
X183237454Y-100075798D01*
X182995983Y-100054524D01*
X182748309Y-100054524D01*
X182649573Y-100018963D01*
X182649573Y-99965620D01*
X183322707Y-100018963D01*
G37*
G36*
X183205192Y-101884494D02*
G01*
X183294282Y-101924162D01*
X183370175Y-101990576D01*
X183425922Y-102076050D01*
X183460971Y-102181246D01*
X183473527Y-102311426D01*
X183462215Y-102432484D01*
X183428201Y-102549887D01*
X183370219Y-102665481D01*
X183285557Y-102780714D01*
X183454000Y-102780714D01*
X183454000Y-103353036D01*
X183404150Y-103353036D01*
X183369946Y-103246287D01*
X183320802Y-103188563D01*
X183246595Y-103157960D01*
X183111559Y-103145063D01*
X182600835Y-103145063D01*
X182465047Y-103140750D01*
X182375716Y-103129981D01*
X182297160Y-103109447D01*
X182228548Y-103079338D01*
X182151139Y-103028301D01*
X182085714Y-102961987D01*
X182031370Y-102878509D01*
X181978875Y-102735486D01*
X181974756Y-102697207D01*
X182019622Y-102697207D01*
X182063152Y-102801226D01*
X182131189Y-102883721D01*
X182226801Y-102947886D01*
X182310903Y-102976748D01*
X182430448Y-102996963D01*
X182595596Y-103004721D01*
X183198399Y-103004721D01*
X183216021Y-103006468D01*
X183251266Y-103006468D01*
X183288548Y-103013269D01*
X183318103Y-103033139D01*
X183335725Y-103056318D01*
X183338424Y-103060604D01*
X183340964Y-103063303D01*
X183372715Y-103104263D01*
X183372715Y-102841201D01*
X182600200Y-102841201D01*
X182270618Y-102830564D01*
X182162022Y-102805486D01*
X182080308Y-102760843D01*
X182019622Y-102697207D01*
X181974756Y-102697207D01*
X181960406Y-102563851D01*
X181971413Y-102429049D01*
X181981833Y-102389693D01*
X182023115Y-102389693D01*
X182084001Y-102321141D01*
X182132817Y-102282214D01*
X182189748Y-102255799D01*
X182281255Y-102231571D01*
X182341742Y-102210138D01*
X182356665Y-102172830D01*
X182351782Y-102148639D01*
X182337456Y-102130124D01*
X182284748Y-102114249D01*
X182202849Y-102132291D01*
X182125831Y-102189659D01*
X182065982Y-102274764D01*
X182023115Y-102389693D01*
X181981833Y-102389693D01*
X182003270Y-102308727D01*
X182055468Y-102202427D01*
X182119957Y-102126632D01*
X182198940Y-102076991D01*
X182284748Y-102060906D01*
X182347137Y-102071461D01*
X182395243Y-102101707D01*
X182427212Y-102147404D01*
X182437949Y-102203153D01*
X182426505Y-102272710D01*
X182396831Y-102313172D01*
X182345324Y-102338288D01*
X182240772Y-102359530D01*
X182138167Y-102382647D01*
X182074870Y-102419857D01*
X182035272Y-102475529D01*
X182021369Y-102551468D01*
X182029147Y-102606181D01*
X182052644Y-102657200D01*
X182088870Y-102700531D01*
X182135357Y-102732769D01*
X182185914Y-102751774D01*
X182268237Y-102768172D01*
X182495261Y-102780714D01*
X182520186Y-102780714D01*
X182570036Y-102780714D01*
X182628141Y-102780714D01*
X183209036Y-102780714D01*
X183293073Y-102659977D01*
X183336577Y-102560476D01*
X183349537Y-102476852D01*
X183340859Y-102409073D01*
X183315650Y-102350917D01*
X183273174Y-102299995D01*
X183188298Y-102247871D01*
X183080919Y-102229824D01*
X182971886Y-102246208D01*
X182872152Y-102295550D01*
X182787468Y-102373603D01*
X182715934Y-102484789D01*
X182664603Y-102616060D01*
X182628141Y-102780714D01*
X182570036Y-102780714D01*
X182598427Y-102488085D01*
X182603298Y-102467961D01*
X182660051Y-102467961D01*
X182744542Y-102306352D01*
X182799123Y-102228078D01*
X182888765Y-102148732D01*
X182986213Y-102102967D01*
X183095048Y-102087577D01*
X183193884Y-102099835D01*
X183272687Y-102134356D01*
X183336233Y-102190949D01*
X183386554Y-102273571D01*
X183422565Y-102389693D01*
X183424471Y-102316824D01*
X183413591Y-102206338D01*
X183382891Y-102114941D01*
X183333502Y-102038680D01*
X183266667Y-101978971D01*
X183188662Y-101943486D01*
X183095842Y-101931201D01*
X183000529Y-101943500D01*
X182916003Y-101979712D01*
X182839270Y-102041483D01*
X182768959Y-102133776D01*
X182710494Y-102266688D01*
X182660051Y-102467961D01*
X182603298Y-102467961D01*
X182651712Y-102267962D01*
X182723872Y-102105358D01*
X182801885Y-101998863D01*
X182888905Y-101927333D01*
X182986593Y-101885144D01*
X183098699Y-101870714D01*
X183205192Y-101884494D01*
G37*
G36*
X183454000Y-103948854D02*
G01*
X183403038Y-103948854D01*
X183401133Y-103918690D01*
X183388167Y-103838873D01*
X183358929Y-103799858D01*
X183313658Y-103787080D01*
X183266261Y-103798238D01*
X183197447Y-103840423D01*
X182816745Y-104128409D01*
X183211576Y-104396710D01*
X183279007Y-104433836D01*
X183318897Y-104443068D01*
X183357163Y-104432849D01*
X183382558Y-104402108D01*
X183396006Y-104354392D01*
X183403038Y-104267005D01*
X183454000Y-104267005D01*
X183454000Y-105081115D01*
X183403038Y-105081115D01*
X183367840Y-104996701D01*
X183323659Y-104932677D01*
X183259726Y-104872607D01*
X183131880Y-104777094D01*
X182556541Y-104380834D01*
X182273159Y-104604683D01*
X182157464Y-104705567D01*
X182102494Y-104768997D01*
X182068938Y-104837026D01*
X182046770Y-104931724D01*
X182001048Y-104931724D01*
X182001048Y-104485615D01*
X182046770Y-104485615D01*
X182051626Y-104556328D01*
X182062804Y-104594046D01*
X182084116Y-104617910D01*
X182117576Y-104626115D01*
X182156010Y-104616413D01*
X182216641Y-104578170D01*
X182508596Y-104348765D01*
X182255536Y-104180006D01*
X182237756Y-104171115D01*
X182202353Y-104149842D01*
X182164436Y-104132221D01*
X182128054Y-104126663D01*
X182089732Y-104135070D01*
X182066297Y-104158573D01*
X182053685Y-104197795D01*
X182046770Y-104277642D01*
X182001048Y-104277642D01*
X182001048Y-104039505D01*
X182051850Y-104039505D01*
X182091819Y-103989191D01*
X182142183Y-103973779D01*
X182205594Y-103988156D01*
X182308562Y-104044903D01*
X182333328Y-104062684D01*
X183122989Y-104604683D01*
X183277143Y-104720259D01*
X183372715Y-104821546D01*
X183372715Y-104483868D01*
X183312546Y-104503396D01*
X183269946Y-104493396D01*
X183192049Y-104451799D01*
X182381114Y-103902656D01*
X182343965Y-103877731D01*
X182158059Y-103746279D01*
X182101875Y-103696978D01*
X182051850Y-103636101D01*
X182051850Y-104039505D01*
X182001048Y-104039505D01*
X182001048Y-103490362D01*
X182046770Y-103490362D01*
X182070422Y-103561015D01*
X182119322Y-103628957D01*
X182193756Y-103695717D01*
X182338726Y-103801368D01*
X182372382Y-103824547D01*
X182767213Y-104094594D01*
X183144263Y-103808512D01*
X183181412Y-103776443D01*
X183254758Y-103710718D01*
X183319096Y-103645348D01*
X183359221Y-103588950D01*
X183386348Y-103527973D01*
X183403038Y-103456546D01*
X183454000Y-103456546D01*
X183454000Y-103948854D01*
G37*
G36*
X181131890Y-105248140D02*
G01*
X181182016Y-105306551D01*
X181257998Y-105337904D01*
X181393640Y-105351004D01*
X183454000Y-105351004D01*
X183454000Y-105404188D01*
X183299528Y-105676140D01*
X183387592Y-105793545D01*
X183447741Y-105911011D01*
X183482949Y-106030043D01*
X183494642Y-106152572D01*
X183478256Y-106302316D01*
X183428598Y-106448338D01*
X183349630Y-106582610D01*
X183244439Y-106699969D01*
X183118851Y-106796258D01*
X182978837Y-106867935D01*
X182827140Y-106912391D01*
X182663227Y-106927469D01*
X182514283Y-106913943D01*
X182383337Y-106874920D01*
X182264737Y-106811743D01*
X182161711Y-106727434D01*
X182076799Y-106624892D01*
X182013272Y-106507078D01*
X181974007Y-106376922D01*
X181965790Y-106287516D01*
X182021369Y-106287516D01*
X182064833Y-106423433D01*
X182141231Y-106542481D01*
X182245482Y-106640497D01*
X182375716Y-106714892D01*
X182522782Y-106760515D01*
X182690692Y-106776332D01*
X182837969Y-106764387D01*
X182975345Y-106729181D01*
X183101905Y-106671387D01*
X183209671Y-106594078D01*
X183299484Y-106498021D01*
X183368905Y-106385311D01*
X183237944Y-106491356D01*
X183100446Y-106558675D01*
X182945952Y-106595514D01*
X182740700Y-106609318D01*
X182562528Y-106599667D01*
X182418333Y-106573176D01*
X182302370Y-106532797D01*
X182196629Y-106472352D01*
X182103337Y-106391346D01*
X182021369Y-106287516D01*
X181965790Y-106287516D01*
X181960406Y-106228935D01*
X181969554Y-106131140D01*
X182041690Y-106131140D01*
X182054581Y-106218175D01*
X182093603Y-106299106D01*
X182154733Y-106369631D01*
X182241090Y-106432462D01*
X182342509Y-106480889D01*
X182464779Y-106517715D01*
X182596199Y-106539442D01*
X182746257Y-106547085D01*
X182942351Y-106533098D01*
X183100446Y-106494536D01*
X183236798Y-106428854D01*
X183332073Y-106345304D01*
X183377320Y-106277109D01*
X183404208Y-106202861D01*
X183413357Y-106120503D01*
X183401647Y-106032068D01*
X183364143Y-105935550D01*
X183303452Y-105839033D01*
X183200622Y-105715194D01*
X182290304Y-105715194D01*
X182173680Y-105835334D01*
X182101700Y-105933804D01*
X182056048Y-106035051D01*
X182041690Y-106131140D01*
X181969554Y-106131140D01*
X181973422Y-106089788D01*
X182010891Y-105968413D01*
X182074191Y-105852789D01*
X182178539Y-105715194D01*
X180995158Y-105715194D01*
X181011117Y-105576599D01*
X181076442Y-105576599D01*
X183268570Y-105576599D01*
X183372557Y-105413078D01*
X181302513Y-105413078D01*
X181218054Y-105407680D01*
X181181381Y-105384660D01*
X181163600Y-105361482D01*
X181158361Y-105354496D01*
X181108511Y-105285119D01*
X181076442Y-105576599D01*
X181011117Y-105576599D01*
X181061042Y-105143031D01*
X181100097Y-105143031D01*
X181131890Y-105248140D01*
G37*
G36*
X182863227Y-107110679D02*
G01*
X182991310Y-107147447D01*
X183113623Y-107209264D01*
X183223291Y-107291915D01*
X183316003Y-107391780D01*
X183392878Y-107510587D01*
X183449175Y-107640623D01*
X183483116Y-107778610D01*
X183494642Y-107926532D01*
X183483078Y-108071983D01*
X183448928Y-108208451D01*
X183392084Y-108337874D01*
X183314662Y-108456017D01*
X183221381Y-108554978D01*
X183111083Y-108636497D01*
X182988400Y-108697560D01*
X182861226Y-108733742D01*
X182727524Y-108745882D01*
X182575626Y-108730084D01*
X182430488Y-108682696D01*
X182297659Y-108607005D01*
X182182508Y-108505840D01*
X182088658Y-108383710D01*
X182018352Y-108242778D01*
X181991248Y-108146888D01*
X182044547Y-108146888D01*
X182107464Y-108270603D01*
X182193862Y-108376301D01*
X182306021Y-108465991D01*
X182433793Y-108532203D01*
X182573257Y-108572280D01*
X182727365Y-108586012D01*
X182877479Y-108571915D01*
X183013035Y-108530742D01*
X183137119Y-108462499D01*
X183245254Y-108370468D01*
X183339115Y-108252440D01*
X183418914Y-108104341D01*
X183397640Y-108132759D01*
X183317377Y-108224216D01*
X183227039Y-108296232D01*
X183125530Y-108350416D01*
X183015531Y-108386769D01*
X182882430Y-108410344D01*
X182721967Y-108418840D01*
X182526091Y-108405832D01*
X182366057Y-108369795D01*
X182235597Y-108313983D01*
X182129626Y-108239841D01*
X182044547Y-108146888D01*
X181991248Y-108146888D01*
X181975078Y-108089681D01*
X181960406Y-107924786D01*
X181960543Y-107923040D01*
X182021369Y-107923040D01*
X182031099Y-108006243D01*
X182059824Y-108081621D01*
X182108527Y-108151333D01*
X182209617Y-108236583D01*
X182353808Y-108304217D01*
X182519005Y-108344241D01*
X182716411Y-108358512D01*
X182866157Y-108350493D01*
X183000905Y-108327396D01*
X183125498Y-108288481D01*
X183222372Y-108239444D01*
X183303161Y-108175532D01*
X183362714Y-108100848D01*
X183400758Y-108015739D01*
X183413357Y-107924786D01*
X183400906Y-107832525D01*
X183363666Y-107747930D01*
X183304599Y-107673810D01*
X183222372Y-107608382D01*
X183124114Y-107557837D01*
X183001063Y-107518683D01*
X182867629Y-107495640D01*
X182716411Y-107487567D01*
X182511825Y-107502381D01*
X182346641Y-107543281D01*
X182213466Y-107606635D01*
X182126252Y-107674145D01*
X182067628Y-107748211D01*
X182033121Y-107830208D01*
X182021369Y-107923040D01*
X181960543Y-107923040D01*
X181972028Y-107776911D01*
X182001984Y-107656326D01*
X182046294Y-107656326D01*
X182133195Y-107540942D01*
X182240672Y-107451163D01*
X182371654Y-107384910D01*
X182531041Y-107342686D01*
X182725301Y-107327539D01*
X182916981Y-107341581D01*
X183073652Y-107380573D01*
X183201733Y-107441368D01*
X183289685Y-107508047D01*
X183390179Y-107624416D01*
X183312070Y-107482169D01*
X183240946Y-107388026D01*
X183134018Y-107291720D01*
X183008049Y-107219107D01*
X182870029Y-107173806D01*
X182727206Y-107158779D01*
X182581518Y-107174166D01*
X182444458Y-107220060D01*
X182318944Y-107293730D01*
X182206322Y-107394217D01*
X182114152Y-107515680D01*
X182046294Y-107656326D01*
X182001984Y-107656326D01*
X182006237Y-107639204D01*
X182062963Y-107509634D01*
X182140247Y-107391404D01*
X182233225Y-107291837D01*
X182343012Y-107209264D01*
X182465098Y-107147383D01*
X182592450Y-107110647D01*
X182727206Y-107098293D01*
X182863227Y-107110679D01*
G37*
G36*
X183205192Y-108943503D02*
G01*
X183294282Y-108983171D01*
X183370175Y-109049585D01*
X183425922Y-109135059D01*
X183460971Y-109240255D01*
X183473527Y-109370435D01*
X183462215Y-109491493D01*
X183428201Y-109608896D01*
X183370219Y-109724491D01*
X183285557Y-109839723D01*
X183454000Y-109839723D01*
X183454000Y-110412045D01*
X183404150Y-110412045D01*
X183369946Y-110305297D01*
X183320802Y-110247572D01*
X183246595Y-110216969D01*
X183111559Y-110204072D01*
X182600835Y-110204072D01*
X182465047Y-110199760D01*
X182375716Y-110188990D01*
X182297160Y-110168456D01*
X182228548Y-110138347D01*
X182151139Y-110087310D01*
X182085714Y-110020996D01*
X182031370Y-109937518D01*
X181978875Y-109794495D01*
X181974756Y-109756217D01*
X182019622Y-109756217D01*
X182063152Y-109860235D01*
X182131189Y-109942730D01*
X182226801Y-110006895D01*
X182310903Y-110035757D01*
X182430448Y-110055972D01*
X182595596Y-110063730D01*
X183198399Y-110063730D01*
X183216021Y-110065477D01*
X183251266Y-110065477D01*
X183288548Y-110072278D01*
X183318103Y-110092148D01*
X183335725Y-110115327D01*
X183338424Y-110119613D01*
X183340964Y-110122312D01*
X183372715Y-110163272D01*
X183372715Y-109900210D01*
X182600200Y-109900210D01*
X182270618Y-109889573D01*
X182162022Y-109864495D01*
X182080308Y-109819852D01*
X182019622Y-109756217D01*
X181974756Y-109756217D01*
X181960406Y-109622860D01*
X181971413Y-109488058D01*
X181981833Y-109448703D01*
X182023115Y-109448703D01*
X182084001Y-109380150D01*
X182132817Y-109341224D01*
X182189748Y-109314808D01*
X182281255Y-109290580D01*
X182341742Y-109269147D01*
X182356665Y-109231839D01*
X182351782Y-109207648D01*
X182337456Y-109189133D01*
X182284748Y-109173258D01*
X182202849Y-109191301D01*
X182125831Y-109248668D01*
X182065982Y-109333774D01*
X182023115Y-109448703D01*
X181981833Y-109448703D01*
X182003270Y-109367736D01*
X182055468Y-109261436D01*
X182119957Y-109185641D01*
X182198940Y-109136000D01*
X182284748Y-109119915D01*
X182347137Y-109130470D01*
X182395243Y-109160716D01*
X182427212Y-109206413D01*
X182437949Y-109262162D01*
X182426505Y-109331719D01*
X182396831Y-109372181D01*
X182345324Y-109397297D01*
X182240772Y-109418539D01*
X182138167Y-109441656D01*
X182074870Y-109478867D01*
X182035272Y-109534538D01*
X182021369Y-109610477D01*
X182029147Y-109665190D01*
X182052644Y-109716210D01*
X182088870Y-109759541D01*
X182135357Y-109791778D01*
X182185914Y-109810783D01*
X182268237Y-109827181D01*
X182495261Y-109839723D01*
X182520186Y-109839723D01*
X182570036Y-109839723D01*
X182628141Y-109839723D01*
X183209036Y-109839723D01*
X183293073Y-109718986D01*
X183336577Y-109619485D01*
X183349537Y-109535861D01*
X183340859Y-109468082D01*
X183315650Y-109409926D01*
X183273174Y-109359004D01*
X183188298Y-109306880D01*
X183080919Y-109288833D01*
X182971886Y-109305217D01*
X182872152Y-109354559D01*
X182787468Y-109432612D01*
X182715934Y-109543799D01*
X182664603Y-109675069D01*
X182628141Y-109839723D01*
X182570036Y-109839723D01*
X182598427Y-109547094D01*
X182603298Y-109526970D01*
X182660051Y-109526970D01*
X182744542Y-109365361D01*
X182799123Y-109287087D01*
X182888765Y-109207741D01*
X182986213Y-109161976D01*
X183095048Y-109146586D01*
X183193884Y-109158844D01*
X183272687Y-109193365D01*
X183336233Y-109249958D01*
X183386554Y-109332580D01*
X183422565Y-109448703D01*
X183424471Y-109375833D01*
X183413591Y-109265347D01*
X183382891Y-109173950D01*
X183333502Y-109097689D01*
X183266667Y-109037980D01*
X183188662Y-109002495D01*
X183095842Y-108990210D01*
X183000529Y-109002509D01*
X182916003Y-109038722D01*
X182839270Y-109100493D01*
X182768959Y-109192785D01*
X182710494Y-109325697D01*
X182660051Y-109526970D01*
X182603298Y-109526970D01*
X182651712Y-109326971D01*
X182723872Y-109164367D01*
X182801885Y-109057872D01*
X182888905Y-108986342D01*
X182986593Y-108944153D01*
X183098699Y-108929723D01*
X183205192Y-108943503D01*
G37*
G36*
X182103682Y-110676030D02*
G01*
X182152979Y-110734959D01*
X182228423Y-110766936D01*
X182365238Y-110780363D01*
X183111083Y-110780363D01*
X183247735Y-110767133D01*
X183321595Y-110735911D01*
X183370160Y-110677637D01*
X183404150Y-110570644D01*
X183454000Y-110570644D01*
X183454000Y-111388247D01*
X183404150Y-111388247D01*
X183369264Y-111262814D01*
X183320167Y-111195356D01*
X183244515Y-111158253D01*
X183109336Y-111142966D01*
X182419851Y-111142966D01*
X182189176Y-111273465D01*
X182113950Y-111329460D01*
X182068996Y-111375705D01*
X182040419Y-111425508D01*
X182031529Y-111473659D01*
X182038617Y-111512545D01*
X182058994Y-111541925D01*
X182090388Y-111560929D01*
X182134245Y-111567802D01*
X182243947Y-111553514D01*
X182311260Y-111537480D01*
X182382066Y-111528589D01*
X182445931Y-111539152D01*
X182495420Y-111569390D01*
X182528267Y-111615933D01*
X182539554Y-111676075D01*
X182525474Y-111744733D01*
X182484783Y-111794350D01*
X182422384Y-111824599D01*
X182329359Y-111836103D01*
X182228048Y-111825524D01*
X182141458Y-111795185D01*
X182066456Y-111745452D01*
X182006946Y-111679190D01*
X181972223Y-111604943D01*
X181968307Y-111576693D01*
X182033434Y-111576693D01*
X182110148Y-111654724D01*
X182202612Y-111700938D01*
X182316023Y-111717035D01*
X182404703Y-111705637D01*
X182445652Y-111679385D01*
X182458270Y-111640672D01*
X182450349Y-111607449D01*
X182427880Y-111587865D01*
X182384924Y-111580185D01*
X182285383Y-111597966D01*
X182151550Y-111617494D01*
X182090796Y-111607474D01*
X182033434Y-111576693D01*
X181968307Y-111576693D01*
X181960406Y-111519699D01*
X181979555Y-111418238D01*
X182037879Y-111328554D01*
X182132920Y-111248913D01*
X182309832Y-111142966D01*
X181970566Y-111142966D01*
X181985329Y-111004371D01*
X182040737Y-111004371D01*
X183197129Y-111004371D01*
X183214910Y-111004371D01*
X183250472Y-111004371D01*
X183289408Y-111012247D01*
X183317785Y-111031042D01*
X183335566Y-111054062D01*
X183340805Y-111061206D01*
X183372715Y-111103912D01*
X183372715Y-110748453D01*
X183340805Y-110785761D01*
X183337312Y-110788460D01*
X183335407Y-110791159D01*
X183287621Y-110833706D01*
X183196971Y-110840850D01*
X182266332Y-110840850D01*
X182181873Y-110835452D01*
X182145517Y-110812433D01*
X182128054Y-110789254D01*
X182122815Y-110782269D01*
X182073918Y-110712891D01*
X182040737Y-111004371D01*
X181985329Y-111004371D01*
X182031529Y-110570644D01*
X182072171Y-110570644D01*
X182103682Y-110676030D01*
G37*
G36*
X182915897Y-111912009D02*
G01*
X183034838Y-111942477D01*
X183146962Y-111993115D01*
X183248522Y-112062166D01*
X183333237Y-112145592D01*
X183402562Y-112244587D01*
X183453491Y-112354398D01*
X183484195Y-112471714D01*
X183494642Y-112598458D01*
X183481901Y-112728366D01*
X183443406Y-112855342D01*
X183377347Y-112981515D01*
X183280160Y-113108547D01*
X183275714Y-113115691D01*
X183454000Y-113115691D01*
X183454000Y-113687855D01*
X183409389Y-113687855D01*
X183375196Y-113582309D01*
X183325723Y-113523382D01*
X183250982Y-113491514D01*
X183115369Y-113478136D01*
X180995158Y-113478136D01*
X181011089Y-113339540D01*
X181076442Y-113339540D01*
X183201575Y-113339540D01*
X183219355Y-113339540D01*
X183255076Y-113341286D01*
X183293124Y-113348105D01*
X183323183Y-113367958D01*
X183341123Y-113391136D01*
X183346520Y-113398122D01*
X183378748Y-113439081D01*
X183378748Y-113176019D01*
X181302037Y-113176019D01*
X181214244Y-113170622D01*
X181181222Y-113147602D01*
X181163441Y-113124582D01*
X181158202Y-113117438D01*
X181108352Y-113048061D01*
X181076442Y-113339540D01*
X181011089Y-113339540D01*
X181060725Y-112907719D01*
X181099621Y-112907719D01*
X181131219Y-113012862D01*
X181181063Y-113071239D01*
X181256683Y-113102599D01*
X181391576Y-113115691D01*
X182124403Y-113115691D01*
X182031422Y-112970546D01*
X181977993Y-112824685D01*
X181964579Y-112710383D01*
X182021369Y-112710383D01*
X182032579Y-112798553D01*
X182068043Y-112892478D01*
X182124291Y-112986103D01*
X182214736Y-113101403D01*
X182227278Y-113115691D01*
X183147756Y-113115691D01*
X183265858Y-112993496D01*
X183340308Y-112885492D01*
X183380522Y-112788702D01*
X183393036Y-112699746D01*
X183383236Y-112620196D01*
X183354158Y-112547724D01*
X183304450Y-112480184D01*
X183202301Y-112398236D01*
X183058216Y-112333491D01*
X182894369Y-112295510D01*
X182701805Y-112282054D01*
X182502049Y-112296256D01*
X182341107Y-112335397D01*
X182201893Y-112402078D01*
X182104717Y-112486375D01*
X182058131Y-112555274D01*
X182030658Y-112629277D01*
X182021369Y-112710383D01*
X181964579Y-112710383D01*
X181960406Y-112674821D01*
X181972989Y-112543020D01*
X182010712Y-112416346D01*
X182011197Y-112415411D01*
X182058677Y-112415411D01*
X182225989Y-112272958D01*
X182375716Y-112187752D01*
X182539491Y-112139605D01*
X182748321Y-112122026D01*
X182920339Y-112136162D01*
X183071961Y-112176864D01*
X183206814Y-112243000D01*
X183279884Y-112295213D01*
X183330803Y-112344128D01*
X183440188Y-112504156D01*
X183386101Y-112341725D01*
X183308431Y-112210451D01*
X183207290Y-112105198D01*
X183084785Y-112026381D01*
X182946479Y-111978659D01*
X182788010Y-111962157D01*
X182639517Y-111975147D01*
X182502653Y-112013323D01*
X182374922Y-112076780D01*
X182260362Y-112162659D01*
X182155068Y-112274329D01*
X182058677Y-112415411D01*
X182011197Y-112415411D01*
X182074870Y-112292691D01*
X182159527Y-112181400D01*
X182260921Y-112086660D01*
X182380638Y-112007403D01*
X182511485Y-111948477D01*
X182646767Y-111913433D01*
X182788328Y-111901670D01*
X182915897Y-111912009D01*
G37*
G36*
X181270138Y-114405855D02*
G01*
X181502548Y-114494662D01*
X181584626Y-114529271D01*
X181645430Y-114553244D01*
X181645430Y-114601347D01*
X181509692Y-114659929D01*
X181287430Y-114746157D01*
X181174554Y-114766614D01*
X181095585Y-114751982D01*
X181027386Y-114707874D01*
X180980070Y-114643303D01*
X180964676Y-114569278D01*
X180970649Y-114540861D01*
X181045960Y-114540861D01*
X181055506Y-114579502D01*
X181085650Y-114612778D01*
X181129050Y-114634431D01*
X181185191Y-114642148D01*
X181294165Y-114626363D01*
X181523504Y-114558642D01*
X181271622Y-114466378D01*
X181171062Y-114446717D01*
X181122965Y-114453987D01*
X181082951Y-114475135D01*
X181054663Y-114506761D01*
X181045960Y-114540861D01*
X180970649Y-114540861D01*
X180979163Y-114500351D01*
X181023734Y-114440367D01*
X181088942Y-114400033D01*
X181169315Y-114386230D01*
X181270138Y-114405855D01*
G37*
G36*
X181272807Y-113957936D02*
G01*
X181502548Y-114044901D01*
X181645430Y-114103642D01*
X181645430Y-114153333D01*
X181509692Y-114212073D01*
X181287430Y-114298301D01*
X181174554Y-114318758D01*
X181095585Y-114304126D01*
X181027386Y-114260018D01*
X180980070Y-114195447D01*
X180964676Y-114121422D01*
X180971049Y-114091100D01*
X181045960Y-114091100D01*
X181055501Y-114129770D01*
X181085650Y-114163176D01*
X181129050Y-114184829D01*
X181185191Y-114192546D01*
X181292934Y-114177174D01*
X181523504Y-114110786D01*
X181271616Y-114018389D01*
X181171062Y-113998703D01*
X181122965Y-114005972D01*
X181082951Y-114027120D01*
X181054545Y-114058494D01*
X181045960Y-114091100D01*
X180971049Y-114091100D01*
X180979163Y-114052496D01*
X181023734Y-113992511D01*
X181088942Y-113952177D01*
X181169315Y-113938375D01*
X181272807Y-113957936D01*
G37*
G36*
X171613134Y-71755000D02*
G01*
X171544746Y-71755000D01*
X171544746Y-73505000D01*
X171613134Y-73505000D01*
X171613134Y-71755000D01*
G37*
G36*
X169722694Y-73702073D02*
G01*
X170616012Y-73702073D01*
X170775722Y-73714925D01*
X170896581Y-73749532D01*
X170987261Y-73802060D01*
X171056940Y-73877005D01*
X171099627Y-73971982D01*
X171114878Y-74093319D01*
X171103824Y-74190654D01*
X171070151Y-74286424D01*
X171015114Y-74380375D01*
X170925437Y-74494946D01*
X170884832Y-74469301D01*
X170959405Y-74362691D01*
X170996991Y-74279227D01*
X171007869Y-74212998D01*
X170998143Y-74159865D01*
X170970164Y-74119728D01*
X170925278Y-74091106D01*
X170851096Y-74068590D01*
X170763107Y-74056965D01*
X170636010Y-74052409D01*
X169727579Y-74052409D01*
X169727579Y-74424879D01*
X169678730Y-74424879D01*
X169678730Y-74050730D01*
X169053469Y-74050730D01*
X169053469Y-74007987D01*
X169239073Y-73972366D01*
X169381517Y-73923418D01*
X169392122Y-73917312D01*
X169502876Y-73917312D01*
X170523200Y-73917312D01*
X170571285Y-73917312D01*
X170796447Y-73927540D01*
X170882141Y-73942266D01*
X170939787Y-73961734D01*
X170986625Y-73990745D01*
X171019624Y-74027527D01*
X171043249Y-74074371D01*
X171064351Y-74144610D01*
X171066030Y-74096678D01*
X171053324Y-74000423D01*
X171016552Y-73919067D01*
X170954594Y-73848924D01*
X170866972Y-73795038D01*
X170747598Y-73768629D01*
X170574949Y-73760081D01*
X170535412Y-73760081D01*
X169659191Y-73760081D01*
X169592097Y-73847780D01*
X169502876Y-73917312D01*
X169392122Y-73917312D01*
X169502840Y-73853564D01*
X169590650Y-73768782D01*
X169651413Y-73665749D01*
X169683615Y-73544842D01*
X169722694Y-73544842D01*
X169722694Y-73702073D01*
G37*
G36*
X170542924Y-74570048D02*
G01*
X170664043Y-74599830D01*
X170775228Y-74648667D01*
X170875475Y-74716224D01*
X170958634Y-74799197D01*
X171026188Y-74899016D01*
X171074909Y-75009706D01*
X171104655Y-75130608D01*
X171114878Y-75263853D01*
X171106354Y-75392148D01*
X171081564Y-75509231D01*
X171041148Y-75616784D01*
X170948470Y-75771872D01*
X170795989Y-75950939D01*
X170751567Y-75916745D01*
X170835186Y-75820064D01*
X170891701Y-75741501D01*
X170935994Y-75662427D01*
X170967875Y-75584269D01*
X170987780Y-75504486D01*
X170994283Y-75426275D01*
X170984628Y-75330023D01*
X170956544Y-75244497D01*
X170910020Y-75167377D01*
X170847895Y-75101145D01*
X170769307Y-75044452D01*
X170671578Y-74997323D01*
X170509604Y-74953269D01*
X170312541Y-74937484D01*
X170274683Y-74937484D01*
X170274683Y-75968036D01*
X170129822Y-75951072D01*
X170013010Y-75917296D01*
X169919157Y-75868965D01*
X169837663Y-75806264D01*
X169769174Y-75729034D01*
X169712924Y-75635560D01*
X169663410Y-75494663D01*
X169718725Y-75494663D01*
X169759154Y-75587418D01*
X169819017Y-75666396D01*
X169895925Y-75730568D01*
X169990140Y-75779969D01*
X170095358Y-75811679D01*
X170216065Y-75826222D01*
X170216065Y-75679219D01*
X170168895Y-75680898D01*
X170016472Y-75669014D01*
X169902518Y-75637240D01*
X169804489Y-75580648D01*
X169718725Y-75494663D01*
X169663410Y-75494663D01*
X169658307Y-75480142D01*
X169639652Y-75306748D01*
X169640519Y-75296368D01*
X169698270Y-75296368D01*
X169710774Y-75382824D01*
X169748034Y-75460316D01*
X169807165Y-75524560D01*
X169888932Y-75573278D01*
X170004834Y-75604677D01*
X170216065Y-75619379D01*
X170216065Y-74937484D01*
X170032965Y-74960993D01*
X169901426Y-75002015D01*
X169809443Y-75056170D01*
X169747829Y-75121835D01*
X169711096Y-75200469D01*
X169698270Y-75296368D01*
X169640519Y-75296368D01*
X169651135Y-75169305D01*
X169684773Y-75043251D01*
X169695223Y-75021290D01*
X169741012Y-75021290D01*
X169821415Y-74940185D01*
X169902823Y-74880239D01*
X169992376Y-74835443D01*
X170095317Y-74803303D01*
X170205527Y-74784991D01*
X170330401Y-74778573D01*
X170509423Y-74793436D01*
X170670204Y-74836581D01*
X170813502Y-74907926D01*
X170921469Y-74999002D01*
X170979453Y-75071585D01*
X171017944Y-75142495D01*
X171043718Y-75222553D01*
X171064351Y-75337431D01*
X171066030Y-75265685D01*
X171056359Y-75147166D01*
X171027945Y-75037493D01*
X170980850Y-74934889D01*
X170916524Y-74842360D01*
X170838235Y-74765020D01*
X170744698Y-74701637D01*
X170641259Y-74655476D01*
X170530115Y-74627522D01*
X170409474Y-74617984D01*
X170269204Y-74629851D01*
X170140425Y-74664640D01*
X170020823Y-74722245D01*
X169913603Y-74800734D01*
X169820597Y-74899606D01*
X169741012Y-75021290D01*
X169695223Y-75021290D01*
X169740402Y-74926340D01*
X169815940Y-74821212D01*
X169908156Y-74732192D01*
X170018686Y-74658131D01*
X170140280Y-74603780D01*
X170269976Y-74570981D01*
X170409780Y-74559823D01*
X170542924Y-74570048D01*
G37*
G36*
X169777417Y-76241407D02*
G01*
X169824818Y-76298069D01*
X169897361Y-76328816D01*
X170028914Y-76341728D01*
X170746072Y-76341728D01*
X170877469Y-76329006D01*
X170948488Y-76298985D01*
X170995185Y-76242953D01*
X171027867Y-76140075D01*
X171075800Y-76140075D01*
X171075800Y-76890358D01*
X171027867Y-76890358D01*
X170994945Y-76787733D01*
X170947572Y-76732211D01*
X170876072Y-76702783D01*
X170746072Y-76690384D01*
X170083258Y-76690384D01*
X169910279Y-76849483D01*
X169818712Y-76956151D01*
X169762968Y-77062996D01*
X169745287Y-77168948D01*
X169756468Y-77242695D01*
X169788945Y-77303739D01*
X169840068Y-77351751D01*
X169910914Y-77385866D01*
X169996932Y-77402395D01*
X170168895Y-77409832D01*
X170746072Y-77409832D01*
X170876192Y-77397389D01*
X170947725Y-77367853D01*
X170994971Y-77312472D01*
X171027867Y-77209858D01*
X171075800Y-77209858D01*
X171075800Y-77960142D01*
X171027867Y-77960142D01*
X170994979Y-77857499D01*
X170947725Y-77801994D01*
X170876207Y-77772570D01*
X170746072Y-77760168D01*
X170179123Y-77760168D01*
X170048207Y-77751468D01*
X169945248Y-77727786D01*
X169864813Y-77691780D01*
X169772753Y-77619708D01*
X169700560Y-77520047D01*
X169654952Y-77403939D01*
X169639652Y-77278246D01*
X169639935Y-77274888D01*
X169698270Y-77274888D01*
X169714113Y-77380575D01*
X169760625Y-77470868D01*
X169840999Y-77549966D01*
X169901217Y-77584681D01*
X169972432Y-77608127D01*
X170054215Y-77620351D01*
X170177138Y-77625224D01*
X170828809Y-77625224D01*
X170845753Y-77626903D01*
X170879947Y-77626903D01*
X170916111Y-77633445D01*
X170944824Y-77652548D01*
X170961769Y-77674836D01*
X170964364Y-77678957D01*
X170966959Y-77681552D01*
X170997642Y-77720936D01*
X170997642Y-77380828D01*
X170966959Y-77415022D01*
X170965280Y-77417465D01*
X170961769Y-77421892D01*
X170915820Y-77462039D01*
X170828656Y-77467992D01*
X170166453Y-77467992D01*
X170009943Y-77460876D01*
X169907097Y-77443110D01*
X169822609Y-77408614D01*
X169766353Y-77360220D01*
X169728721Y-77294057D01*
X169703918Y-77196272D01*
X169698270Y-77274888D01*
X169639935Y-77274888D01*
X169648349Y-77175045D01*
X169673693Y-77081631D01*
X169717308Y-76992673D01*
X169788334Y-76893716D01*
X169876487Y-76797610D01*
X169993193Y-76690384D01*
X169649421Y-76690384D01*
X169663616Y-76557119D01*
X169716893Y-76557119D01*
X170318036Y-76557119D01*
X170495723Y-76557119D01*
X170845753Y-76557119D01*
X170879947Y-76557119D01*
X170917412Y-76564687D01*
X170944824Y-76582765D01*
X170961769Y-76604899D01*
X170966959Y-76611769D01*
X170997642Y-76652832D01*
X170997642Y-76311045D01*
X170966959Y-76346918D01*
X170963600Y-76349513D01*
X170961769Y-76352108D01*
X170915820Y-76393019D01*
X170828809Y-76399888D01*
X169934727Y-76399888D01*
X169853669Y-76394698D01*
X169818712Y-76372563D01*
X169801768Y-76350276D01*
X169796578Y-76343559D01*
X169748798Y-76276851D01*
X169716893Y-76557119D01*
X169663616Y-76557119D01*
X169708040Y-76140075D01*
X169747118Y-76140075D01*
X169777417Y-76241407D01*
G37*
G36*
X170507749Y-78125467D02*
G01*
X170630906Y-78160821D01*
X170748514Y-78220260D01*
X170853964Y-78299732D01*
X170943111Y-78395757D01*
X171017029Y-78509993D01*
X171071160Y-78635028D01*
X171103796Y-78767708D01*
X171114878Y-78909941D01*
X171103760Y-79049798D01*
X171070923Y-79181017D01*
X171016265Y-79305462D01*
X170941821Y-79419061D01*
X170852128Y-79514216D01*
X170746072Y-79592600D01*
X170628107Y-79651314D01*
X170505825Y-79686104D01*
X170377265Y-79697777D01*
X170231210Y-79682587D01*
X170091653Y-79637021D01*
X169963934Y-79564242D01*
X169853211Y-79466967D01*
X169762972Y-79349535D01*
X169695369Y-79214023D01*
X169669308Y-79121822D01*
X169720557Y-79121822D01*
X169781054Y-79240778D01*
X169864129Y-79342411D01*
X169971974Y-79428652D01*
X170094831Y-79492317D01*
X170228932Y-79530852D01*
X170377112Y-79544057D01*
X170521453Y-79530502D01*
X170651795Y-79490911D01*
X170771107Y-79425293D01*
X170875082Y-79336803D01*
X170965334Y-79223314D01*
X171042063Y-79080911D01*
X171021608Y-79108236D01*
X170944432Y-79196176D01*
X170857568Y-79265422D01*
X170759963Y-79317521D01*
X170654195Y-79352477D01*
X170526214Y-79375145D01*
X170371922Y-79383314D01*
X170183579Y-79370806D01*
X170029701Y-79336155D01*
X169904259Y-79282490D01*
X169802364Y-79211199D01*
X169720557Y-79121822D01*
X169669308Y-79121822D01*
X169653760Y-79066815D01*
X169639652Y-78908262D01*
X169639784Y-78906583D01*
X169698270Y-78906583D01*
X169707626Y-78986586D01*
X169735246Y-79059065D01*
X169782076Y-79126096D01*
X169879278Y-79208066D01*
X170017923Y-79273100D01*
X170176766Y-79311584D01*
X170366579Y-79325307D01*
X170510567Y-79317595D01*
X170640131Y-79295387D01*
X170759933Y-79257968D01*
X170853081Y-79210818D01*
X170930762Y-79149363D01*
X170988025Y-79077553D01*
X171024606Y-78995716D01*
X171036721Y-78908262D01*
X171024748Y-78819549D01*
X170988941Y-78738208D01*
X170932145Y-78666938D01*
X170853081Y-78604027D01*
X170758602Y-78555426D01*
X170640284Y-78517779D01*
X170511982Y-78495621D01*
X170366579Y-78487859D01*
X170169862Y-78502103D01*
X170011032Y-78541430D01*
X169882978Y-78602348D01*
X169799120Y-78667261D01*
X169742750Y-78738478D01*
X169709570Y-78817321D01*
X169698270Y-78906583D01*
X169639784Y-78906583D01*
X169650827Y-78766075D01*
X169679630Y-78650128D01*
X169722236Y-78650128D01*
X169805795Y-78539181D01*
X169909138Y-78452855D01*
X170035083Y-78389151D01*
X170188339Y-78348550D01*
X170375128Y-78333986D01*
X170559436Y-78347488D01*
X170710081Y-78384981D01*
X170833236Y-78443437D01*
X170917805Y-78507551D01*
X171014433Y-78619445D01*
X170939329Y-78482669D01*
X170870941Y-78392146D01*
X170768125Y-78299545D01*
X170647001Y-78229725D01*
X170514289Y-78186166D01*
X170376960Y-78171717D01*
X170236875Y-78186512D01*
X170105087Y-78230641D01*
X169984400Y-78301477D01*
X169876109Y-78398100D01*
X169787485Y-78514891D01*
X169722236Y-78650128D01*
X169679630Y-78650128D01*
X169683720Y-78633664D01*
X169738265Y-78509077D01*
X169812576Y-78395395D01*
X169901978Y-78299657D01*
X170007542Y-78220260D01*
X170124933Y-78160759D01*
X170247387Y-78125436D01*
X170376960Y-78113557D01*
X170507749Y-78125467D01*
G37*
G36*
X169777417Y-79975880D02*
G01*
X169824818Y-80032542D01*
X169897361Y-80063290D01*
X170028914Y-80076201D01*
X170746072Y-80076201D01*
X170877469Y-80063479D01*
X170948488Y-80033458D01*
X170995185Y-79977426D01*
X171027867Y-79874548D01*
X171075800Y-79874548D01*
X171075800Y-80660704D01*
X171027867Y-80660704D01*
X170994323Y-80540096D01*
X170947114Y-80475232D01*
X170874372Y-80439556D01*
X170744392Y-80424857D01*
X170081426Y-80424857D01*
X169859623Y-80550337D01*
X169787290Y-80604178D01*
X169744065Y-80648645D01*
X169716588Y-80696532D01*
X169708040Y-80742831D01*
X169714855Y-80780221D01*
X169734448Y-80808471D01*
X169764634Y-80826745D01*
X169806805Y-80833353D01*
X169912288Y-80819615D01*
X169977012Y-80804197D01*
X170045095Y-80795648D01*
X170106503Y-80805805D01*
X170154088Y-80834880D01*
X170185672Y-80879633D01*
X170196525Y-80937462D01*
X170182987Y-81003479D01*
X170143860Y-81051188D01*
X170083861Y-81080273D01*
X169994414Y-81091335D01*
X169897000Y-81081163D01*
X169813740Y-81051991D01*
X169741623Y-81004171D01*
X169684401Y-80940457D01*
X169651014Y-80869065D01*
X169647249Y-80841902D01*
X169709871Y-80841902D01*
X169783634Y-80916932D01*
X169872542Y-80961369D01*
X169981592Y-80976846D01*
X170066860Y-80965887D01*
X170106235Y-80940644D01*
X170118368Y-80903421D01*
X170110751Y-80871476D01*
X170089146Y-80852644D01*
X170047842Y-80845260D01*
X169952130Y-80862357D01*
X169823444Y-80881133D01*
X169765027Y-80871500D01*
X169709871Y-80841902D01*
X169647249Y-80841902D01*
X169639652Y-80787100D01*
X169658065Y-80689542D01*
X169714146Y-80603307D01*
X169805531Y-80526729D01*
X169975638Y-80424857D01*
X169649421Y-80424857D01*
X169663616Y-80291592D01*
X169716893Y-80291592D01*
X170828809Y-80291592D01*
X170845906Y-80291592D01*
X170880100Y-80291592D01*
X170917538Y-80299166D01*
X170944824Y-80317238D01*
X170961921Y-80339372D01*
X170966959Y-80346242D01*
X170997642Y-80387305D01*
X170997642Y-80045518D01*
X170966959Y-80081391D01*
X170963600Y-80083986D01*
X170961769Y-80086581D01*
X170915820Y-80127492D01*
X170828656Y-80134361D01*
X169933812Y-80134361D01*
X169852601Y-80129171D01*
X169817644Y-80107036D01*
X169800852Y-80084749D01*
X169795814Y-80078032D01*
X169748798Y-80011324D01*
X169716893Y-80291592D01*
X169663616Y-80291592D01*
X169708040Y-79874548D01*
X169747118Y-79874548D01*
X169777417Y-79975880D01*
G37*
G36*
X170836562Y-81167630D02*
G01*
X170922225Y-81205773D01*
X170995199Y-81269632D01*
X171048802Y-81351818D01*
X171082503Y-81452969D01*
X171094576Y-81578142D01*
X171083699Y-81694543D01*
X171050993Y-81807431D01*
X170995241Y-81918580D01*
X170913836Y-82029380D01*
X171075800Y-82029380D01*
X171075800Y-82579690D01*
X171027867Y-82579690D01*
X170994979Y-82477047D01*
X170947725Y-82421543D01*
X170876372Y-82392116D01*
X170746530Y-82379716D01*
X170255449Y-82379716D01*
X170124884Y-82375569D01*
X170038989Y-82365214D01*
X169963454Y-82345469D01*
X169897480Y-82316518D01*
X169823049Y-82267445D01*
X169760140Y-82203681D01*
X169707887Y-82123414D01*
X169657411Y-81985892D01*
X169653450Y-81949085D01*
X169696591Y-81949085D01*
X169738446Y-82049103D01*
X169803866Y-82128425D01*
X169895801Y-82190122D01*
X169976668Y-82217874D01*
X170091616Y-82237311D01*
X170250411Y-82244772D01*
X170830030Y-82244772D01*
X170846974Y-82246451D01*
X170880863Y-82246451D01*
X170916711Y-82252990D01*
X170945130Y-82272096D01*
X170962074Y-82294384D01*
X170964669Y-82298505D01*
X170967111Y-82301100D01*
X170997642Y-82340484D01*
X170997642Y-82087540D01*
X170254838Y-82087540D01*
X169937933Y-82077313D01*
X169833513Y-82053200D01*
X169754942Y-82010274D01*
X169696591Y-81949085D01*
X169653450Y-81949085D01*
X169639652Y-81820858D01*
X169650236Y-81691241D01*
X169660255Y-81653399D01*
X169699949Y-81653399D01*
X169758493Y-81587483D01*
X169805431Y-81550054D01*
X169860173Y-81524654D01*
X169948161Y-81501358D01*
X170006321Y-81480750D01*
X170020670Y-81444877D01*
X170015975Y-81421616D01*
X170002200Y-81403813D01*
X169951519Y-81388548D01*
X169872770Y-81405897D01*
X169798715Y-81461058D01*
X169741167Y-81542890D01*
X169699949Y-81653399D01*
X169660255Y-81653399D01*
X169680868Y-81575546D01*
X169731058Y-81473335D01*
X169793067Y-81400455D01*
X169869012Y-81352723D01*
X169951519Y-81337257D01*
X170011509Y-81347406D01*
X170057765Y-81376489D01*
X170088504Y-81420428D01*
X170098828Y-81474033D01*
X170087824Y-81540915D01*
X170059291Y-81579821D01*
X170009765Y-81603971D01*
X169909235Y-81624395D01*
X169810576Y-81646623D01*
X169749713Y-81682403D01*
X169711638Y-81735933D01*
X169698270Y-81808951D01*
X169705749Y-81861560D01*
X169728342Y-81910617D01*
X169763175Y-81952281D01*
X169807874Y-81983279D01*
X169856486Y-82001553D01*
X169935643Y-82017321D01*
X170153935Y-82029380D01*
X170177902Y-82029380D01*
X170225834Y-82029380D01*
X170281705Y-82029380D01*
X170840258Y-82029380D01*
X170921062Y-81913286D01*
X170962893Y-81817613D01*
X170975355Y-81737205D01*
X170967011Y-81672033D01*
X170942771Y-81616113D01*
X170901929Y-81567151D01*
X170820317Y-81517031D01*
X170717068Y-81499678D01*
X170612229Y-81515432D01*
X170516331Y-81562876D01*
X170434904Y-81637927D01*
X170366121Y-81744837D01*
X170316765Y-81871059D01*
X170281705Y-82029380D01*
X170225834Y-82029380D01*
X170253134Y-81748006D01*
X170257818Y-81728656D01*
X170312388Y-81728656D01*
X170393629Y-81573263D01*
X170446111Y-81497999D01*
X170532305Y-81421705D01*
X170626005Y-81377700D01*
X170730654Y-81362903D01*
X170825688Y-81374688D01*
X170901460Y-81407882D01*
X170962563Y-81462299D01*
X171010948Y-81541742D01*
X171045574Y-81653399D01*
X171047406Y-81583332D01*
X171036945Y-81477095D01*
X171007426Y-81389214D01*
X170959937Y-81315886D01*
X170895672Y-81258473D01*
X170820667Y-81224353D01*
X170731417Y-81212540D01*
X170639770Y-81224366D01*
X170558495Y-81259186D01*
X170484714Y-81318582D01*
X170417107Y-81407324D01*
X170360891Y-81535124D01*
X170312388Y-81728656D01*
X170257818Y-81728656D01*
X170304369Y-81536349D01*
X170373754Y-81380000D01*
X170448767Y-81277601D01*
X170532440Y-81208822D01*
X170626370Y-81168255D01*
X170734165Y-81154380D01*
X170836562Y-81167630D01*
G37*
G36*
X169777417Y-82833522D02*
G01*
X169824818Y-82890184D01*
X169897361Y-82920931D01*
X170028914Y-82933842D01*
X170746072Y-82933842D01*
X170877469Y-82921120D01*
X170948488Y-82891099D01*
X170995185Y-82835067D01*
X171027867Y-82732189D01*
X171075800Y-82732189D01*
X171075800Y-83482472D01*
X171027867Y-83482472D01*
X170994945Y-83379847D01*
X170947572Y-83324325D01*
X170876072Y-83294897D01*
X170746072Y-83282499D01*
X170083258Y-83282499D01*
X169910279Y-83441597D01*
X169818712Y-83548265D01*
X169762968Y-83655111D01*
X169745287Y-83761062D01*
X169756468Y-83834810D01*
X169788945Y-83895853D01*
X169840068Y-83943865D01*
X169910914Y-83977980D01*
X169996932Y-83994509D01*
X170168895Y-84001946D01*
X170746072Y-84001946D01*
X170876192Y-83989503D01*
X170947725Y-83959967D01*
X170994971Y-83904586D01*
X171027867Y-83801973D01*
X171075800Y-83801973D01*
X171075800Y-84552256D01*
X171027867Y-84552256D01*
X170994979Y-84449613D01*
X170947725Y-84394109D01*
X170876207Y-84364684D01*
X170746072Y-84352282D01*
X170179123Y-84352282D01*
X170048207Y-84343582D01*
X169945248Y-84319900D01*
X169864813Y-84283894D01*
X169772753Y-84211823D01*
X169700560Y-84112161D01*
X169654952Y-83996053D01*
X169639652Y-83870361D01*
X169639935Y-83867002D01*
X169698270Y-83867002D01*
X169714113Y-83972689D01*
X169760625Y-84062983D01*
X169840999Y-84142081D01*
X169901217Y-84176795D01*
X169972432Y-84200241D01*
X170054215Y-84212465D01*
X170177138Y-84217338D01*
X170828809Y-84217338D01*
X170845753Y-84219017D01*
X170879947Y-84219017D01*
X170916111Y-84225559D01*
X170944824Y-84244663D01*
X170961769Y-84266950D01*
X170964364Y-84271072D01*
X170966959Y-84273667D01*
X170997642Y-84313051D01*
X170997642Y-83972943D01*
X170966959Y-84007137D01*
X170965280Y-84009579D01*
X170961769Y-84014006D01*
X170915820Y-84054153D01*
X170828656Y-84060107D01*
X170166453Y-84060107D01*
X170009943Y-84052991D01*
X169907097Y-84035225D01*
X169822609Y-84000729D01*
X169766353Y-83952335D01*
X169728721Y-83886171D01*
X169703918Y-83788387D01*
X169698270Y-83867002D01*
X169639935Y-83867002D01*
X169648349Y-83767160D01*
X169673693Y-83673745D01*
X169717308Y-83584787D01*
X169788334Y-83485831D01*
X169876487Y-83389724D01*
X169993193Y-83282499D01*
X169649421Y-83282499D01*
X169663616Y-83149234D01*
X169716893Y-83149234D01*
X170318036Y-83149234D01*
X170495723Y-83149234D01*
X170845753Y-83149234D01*
X170879947Y-83149234D01*
X170917412Y-83156801D01*
X170944824Y-83174879D01*
X170961769Y-83197014D01*
X170966959Y-83203883D01*
X170997642Y-83244946D01*
X170997642Y-82903159D01*
X170966959Y-82939032D01*
X170963600Y-82941627D01*
X170961769Y-82944222D01*
X170915820Y-82985133D01*
X170828809Y-82992002D01*
X169934727Y-82992002D01*
X169853669Y-82986812D01*
X169818712Y-82964678D01*
X169801768Y-82942390D01*
X169796578Y-82935674D01*
X169748798Y-82868965D01*
X169716893Y-83149234D01*
X169663616Y-83149234D01*
X169708040Y-82732189D01*
X169747118Y-82732189D01*
X169777417Y-82833522D01*
G37*
G36*
X171661387Y-84673364D02*
G01*
X171747305Y-84708979D01*
X171825284Y-84769486D01*
X171896761Y-84859392D01*
X171964217Y-84997257D01*
X172007711Y-85168424D01*
X172023462Y-85380697D01*
X172014058Y-85538659D01*
X171986891Y-85681258D01*
X171943014Y-85810565D01*
X171880371Y-85930826D01*
X171804993Y-86028080D01*
X171716632Y-86105335D01*
X171615058Y-86163129D01*
X171505065Y-86197784D01*
X171384156Y-86209596D01*
X171294029Y-86201979D01*
X171211507Y-86179677D01*
X171135515Y-86143057D01*
X171068778Y-86093428D01*
X171012672Y-86032093D01*
X170968791Y-85960163D01*
X170942689Y-85883123D01*
X170923654Y-85763777D01*
X170916126Y-85587540D01*
X170916126Y-85262850D01*
X170909256Y-85102108D01*
X170889786Y-85037012D01*
X170859008Y-85003801D01*
X170815681Y-84992809D01*
X170775093Y-84998255D01*
X170739966Y-85014180D01*
X170641963Y-85100429D01*
X170704893Y-85280283D01*
X170724090Y-85435347D01*
X170715572Y-85546333D01*
X170690473Y-85650115D01*
X170648832Y-85748130D01*
X170592056Y-85838140D01*
X170523902Y-85914293D01*
X170443668Y-85977871D01*
X170353908Y-86026441D01*
X170262599Y-86054836D01*
X170168132Y-86064272D01*
X170061768Y-86053049D01*
X169963731Y-86019850D01*
X169875525Y-85966039D01*
X169799631Y-85892539D01*
X169737685Y-85803606D01*
X169687584Y-85697602D01*
X169664493Y-85616544D01*
X169720710Y-85616544D01*
X169764052Y-85701777D01*
X169822729Y-85774534D01*
X169898091Y-85836210D01*
X169984069Y-85881916D01*
X170078367Y-85909600D01*
X170183092Y-85919100D01*
X170281232Y-85910197D01*
X170368177Y-85884430D01*
X170446111Y-85842164D01*
X170514014Y-85784741D01*
X170574193Y-85709926D01*
X170626698Y-85614865D01*
X170530519Y-85688822D01*
X170428098Y-85736987D01*
X170312608Y-85763667D01*
X170155767Y-85773776D01*
X170010063Y-85763993D01*
X169900533Y-85737903D01*
X169804832Y-85690045D01*
X169720710Y-85616544D01*
X169664493Y-85616544D01*
X169654587Y-85581772D01*
X169639652Y-85450765D01*
X169546943Y-85478037D01*
X169490771Y-85513395D01*
X169460226Y-85555381D01*
X169450058Y-85606317D01*
X169458344Y-85649649D01*
X169483471Y-85687205D01*
X169529437Y-85720806D01*
X169577370Y-85746451D01*
X169609236Y-85770879D01*
X169635835Y-85804459D01*
X169653530Y-85843135D01*
X169659191Y-85881395D01*
X169650035Y-85928686D01*
X169622707Y-85967643D01*
X169582023Y-85993814D01*
X169531574Y-86002753D01*
X169478010Y-85992833D01*
X169426092Y-85961690D01*
X169382478Y-85914802D01*
X169347018Y-85851475D01*
X169324688Y-85780815D01*
X169317251Y-85707219D01*
X169320657Y-85676384D01*
X169395409Y-85676384D01*
X169401172Y-85731698D01*
X169418612Y-85785683D01*
X169445604Y-85834571D01*
X169478146Y-85871931D01*
X169516185Y-85897555D01*
X169552640Y-85905362D01*
X169588602Y-85893404D01*
X169600573Y-85857581D01*
X169584850Y-85817281D01*
X169524399Y-85772096D01*
X169446700Y-85713936D01*
X169423215Y-85678818D01*
X169400446Y-85625093D01*
X169395409Y-85676384D01*
X169320657Y-85676384D01*
X169326227Y-85625963D01*
X169351480Y-85560148D01*
X169392356Y-85506330D01*
X169446918Y-85464380D01*
X169521494Y-85428630D01*
X169690027Y-85428630D01*
X169703740Y-85511836D01*
X169744147Y-85581817D01*
X169815048Y-85642190D01*
X169901963Y-85683471D01*
X170014992Y-85710735D01*
X170160805Y-85720806D01*
X170311165Y-85710610D01*
X170429527Y-85682828D01*
X170522131Y-85640511D01*
X170598083Y-85578346D01*
X170641127Y-85506134D01*
X170655702Y-85420081D01*
X170641594Y-85335831D01*
X170599701Y-85263783D01*
X170525642Y-85200416D01*
X170435095Y-85156408D01*
X170321613Y-85127894D01*
X170179734Y-85117526D01*
X170033263Y-85128131D01*
X169916460Y-85157249D01*
X169823597Y-85202095D01*
X169747667Y-85266879D01*
X169704583Y-85341152D01*
X169690027Y-85428630D01*
X169521494Y-85428630D01*
X169526870Y-85426053D01*
X169639652Y-85392757D01*
X169665841Y-85213021D01*
X169666996Y-85209880D01*
X169710482Y-85209880D01*
X169809356Y-85103434D01*
X169919006Y-85029915D01*
X170041734Y-84985729D01*
X170181413Y-84970522D01*
X170313730Y-84982643D01*
X170428225Y-85017395D01*
X170528343Y-85073906D01*
X170616470Y-85153399D01*
X170530705Y-85011262D01*
X170430693Y-84912362D01*
X170352525Y-84865696D01*
X170269490Y-84838046D01*
X170179734Y-84828709D01*
X170073745Y-84840236D01*
X169977546Y-84874172D01*
X169888627Y-84931290D01*
X169813626Y-85006460D01*
X169754320Y-85098377D01*
X169710482Y-85209880D01*
X169666996Y-85209880D01*
X169720099Y-85065471D01*
X169773353Y-84978200D01*
X169836487Y-84906727D01*
X169909998Y-84849316D01*
X169992637Y-84806728D01*
X170081563Y-84781107D01*
X170178512Y-84772380D01*
X170311801Y-84789708D01*
X170424740Y-84839852D01*
X170521727Y-84922863D01*
X170614638Y-85052649D01*
X170638452Y-85025324D01*
X170730868Y-84929611D01*
X170797515Y-84929611D01*
X170878879Y-84909003D01*
X170938317Y-84916563D01*
X170977339Y-84936328D01*
X171004676Y-84971369D01*
X171025730Y-85035399D01*
X171035974Y-85114112D01*
X171040079Y-85233846D01*
X171041758Y-85428630D01*
X171043590Y-85664477D01*
X171052040Y-85803396D01*
X171073357Y-85896050D01*
X171113695Y-85974462D01*
X171177771Y-86043817D01*
X171247475Y-86089780D01*
X171327972Y-86117836D01*
X171422166Y-86127622D01*
X171531498Y-86108612D01*
X171647938Y-86047175D01*
X171548271Y-86077915D01*
X171476510Y-86086559D01*
X171382816Y-86072361D01*
X171307246Y-86031516D01*
X171245243Y-85961843D01*
X171220131Y-85906487D01*
X171204027Y-85825830D01*
X171194563Y-85520832D01*
X171193036Y-85293533D01*
X171187846Y-85074783D01*
X171167543Y-84970522D01*
X171166521Y-84968843D01*
X171231046Y-84968843D01*
X171246922Y-85115846D01*
X171251654Y-85271399D01*
X171251654Y-85604637D01*
X171251654Y-85647380D01*
X171256845Y-85778966D01*
X171274765Y-85888936D01*
X171320958Y-85967643D01*
X171366759Y-86005570D01*
X171422594Y-86028749D01*
X171491470Y-86036947D01*
X171582475Y-86025187D01*
X171667020Y-85989931D01*
X171742540Y-85934132D01*
X171810818Y-85856666D01*
X171865874Y-85764462D01*
X171909278Y-85653333D01*
X171936140Y-85533704D01*
X171945304Y-85404664D01*
X171931301Y-85241304D01*
X171891418Y-85101345D01*
X171825349Y-84979902D01*
X171741056Y-84892822D01*
X171638541Y-84836984D01*
X171524901Y-84818481D01*
X171423133Y-84834214D01*
X171326293Y-84882437D01*
X171231046Y-84968843D01*
X171166521Y-84968843D01*
X171134172Y-84915677D01*
X171091065Y-84877404D01*
X171038562Y-84853951D01*
X170975813Y-84845806D01*
X170927207Y-84850132D01*
X170889259Y-84861987D01*
X170797515Y-84929611D01*
X170730868Y-84929611D01*
X170779655Y-84879084D01*
X170836140Y-84834900D01*
X170881779Y-84810696D01*
X170929460Y-84797446D01*
X170983903Y-84792835D01*
X171039276Y-84798788D01*
X171086638Y-84815886D01*
X171131346Y-84845525D01*
X171187999Y-84898776D01*
X171286914Y-84783565D01*
X171370265Y-84715899D01*
X171461503Y-84675087D01*
X171564590Y-84661250D01*
X171661387Y-84673364D01*
G37*
G36*
X170542924Y-86320571D02*
G01*
X170664043Y-86350353D01*
X170775228Y-86399190D01*
X170875475Y-86466748D01*
X170958634Y-86549720D01*
X171026188Y-86649539D01*
X171074909Y-86760229D01*
X171104655Y-86881132D01*
X171114878Y-87014377D01*
X171106354Y-87142672D01*
X171081564Y-87259755D01*
X171041148Y-87367308D01*
X170948470Y-87522396D01*
X170795989Y-87701462D01*
X170751567Y-87667268D01*
X170835186Y-87570587D01*
X170891701Y-87492024D01*
X170935994Y-87412950D01*
X170967875Y-87334793D01*
X170987780Y-87255010D01*
X170994283Y-87176798D01*
X170984628Y-87080546D01*
X170956544Y-86995021D01*
X170910020Y-86917901D01*
X170847895Y-86851668D01*
X170769307Y-86794976D01*
X170671578Y-86747847D01*
X170509604Y-86703792D01*
X170312541Y-86688007D01*
X170274683Y-86688007D01*
X170274683Y-87718559D01*
X170129822Y-87701596D01*
X170013010Y-87667820D01*
X169919157Y-87619488D01*
X169837663Y-87556788D01*
X169769174Y-87479558D01*
X169712924Y-87386084D01*
X169663410Y-87245186D01*
X169718725Y-87245186D01*
X169759154Y-87337941D01*
X169819017Y-87416919D01*
X169895925Y-87481092D01*
X169990140Y-87530492D01*
X170095358Y-87562202D01*
X170216065Y-87576746D01*
X170216065Y-87429742D01*
X170168895Y-87431421D01*
X170016472Y-87419537D01*
X169902518Y-87387763D01*
X169804489Y-87331172D01*
X169718725Y-87245186D01*
X169663410Y-87245186D01*
X169658307Y-87230665D01*
X169639652Y-87057272D01*
X169640519Y-87046892D01*
X169698270Y-87046892D01*
X169710774Y-87133347D01*
X169748034Y-87210840D01*
X169807165Y-87275083D01*
X169888932Y-87323802D01*
X170004834Y-87355201D01*
X170216065Y-87369903D01*
X170216065Y-86688007D01*
X170032965Y-86711516D01*
X169901426Y-86752538D01*
X169809443Y-86806694D01*
X169747829Y-86872358D01*
X169711096Y-86950992D01*
X169698270Y-87046892D01*
X169640519Y-87046892D01*
X169651135Y-86919828D01*
X169684773Y-86793775D01*
X169695223Y-86771813D01*
X169741012Y-86771813D01*
X169821415Y-86690709D01*
X169902823Y-86630763D01*
X169992376Y-86585967D01*
X170095317Y-86553826D01*
X170205527Y-86535515D01*
X170330401Y-86529097D01*
X170509423Y-86543959D01*
X170670204Y-86587104D01*
X170813502Y-86658449D01*
X170921469Y-86749526D01*
X170979453Y-86822108D01*
X171017944Y-86893019D01*
X171043718Y-86973076D01*
X171064351Y-87087955D01*
X171066030Y-87016209D01*
X171056359Y-86897689D01*
X171027945Y-86788017D01*
X170980850Y-86685412D01*
X170916524Y-86592883D01*
X170838235Y-86515543D01*
X170744698Y-86452160D01*
X170641259Y-86405999D01*
X170530115Y-86378046D01*
X170409474Y-86368507D01*
X170269204Y-86380375D01*
X170140425Y-86415164D01*
X170020823Y-86472768D01*
X169913603Y-86551257D01*
X169820597Y-86650129D01*
X169741012Y-86771813D01*
X169695223Y-86771813D01*
X169740402Y-86676864D01*
X169815940Y-86571736D01*
X169908156Y-86482716D01*
X170018686Y-86408654D01*
X170140280Y-86354304D01*
X170269976Y-86321504D01*
X170409780Y-86310347D01*
X170542924Y-86320571D01*
G37*
G36*
X171024661Y-87929982D02*
G01*
X171077472Y-88125255D01*
X171106140Y-88288886D01*
X171114878Y-88425490D01*
X171106703Y-88547226D01*
X171083127Y-88656147D01*
X171043740Y-88756363D01*
X170991688Y-88839023D01*
X170925838Y-88907148D01*
X170851249Y-88955191D01*
X170766871Y-88984437D01*
X170669593Y-88994576D01*
X170543972Y-88976402D01*
X170437196Y-88923314D01*
X170344292Y-88832307D01*
X170257567Y-88708063D01*
X170118520Y-88469911D01*
X170033335Y-88326619D01*
X169986782Y-88265663D01*
X169937240Y-88232034D01*
X169873972Y-88220478D01*
X169806010Y-88234665D01*
X169749103Y-88277723D01*
X169711339Y-88341022D01*
X169698270Y-88420452D01*
X169710547Y-88511504D01*
X169747299Y-88595186D01*
X169811080Y-88674159D01*
X169891810Y-88738641D01*
X169993572Y-88792756D01*
X170120352Y-88835665D01*
X170120352Y-88881766D01*
X169720710Y-88810020D01*
X169657567Y-88573567D01*
X169639652Y-88401523D01*
X169652320Y-88267377D01*
X169658075Y-88249482D01*
X169695064Y-88249482D01*
X169772153Y-88162622D01*
X169849703Y-88115791D01*
X169930911Y-88100799D01*
X170012591Y-88117669D01*
X170085853Y-88169951D01*
X170154260Y-88257995D01*
X170263234Y-88440908D01*
X170394180Y-88661989D01*
X170483816Y-88770788D01*
X170557295Y-88826546D01*
X170635633Y-88858972D01*
X170721189Y-88869859D01*
X170808160Y-88859747D01*
X170881683Y-88830716D01*
X170944824Y-88782695D01*
X170994274Y-88719710D01*
X171030630Y-88640636D01*
X171053054Y-88541810D01*
X171006898Y-88626286D01*
X170948321Y-88683262D01*
X170875796Y-88717600D01*
X170784845Y-88729725D01*
X170706285Y-88719500D01*
X170638398Y-88689681D01*
X170578460Y-88639202D01*
X170517146Y-88555694D01*
X170399399Y-88353743D01*
X170285409Y-88166268D01*
X170218507Y-88078665D01*
X170159625Y-88029363D01*
X170091176Y-87999888D01*
X170010137Y-87989669D01*
X169908009Y-88006606D01*
X169819170Y-88057141D01*
X169748408Y-88136528D01*
X169695064Y-88249482D01*
X169658075Y-88249482D01*
X169687996Y-88156440D01*
X169745134Y-88064010D01*
X169822932Y-87990974D01*
X169912591Y-87948077D01*
X170018228Y-87933340D01*
X170116599Y-87946963D01*
X170201070Y-87986772D01*
X170275294Y-88054699D01*
X170342084Y-88147416D01*
X170450996Y-88331456D01*
X170604411Y-88584400D01*
X170655494Y-88632963D01*
X170715371Y-88661648D01*
X170786982Y-88671564D01*
X170858330Y-88662914D01*
X170917700Y-88638171D01*
X170967875Y-88597223D01*
X171018964Y-88514325D01*
X171036721Y-88408393D01*
X171018921Y-88295698D01*
X170965298Y-88194066D01*
X170870055Y-88099362D01*
X170721024Y-88010626D01*
X170589334Y-87962344D01*
X170794004Y-87962344D01*
X170878648Y-88020077D01*
X170938260Y-88070116D01*
X170989954Y-88126431D01*
X171044811Y-88201702D01*
X171036721Y-88163997D01*
X170990162Y-88010277D01*
X170979934Y-87979441D01*
X170794004Y-87962344D01*
X170589334Y-87962344D01*
X170501066Y-87929982D01*
X170501066Y-87888919D01*
X171024661Y-87929982D01*
G37*
G36*
X170836562Y-89173911D02*
G01*
X170922225Y-89212053D01*
X170995199Y-89275913D01*
X171048802Y-89358099D01*
X171082503Y-89459249D01*
X171094576Y-89584422D01*
X171083699Y-89700824D01*
X171050993Y-89813712D01*
X170995241Y-89924860D01*
X170913836Y-90035661D01*
X171075800Y-90035661D01*
X171075800Y-90585970D01*
X171027867Y-90585970D01*
X170994979Y-90483327D01*
X170947725Y-90427823D01*
X170876372Y-90398397D01*
X170746530Y-90385997D01*
X170255449Y-90385997D01*
X170124884Y-90381849D01*
X170038989Y-90371495D01*
X169963454Y-90351750D01*
X169897480Y-90322799D01*
X169823049Y-90273725D01*
X169760140Y-90209962D01*
X169707887Y-90129694D01*
X169657411Y-89992172D01*
X169653450Y-89955366D01*
X169696591Y-89955366D01*
X169738446Y-90055383D01*
X169803866Y-90134706D01*
X169895801Y-90196403D01*
X169976668Y-90224154D01*
X170091616Y-90243592D01*
X170250411Y-90251052D01*
X170830030Y-90251052D01*
X170846974Y-90252732D01*
X170880863Y-90252732D01*
X170916711Y-90259271D01*
X170945130Y-90278377D01*
X170962074Y-90300664D01*
X170964669Y-90304786D01*
X170967111Y-90307381D01*
X170997642Y-90346765D01*
X170997642Y-90093821D01*
X170254838Y-90093821D01*
X169937933Y-90083593D01*
X169833513Y-90059480D01*
X169754942Y-90016554D01*
X169696591Y-89955366D01*
X169653450Y-89955366D01*
X169639652Y-89827138D01*
X169650236Y-89697521D01*
X169660255Y-89659679D01*
X169699949Y-89659679D01*
X169758493Y-89593763D01*
X169805431Y-89556334D01*
X169860173Y-89530934D01*
X169948161Y-89507638D01*
X170006321Y-89487030D01*
X170020670Y-89451157D01*
X170015975Y-89427896D01*
X170002200Y-89410094D01*
X169951519Y-89394829D01*
X169872770Y-89412177D01*
X169798715Y-89467338D01*
X169741167Y-89549171D01*
X169699949Y-89659679D01*
X169660255Y-89659679D01*
X169680868Y-89581827D01*
X169731058Y-89479616D01*
X169793067Y-89406735D01*
X169869012Y-89359004D01*
X169951519Y-89343538D01*
X170011509Y-89353686D01*
X170057765Y-89382769D01*
X170088504Y-89426709D01*
X170098828Y-89480314D01*
X170087824Y-89547195D01*
X170059291Y-89586101D01*
X170009765Y-89610251D01*
X169909235Y-89630676D01*
X169810576Y-89652904D01*
X169749713Y-89688683D01*
X169711638Y-89742214D01*
X169698270Y-89815232D01*
X169705749Y-89867840D01*
X169728342Y-89916898D01*
X169763175Y-89958562D01*
X169807874Y-89989560D01*
X169856486Y-90007834D01*
X169935643Y-90023601D01*
X170153935Y-90035661D01*
X170177902Y-90035661D01*
X170225834Y-90035661D01*
X170281705Y-90035661D01*
X170840258Y-90035661D01*
X170921062Y-89919567D01*
X170962893Y-89823894D01*
X170975355Y-89743485D01*
X170967011Y-89678313D01*
X170942771Y-89622394D01*
X170901929Y-89573431D01*
X170820317Y-89523312D01*
X170717068Y-89505959D01*
X170612229Y-89521712D01*
X170516331Y-89569157D01*
X170434904Y-89644208D01*
X170366121Y-89751118D01*
X170316765Y-89877339D01*
X170281705Y-90035661D01*
X170225834Y-90035661D01*
X170253134Y-89754287D01*
X170257818Y-89734937D01*
X170312388Y-89734937D01*
X170393629Y-89579543D01*
X170446111Y-89504280D01*
X170532305Y-89427986D01*
X170626005Y-89383980D01*
X170730654Y-89369183D01*
X170825688Y-89380969D01*
X170901460Y-89414163D01*
X170962563Y-89468579D01*
X171010948Y-89548023D01*
X171045574Y-89659679D01*
X171047406Y-89589612D01*
X171036945Y-89483376D01*
X171007426Y-89395494D01*
X170959937Y-89322166D01*
X170895672Y-89264754D01*
X170820667Y-89230634D01*
X170731417Y-89218821D01*
X170639770Y-89230647D01*
X170558495Y-89265467D01*
X170484714Y-89324862D01*
X170417107Y-89413605D01*
X170360891Y-89541405D01*
X170312388Y-89734937D01*
X170257818Y-89734937D01*
X170304369Y-89542630D01*
X170373754Y-89386280D01*
X170448767Y-89283881D01*
X170532440Y-89215102D01*
X170626370Y-89174535D01*
X170734165Y-89160661D01*
X170836562Y-89173911D01*
G37*
G36*
X171075800Y-91158872D02*
G01*
X171026798Y-91158872D01*
X171024966Y-91129869D01*
X171012499Y-91053121D01*
X170984385Y-91015607D01*
X170940855Y-91003320D01*
X170895282Y-91014049D01*
X170829114Y-91054611D01*
X170463055Y-91331522D01*
X170842700Y-91589503D01*
X170907537Y-91625201D01*
X170945893Y-91634077D01*
X170982688Y-91624252D01*
X171007106Y-91594693D01*
X171020037Y-91548812D01*
X171026798Y-91464787D01*
X171075800Y-91464787D01*
X171075800Y-92247585D01*
X171026798Y-92247585D01*
X170992954Y-92166418D01*
X170950472Y-92104856D01*
X170888998Y-92047096D01*
X170766069Y-91955257D01*
X170212859Y-91574238D01*
X169940376Y-91789477D01*
X169829130Y-91886481D01*
X169776275Y-91947472D01*
X169744010Y-92012884D01*
X169722694Y-92103940D01*
X169678730Y-92103940D01*
X169678730Y-91674988D01*
X169722694Y-91674988D01*
X169727364Y-91742982D01*
X169738112Y-91779249D01*
X169758604Y-91802195D01*
X169790777Y-91810085D01*
X169827733Y-91800756D01*
X169886032Y-91763984D01*
X170166758Y-91543402D01*
X169923431Y-91381133D01*
X169906334Y-91372585D01*
X169872293Y-91352130D01*
X169835834Y-91335186D01*
X169800852Y-91329842D01*
X169764004Y-91337926D01*
X169741470Y-91360525D01*
X169729343Y-91398238D01*
X169722694Y-91475014D01*
X169678730Y-91475014D01*
X169678730Y-91246037D01*
X169727579Y-91246037D01*
X169766011Y-91197658D01*
X169814438Y-91182839D01*
X169875409Y-91196663D01*
X169974417Y-91251227D01*
X169998231Y-91268324D01*
X170757521Y-91789477D01*
X170905745Y-91900607D01*
X170997642Y-91997999D01*
X170997642Y-91673309D01*
X170939787Y-91692085D01*
X170898825Y-91682470D01*
X170823924Y-91642473D01*
X170044179Y-91114451D01*
X170008458Y-91090484D01*
X169829703Y-90964089D01*
X169775680Y-90916684D01*
X169727579Y-90858148D01*
X169727579Y-91246037D01*
X169678730Y-91246037D01*
X169678730Y-90718014D01*
X169722694Y-90718014D01*
X169745436Y-90785950D01*
X169792456Y-90851279D01*
X169864027Y-90915471D01*
X170003421Y-91017059D01*
X170035783Y-91039346D01*
X170415428Y-91299007D01*
X170777976Y-91023928D01*
X170813696Y-90993093D01*
X170884222Y-90929895D01*
X170946084Y-90867040D01*
X170984666Y-90812811D01*
X171010750Y-90754179D01*
X171026798Y-90685499D01*
X171075800Y-90685499D01*
X171075800Y-91158872D01*
G37*
G36*
X171613134Y-92276284D02*
G01*
X171544746Y-92276284D01*
X171544746Y-94026284D01*
X171613134Y-94026284D01*
X171613134Y-92276284D01*
G37*
D11*
%TO.C,G\u002A\u002A\u002A*%
G36*
X177497650Y-64571469D02*
G01*
X178168241Y-64651795D01*
X178736927Y-64794201D01*
X179380161Y-65064524D01*
X180185018Y-65560291D01*
X180861554Y-66180518D01*
X181398066Y-66913853D01*
X181782855Y-67748946D01*
X181885811Y-68060398D01*
X182021006Y-68535358D01*
X182129098Y-69024604D01*
X182213591Y-69556866D01*
X182277991Y-70160874D01*
X182325802Y-70865358D01*
X182360529Y-71699047D01*
X182385676Y-72690673D01*
X182401786Y-73422438D01*
X182427171Y-74396275D01*
X182457276Y-75404230D01*
X182491033Y-76418698D01*
X182527375Y-77412072D01*
X182565237Y-78356749D01*
X182603550Y-79225122D01*
X182641248Y-79989585D01*
X182677264Y-80622534D01*
X182710531Y-81096362D01*
X182760295Y-81571837D01*
X182949722Y-82558769D01*
X183254659Y-83443271D01*
X183687212Y-84264613D01*
X184195161Y-84961392D01*
X184798986Y-85539421D01*
X185464683Y-85942341D01*
X186193628Y-86171199D01*
X186386502Y-86201037D01*
X186638773Y-86197799D01*
X186825187Y-86115625D01*
X186964212Y-86034709D01*
X187059317Y-86017120D01*
X187059722Y-86020385D01*
X186989910Y-86113867D01*
X186804631Y-86320653D01*
X186519237Y-86625291D01*
X186149078Y-87012329D01*
X185709502Y-87466316D01*
X185215861Y-87971799D01*
X184683504Y-88513327D01*
X184127782Y-89075447D01*
X183564044Y-89642709D01*
X183007640Y-90199659D01*
X182473921Y-90730847D01*
X181978237Y-91220820D01*
X181535937Y-91654126D01*
X181162372Y-92015314D01*
X180872891Y-92288932D01*
X180682845Y-92459528D01*
X180607583Y-92511650D01*
X180598337Y-92424280D01*
X180690427Y-92270841D01*
X180755704Y-92162072D01*
X180827486Y-91862300D01*
X180843242Y-91474369D01*
X180802462Y-91055912D01*
X180704636Y-90664558D01*
X180638209Y-90508463D01*
X180483752Y-90194234D01*
X180267987Y-89782532D01*
X180009583Y-89308809D01*
X179727210Y-88808516D01*
X179196762Y-87834673D01*
X178559828Y-86466778D01*
X178077726Y-85136660D01*
X177742797Y-83818027D01*
X177547377Y-82484589D01*
X177483806Y-81110053D01*
X177483097Y-81011201D01*
X177461876Y-80714532D01*
X177397953Y-80527522D01*
X177273617Y-80389447D01*
X177112303Y-80267118D01*
X177007488Y-80211059D01*
X176999827Y-80243346D01*
X176985514Y-80435385D01*
X176969813Y-80783657D01*
X176953285Y-81269063D01*
X176936493Y-81872504D01*
X176919998Y-82574882D01*
X176904363Y-83357096D01*
X176890148Y-84200048D01*
X176887633Y-84362248D01*
X176872090Y-85308315D01*
X176854947Y-86269842D01*
X176836890Y-87213127D01*
X176818606Y-88104469D01*
X176800782Y-88910168D01*
X176784105Y-89596521D01*
X176769263Y-90129827D01*
X176766320Y-90226034D01*
X176748513Y-90853943D01*
X176739380Y-91321529D01*
X176740047Y-91652018D01*
X176751642Y-91868635D01*
X176775291Y-91994605D01*
X176812120Y-92053156D01*
X176863257Y-92067511D01*
X176941060Y-92086951D01*
X177016816Y-92207585D01*
X177001168Y-92272801D01*
X176881622Y-92347658D01*
X176819724Y-92372887D01*
X176753722Y-92525336D01*
X176718203Y-92837916D01*
X176699166Y-93098178D01*
X176659852Y-93255614D01*
X176573242Y-93312440D01*
X176409830Y-93314233D01*
X176173803Y-93302748D01*
X175919573Y-93290888D01*
X175846995Y-93282849D01*
X175737308Y-93204031D01*
X175709463Y-92998049D01*
X175702475Y-92839146D01*
X175652709Y-92765801D01*
X175522698Y-92814570D01*
X175375038Y-92978209D01*
X175354657Y-93241108D01*
X175476007Y-93561629D01*
X175531353Y-93680975D01*
X175603551Y-94023932D01*
X175586169Y-94372085D01*
X175478977Y-94641023D01*
X175395755Y-94783477D01*
X175338903Y-94985710D01*
X175375611Y-95103347D01*
X175505742Y-95146182D01*
X175679830Y-95079090D01*
X175844644Y-94910034D01*
X176019985Y-94732083D01*
X176252259Y-94699924D01*
X176287045Y-94704369D01*
X176430635Y-94751929D01*
X176500530Y-94876394D01*
X176532265Y-95132685D01*
X176535913Y-95223882D01*
X176512735Y-95497327D01*
X176447054Y-95674140D01*
X176421268Y-95701645D01*
X176222352Y-95784129D01*
X176007928Y-95727039D01*
X175850738Y-95546004D01*
X175761289Y-95420386D01*
X175547246Y-95335894D01*
X175383713Y-95379705D01*
X175353329Y-95521199D01*
X175478977Y-95750617D01*
X175563329Y-95888183D01*
X175616080Y-96054109D01*
X175664869Y-96185055D01*
X175802845Y-96363099D01*
X175841711Y-96405738D01*
X175968844Y-96661864D01*
X175977610Y-96934949D01*
X175884765Y-97175859D01*
X175707065Y-97335465D01*
X175461268Y-97364632D01*
X175392764Y-97357210D01*
X175259248Y-97413644D01*
X175256596Y-97564069D01*
X175390919Y-97773000D01*
X175494447Y-97933251D01*
X175638259Y-98323273D01*
X175772865Y-98897044D01*
X175783032Y-98970036D01*
X175749495Y-99247311D01*
X175620129Y-99455823D01*
X175426030Y-99538099D01*
X175401666Y-99538603D01*
X175266359Y-99589418D01*
X175272825Y-99733601D01*
X175420900Y-99985447D01*
X175437905Y-100011331D01*
X175547254Y-100275927D01*
X175627123Y-100633954D01*
X175673326Y-101030758D01*
X175681678Y-101411688D01*
X175647994Y-101722090D01*
X175568087Y-101907312D01*
X175449656Y-101997474D01*
X175271686Y-102059423D01*
X175241624Y-102061236D01*
X175168587Y-102126343D01*
X175191636Y-102316224D01*
X175201053Y-102354214D01*
X175293884Y-102809672D01*
X175311390Y-103128677D01*
X175255521Y-103342542D01*
X175202892Y-103497095D01*
X175142122Y-103788878D01*
X175094775Y-104135226D01*
X175067965Y-104453203D01*
X175074797Y-104673263D01*
X175129121Y-104820492D01*
X175241366Y-104953091D01*
X175315174Y-105034390D01*
X175407291Y-105231004D01*
X175395269Y-105501430D01*
X175388923Y-105536187D01*
X175302715Y-105790151D01*
X175182160Y-105956355D01*
X175177831Y-105959616D01*
X175120211Y-106030610D01*
X175074542Y-106160260D01*
X175037486Y-106374177D01*
X175005701Y-106697969D01*
X174975845Y-107157246D01*
X174944580Y-107777618D01*
X174919453Y-108282637D01*
X174890492Y-108795231D01*
X174862600Y-109223719D01*
X174838018Y-109533937D01*
X174818989Y-109691718D01*
X174708994Y-109940472D01*
X174443816Y-110260749D01*
X174068018Y-110572123D01*
X173618453Y-110839363D01*
X173259616Y-110991820D01*
X172530504Y-111167454D01*
X171732979Y-111191200D01*
X170853901Y-111062856D01*
X169880132Y-110782221D01*
X169856376Y-110773992D01*
X169517949Y-110664466D01*
X169237542Y-110586756D01*
X169073776Y-110557217D01*
X168920944Y-110492272D01*
X168761065Y-110323761D01*
X168729529Y-110272686D01*
X169266080Y-110272686D01*
X169308942Y-110313721D01*
X169496113Y-110407361D01*
X169797791Y-110528548D01*
X170176558Y-110661312D01*
X170185581Y-110664278D01*
X170678939Y-110815128D01*
X171085785Y-110906143D01*
X171489676Y-110951449D01*
X171974169Y-110965168D01*
X172181134Y-110965142D01*
X172571063Y-110952367D01*
X172868131Y-110912206D01*
X173138280Y-110832910D01*
X173447455Y-110702734D01*
X173713683Y-110566245D01*
X174152324Y-110259185D01*
X174474208Y-109916638D01*
X174645431Y-109570641D01*
X174675257Y-109430260D01*
X174666749Y-109316657D01*
X174577597Y-109365307D01*
X174402110Y-109576343D01*
X174358663Y-109631221D01*
X173954169Y-109998307D01*
X173413629Y-110305263D01*
X172779100Y-110527442D01*
X172523809Y-110579903D01*
X171898862Y-110634722D01*
X171221093Y-110616810D01*
X170567014Y-110530267D01*
X170013139Y-110379196D01*
X169729990Y-110276519D01*
X169456401Y-110199566D01*
X169309695Y-110199419D01*
X169266080Y-110272686D01*
X168729529Y-110272686D01*
X168685920Y-110202057D01*
X168663579Y-110110449D01*
X168750325Y-110090305D01*
X168816817Y-110079014D01*
X168892551Y-109993604D01*
X168836911Y-109914641D01*
X168627157Y-109787376D01*
X168290167Y-109638178D01*
X167856532Y-109477476D01*
X167356841Y-109315696D01*
X166821682Y-109163268D01*
X166281643Y-109030619D01*
X165767315Y-108928177D01*
X165522267Y-108887326D01*
X165206293Y-108842564D01*
X165014512Y-108833894D01*
X164909091Y-108861151D01*
X164852197Y-108924168D01*
X164837841Y-108945022D01*
X164657669Y-109033984D01*
X164309245Y-109063099D01*
X164161266Y-109066551D01*
X163902528Y-109108407D01*
X163790291Y-109203173D01*
X163772930Y-109233211D01*
X163682153Y-109287362D01*
X163496719Y-109321081D01*
X163185990Y-109338373D01*
X162719325Y-109343246D01*
X161702110Y-109343246D01*
X161702110Y-109106860D01*
X161671041Y-108948503D01*
X161538691Y-108813663D01*
X161081207Y-108643037D01*
X160667374Y-108467499D01*
X160330585Y-108303311D01*
X160104112Y-108166695D01*
X160021228Y-108073870D01*
X160028200Y-108044701D01*
X160103991Y-107993669D01*
X160285103Y-107959424D01*
X160598658Y-107938150D01*
X161071779Y-107926028D01*
X161698743Y-107917447D01*
X162377247Y-107912775D01*
X162898173Y-107916286D01*
X163278072Y-107928592D01*
X163533495Y-107950303D01*
X163680995Y-107982029D01*
X163737121Y-108024383D01*
X163781323Y-108062700D01*
X163974657Y-108110949D01*
X164272395Y-108129276D01*
X164469295Y-108135441D01*
X164708164Y-108164159D01*
X164821607Y-108208401D01*
X164881135Y-108234840D01*
X165096045Y-108274848D01*
X165426534Y-108312874D01*
X165830979Y-108343354D01*
X166203673Y-108369478D01*
X166951643Y-108456106D01*
X167678203Y-108595076D01*
X168444773Y-108799420D01*
X169312772Y-109082172D01*
X169414498Y-109117387D01*
X169888238Y-109274703D01*
X170254600Y-109377446D01*
X170570022Y-109436773D01*
X170890943Y-109463838D01*
X171273801Y-109469798D01*
X171470007Y-109466808D01*
X172122666Y-109404798D01*
X172622047Y-109256269D01*
X172981938Y-109012788D01*
X173216128Y-108665922D01*
X173338406Y-108207240D01*
X173345735Y-108148420D01*
X173336835Y-107748638D01*
X173196121Y-107457961D01*
X172908437Y-107242374D01*
X172724369Y-107108900D01*
X172687741Y-106961260D01*
X172687770Y-106926898D01*
X172915126Y-106926898D01*
X173020051Y-107083393D01*
X173169329Y-107181366D01*
X173314950Y-107163885D01*
X173374904Y-107008688D01*
X173324515Y-106865695D01*
X173141448Y-106821923D01*
X172983281Y-106840546D01*
X172915126Y-106926898D01*
X172687770Y-106926898D01*
X172687824Y-106863262D01*
X172544454Y-106821923D01*
X172420985Y-106789410D01*
X172346808Y-106667606D01*
X172388881Y-106520405D01*
X172546797Y-106418111D01*
X172561273Y-106414167D01*
X172694493Y-106328083D01*
X172688145Y-106150418D01*
X172676382Y-106088540D01*
X172652573Y-105837194D01*
X172635800Y-105479365D01*
X172633287Y-105325728D01*
X172916925Y-105325728D01*
X172927549Y-105685741D01*
X172936080Y-105891070D01*
X172957231Y-106174299D01*
X172995584Y-106332028D01*
X173064753Y-106404841D01*
X173178354Y-106433320D01*
X173221218Y-106438949D01*
X173339366Y-106431173D01*
X173371851Y-106336338D01*
X173342801Y-106106482D01*
X173340682Y-106093443D01*
X173299965Y-105745398D01*
X173282549Y-105408733D01*
X173278287Y-105291011D01*
X173225430Y-105102519D01*
X173090968Y-105019610D01*
X173031248Y-105006752D01*
X172959991Y-105022034D01*
X172924811Y-105116426D01*
X172916925Y-105325728D01*
X172633287Y-105325728D01*
X172629120Y-105071004D01*
X172628816Y-104977944D01*
X172620734Y-104593391D01*
X172610492Y-104487364D01*
X172814610Y-104487364D01*
X172814617Y-104490849D01*
X172842425Y-104686365D01*
X172907992Y-104767511D01*
X172909154Y-104767490D01*
X172974326Y-104684064D01*
X173001375Y-104487364D01*
X173188139Y-104487364D01*
X173194878Y-104536800D01*
X173250394Y-104549619D01*
X173261570Y-104535932D01*
X173250394Y-104425109D01*
X173222306Y-104410500D01*
X173188139Y-104487364D01*
X173001375Y-104487364D01*
X173001367Y-104483879D01*
X172973559Y-104288363D01*
X172907992Y-104207217D01*
X172906830Y-104207239D01*
X172841659Y-104290664D01*
X172814610Y-104487364D01*
X172610492Y-104487364D01*
X172597977Y-104357801D01*
X172555378Y-104239601D01*
X172487772Y-104207217D01*
X172406087Y-104172553D01*
X172347698Y-104020452D01*
X172372946Y-103911607D01*
X172497762Y-103833688D01*
X172573752Y-103815198D01*
X172597840Y-103703425D01*
X172577223Y-103617646D01*
X172549996Y-103363549D01*
X172532276Y-103008211D01*
X172524708Y-102635853D01*
X172779198Y-102635853D01*
X172787233Y-102921602D01*
X172808935Y-103238811D01*
X172840237Y-103532930D01*
X172877072Y-103749406D01*
X172915370Y-103833688D01*
X172927539Y-103826179D01*
X172965168Y-103694785D01*
X172991475Y-103433542D01*
X173001375Y-103086629D01*
X172993099Y-102717326D01*
X172960439Y-102447600D01*
X172899555Y-102338908D01*
X172806828Y-102378064D01*
X172788898Y-102436116D01*
X172779198Y-102635853D01*
X172524708Y-102635853D01*
X172523832Y-102592752D01*
X172524435Y-102158291D01*
X172533854Y-101745948D01*
X172551858Y-101396844D01*
X172578216Y-101152098D01*
X172612699Y-101052829D01*
X172688098Y-100950774D01*
X172721228Y-100744288D01*
X172749870Y-100555066D01*
X172861301Y-100471923D01*
X172899469Y-100461228D01*
X172942758Y-100393818D01*
X172972116Y-100242025D01*
X172990022Y-99980263D01*
X172998949Y-99582948D01*
X173001375Y-99024496D01*
X173001375Y-97577070D01*
X172771204Y-97577070D01*
X172607019Y-97540112D01*
X172452234Y-97411147D01*
X172399815Y-97263209D01*
X172331127Y-96945890D01*
X172266404Y-96530302D01*
X172212136Y-96065958D01*
X172174816Y-95602374D01*
X172160933Y-95189063D01*
X172160279Y-95095943D01*
X172441080Y-95095943D01*
X172441265Y-95214025D01*
X172449073Y-95493765D01*
X172480438Y-95641577D01*
X172551648Y-95699462D01*
X172678992Y-95709423D01*
X172715614Y-95709209D01*
X172829168Y-95692575D01*
X172885617Y-95618453D01*
X172900436Y-95443853D01*
X172889103Y-95125783D01*
X172870866Y-94841221D01*
X172835252Y-94642576D01*
X172767811Y-94547852D01*
X172651191Y-94512303D01*
X172621787Y-94508444D01*
X172521305Y-94514075D01*
X172467214Y-94587420D01*
X172445234Y-94768152D01*
X172441080Y-95095943D01*
X172160279Y-95095943D01*
X172160036Y-95061247D01*
X172143486Y-94775528D01*
X172099809Y-94629691D01*
X172020860Y-94588835D01*
X171939176Y-94554170D01*
X171880786Y-94402070D01*
X171898297Y-94293518D01*
X171974169Y-94215305D01*
X171995917Y-94206051D01*
X172044341Y-94078642D01*
X172064648Y-93851641D01*
X172060995Y-93717266D01*
X172347698Y-93717266D01*
X172348247Y-93804537D01*
X172367224Y-94014760D01*
X172435081Y-94103607D01*
X172581154Y-94121923D01*
X172674845Y-94117500D01*
X172768413Y-94070361D01*
X172807041Y-93932119D01*
X172814610Y-93655011D01*
X172814316Y-93590752D01*
X172798528Y-93337570D01*
X172746964Y-93218096D01*
X172643409Y-93188099D01*
X172554622Y-93192930D01*
X172424016Y-93252309D01*
X172362866Y-93413087D01*
X172347698Y-93717266D01*
X172060995Y-93717266D01*
X172057514Y-93589229D01*
X172023616Y-93355592D01*
X171963629Y-93214912D01*
X171913903Y-93151325D01*
X171920358Y-93023994D01*
X172087954Y-92938932D01*
X172399900Y-92907952D01*
X172520418Y-92904468D01*
X172731188Y-92875760D01*
X172814610Y-92827519D01*
X172763796Y-92785531D01*
X172598820Y-92788337D01*
X172446561Y-92786261D01*
X172269560Y-92692865D01*
X172193694Y-92536553D01*
X172179584Y-92487732D01*
X176363139Y-92487732D01*
X176409830Y-92534423D01*
X176456522Y-92487732D01*
X176409830Y-92441041D01*
X176363139Y-92487732D01*
X172179584Y-92487732D01*
X172105193Y-92230331D01*
X172020597Y-91831759D01*
X171952802Y-91413835D01*
X176388573Y-91413835D01*
X176391297Y-91550873D01*
X176405949Y-91668198D01*
X176429042Y-91623945D01*
X176444492Y-91475839D01*
X176429042Y-91203724D01*
X176414483Y-91156419D01*
X176395858Y-91211863D01*
X176388573Y-91413835D01*
X171952802Y-91413835D01*
X171948961Y-91390160D01*
X171899339Y-90954856D01*
X171880786Y-90575170D01*
X171875845Y-90427117D01*
X172160933Y-90427117D01*
X172160936Y-90452126D01*
X172166287Y-90737151D01*
X172198868Y-90884159D01*
X172283740Y-90938849D01*
X172445961Y-90946923D01*
X172730988Y-90946923D01*
X172706794Y-90526702D01*
X176386689Y-90526702D01*
X176389111Y-90628548D01*
X176404586Y-90740788D01*
X176429185Y-90689033D01*
X176444694Y-90539755D01*
X176427300Y-90315503D01*
X176415367Y-90284909D01*
X176394205Y-90334514D01*
X176386689Y-90526702D01*
X172706794Y-90526702D01*
X172702762Y-90456666D01*
X172687392Y-90243088D01*
X172649426Y-90054722D01*
X172568643Y-89969248D01*
X172417735Y-89936860D01*
X172412823Y-89936296D01*
X172268811Y-89929470D01*
X172193853Y-89980311D01*
X172165407Y-90131850D01*
X172160933Y-90427117D01*
X171875845Y-90427117D01*
X171871550Y-90298410D01*
X171827648Y-90075034D01*
X171740713Y-89979330D01*
X171629650Y-89886471D01*
X171623175Y-89809870D01*
X175399719Y-89809870D01*
X175430734Y-90008193D01*
X175548706Y-90120400D01*
X175663273Y-90168284D01*
X175769128Y-90171326D01*
X175784773Y-90104371D01*
X175792808Y-89893992D01*
X175784476Y-89598873D01*
X175769130Y-89364107D01*
X175740685Y-89187908D01*
X175689823Y-89141268D01*
X175601852Y-89191410D01*
X175580531Y-89211203D01*
X175473197Y-89403920D01*
X175409751Y-89669268D01*
X175399719Y-89809870D01*
X171623175Y-89809870D01*
X171616259Y-89728042D01*
X171740713Y-89605800D01*
X171797474Y-89559983D01*
X171866576Y-89371525D01*
X171878857Y-89112403D01*
X171834768Y-88853686D01*
X171821314Y-88828496D01*
X172129301Y-88828496D01*
X172145794Y-89119382D01*
X172153065Y-89203815D01*
X172190097Y-89426673D01*
X172263804Y-89524472D01*
X172403792Y-89546188D01*
X172487965Y-89542090D01*
X172580895Y-89495114D01*
X172619912Y-89356700D01*
X172627845Y-89079276D01*
X172626051Y-88912566D01*
X172604197Y-88714178D01*
X172539540Y-88629915D01*
X172409953Y-88612364D01*
X172248485Y-88620828D01*
X172155572Y-88677588D01*
X172129301Y-88828496D01*
X171821314Y-88828496D01*
X171734759Y-88666442D01*
X171664539Y-88581887D01*
X171648877Y-88443946D01*
X171810315Y-88360341D01*
X172147438Y-88332217D01*
X172330370Y-88330192D01*
X172505797Y-88305821D01*
X172571233Y-88230426D01*
X172574189Y-88075416D01*
X172565507Y-87882750D01*
X172557536Y-87631849D01*
X176489668Y-87631849D01*
X176491020Y-87856196D01*
X176498071Y-88085174D01*
X176509817Y-88165544D01*
X176524759Y-88078233D01*
X176531195Y-87989970D01*
X176539407Y-87611588D01*
X176525276Y-87237792D01*
X176514925Y-87143782D01*
X176502043Y-87153082D01*
X176493127Y-87321281D01*
X176489668Y-87631849D01*
X172557536Y-87631849D01*
X172555112Y-87555541D01*
X172546504Y-87188283D01*
X172535355Y-86604643D01*
X176456522Y-86604643D01*
X176503213Y-86651335D01*
X176549904Y-86604643D01*
X176503213Y-86557952D01*
X176456522Y-86604643D01*
X172535355Y-86604643D01*
X172534463Y-86557952D01*
X172257601Y-86557952D01*
X172048117Y-86520867D01*
X171894498Y-86377429D01*
X171813256Y-86106604D01*
X175616080Y-86106604D01*
X175623962Y-86329077D01*
X175666733Y-86506445D01*
X175756154Y-86557952D01*
X175839525Y-86513546D01*
X175883652Y-86354083D01*
X175888645Y-86231114D01*
X176456522Y-86231114D01*
X176503213Y-86277805D01*
X176549904Y-86231114D01*
X176503213Y-86184423D01*
X176456522Y-86231114D01*
X175888645Y-86231114D01*
X175896228Y-86044349D01*
X175894043Y-85903806D01*
X175863406Y-85632543D01*
X175793033Y-85532109D01*
X175678335Y-85593001D01*
X175658254Y-85637318D01*
X175627993Y-85829968D01*
X175616080Y-86106604D01*
X171813256Y-86106604D01*
X171811983Y-86102362D01*
X171787404Y-85670820D01*
X171798618Y-85369368D01*
X171865332Y-85031643D01*
X171999815Y-84842590D01*
X172210910Y-84783688D01*
X172360082Y-84756381D01*
X172441080Y-84643614D01*
X172399995Y-84555773D01*
X172226301Y-84503541D01*
X172028296Y-84472209D01*
X171884192Y-84344723D01*
X171809032Y-84091893D01*
X171787404Y-83684975D01*
X171797515Y-83370456D01*
X171858201Y-83004772D01*
X171978568Y-82795782D01*
X172164219Y-82729276D01*
X172283913Y-82697302D01*
X172347698Y-82537000D01*
X172331308Y-82429665D01*
X172285395Y-82402438D01*
X175829554Y-82402438D01*
X175833755Y-82575138D01*
X175848459Y-82676067D01*
X175869855Y-82611264D01*
X175885395Y-82400539D01*
X175868580Y-82144352D01*
X175860393Y-82122291D01*
X176549904Y-82122291D01*
X176596595Y-82168982D01*
X176643286Y-82122291D01*
X176596595Y-82075599D01*
X176549904Y-82122291D01*
X175860393Y-82122291D01*
X175852132Y-82100030D01*
X175835488Y-82180979D01*
X175829554Y-82402438D01*
X172285395Y-82402438D01*
X172269534Y-82393032D01*
X172166327Y-82389185D01*
X171989387Y-82299866D01*
X171899844Y-82222612D01*
X171828653Y-82089112D01*
X171795535Y-81870717D01*
X171787404Y-81516680D01*
X171790517Y-81356430D01*
X171794157Y-81328541D01*
X176571569Y-81328541D01*
X176572472Y-81391899D01*
X176587208Y-81521023D01*
X176614275Y-81491960D01*
X176628798Y-81401960D01*
X176614275Y-81165121D01*
X176605545Y-81138626D01*
X176581305Y-81158648D01*
X176571569Y-81328541D01*
X171794157Y-81328541D01*
X171846583Y-80926898D01*
X171972481Y-80668084D01*
X172044871Y-80635955D01*
X176557276Y-80635955D01*
X176572230Y-80727745D01*
X176613695Y-80692373D01*
X176628614Y-80638372D01*
X176606322Y-80513390D01*
X176574445Y-80514836D01*
X176557276Y-80635955D01*
X172044871Y-80635955D01*
X172167604Y-80581482D01*
X172204534Y-80568955D01*
X172254316Y-80450746D01*
X172180800Y-80355690D01*
X171938787Y-80320011D01*
X171814085Y-80301335D01*
X176549904Y-80301335D01*
X176556643Y-80350771D01*
X176612159Y-80363590D01*
X176623335Y-80349903D01*
X176612159Y-80239080D01*
X176584071Y-80224470D01*
X176549904Y-80301335D01*
X171814085Y-80301335D01*
X171596846Y-80268800D01*
X171272543Y-80129554D01*
X170996484Y-79930017D01*
X170792912Y-79697948D01*
X170686070Y-79461110D01*
X170700201Y-79247264D01*
X170859550Y-79084169D01*
X170876303Y-79075530D01*
X171080442Y-79039776D01*
X171253798Y-79164983D01*
X171415157Y-79463990D01*
X171476320Y-79593405D01*
X171586456Y-79724774D01*
X171664428Y-79680543D01*
X171694022Y-79460893D01*
X171700038Y-79334659D01*
X171762721Y-79209697D01*
X171933759Y-79180746D01*
X172173496Y-79180746D01*
X172158367Y-78620452D01*
X175921662Y-78620452D01*
X175924385Y-78757491D01*
X175939037Y-78874815D01*
X175962131Y-78830563D01*
X175977580Y-78682457D01*
X175962131Y-78410342D01*
X175947571Y-78363036D01*
X175928946Y-78418481D01*
X175921662Y-78620452D01*
X172158367Y-78620452D01*
X172143869Y-78083504D01*
X172140717Y-77966776D01*
X176668720Y-77966776D01*
X176671444Y-78103815D01*
X176686096Y-78221139D01*
X176709189Y-78176886D01*
X176724639Y-78028780D01*
X176709189Y-77756666D01*
X176694630Y-77709360D01*
X176676005Y-77764804D01*
X176668720Y-77966776D01*
X172140717Y-77966776D01*
X172118024Y-77126335D01*
X176664951Y-77126335D01*
X176665854Y-77189693D01*
X176680591Y-77318817D01*
X176707657Y-77289754D01*
X176711424Y-77266408D01*
X177016816Y-77266408D01*
X177017062Y-77395933D01*
X177021957Y-77839768D01*
X177032170Y-78198919D01*
X177046440Y-78439362D01*
X177063507Y-78527070D01*
X177146586Y-78475992D01*
X177296963Y-78340305D01*
X177348265Y-78283002D01*
X177418206Y-78155590D01*
X177459352Y-77967308D01*
X177478820Y-77676240D01*
X177483728Y-77240470D01*
X177482156Y-76951323D01*
X177469958Y-76615319D01*
X177439604Y-76399711D01*
X177383960Y-76263721D01*
X177295895Y-76166573D01*
X177159448Y-76059682D01*
X177062439Y-76005746D01*
X177057752Y-76012400D01*
X177041689Y-76144562D01*
X177028692Y-76420301D01*
X177019990Y-76805591D01*
X177016816Y-77266408D01*
X176711424Y-77266408D01*
X176722180Y-77199754D01*
X176707657Y-76962916D01*
X176698927Y-76936420D01*
X176674687Y-76956443D01*
X176664951Y-77126335D01*
X172118024Y-77126335D01*
X172114242Y-76986261D01*
X171880786Y-76984496D01*
X171745857Y-76968891D01*
X171665343Y-76878907D01*
X171647330Y-76658937D01*
X171650474Y-76556608D01*
X171700994Y-76372719D01*
X171834095Y-76299715D01*
X171947314Y-76263054D01*
X172043100Y-76192511D01*
X176643286Y-76192511D01*
X176650026Y-76241947D01*
X176705541Y-76254766D01*
X176716717Y-76241079D01*
X176705541Y-76130256D01*
X176677453Y-76115647D01*
X176643286Y-76192511D01*
X172043100Y-76192511D01*
X172089467Y-76158363D01*
X172099796Y-76135155D01*
X172130895Y-75949756D01*
X172150524Y-75650994D01*
X172158179Y-75296382D01*
X172157026Y-75211996D01*
X175896228Y-75211996D01*
X175904552Y-75423367D01*
X175938470Y-75641167D01*
X175989610Y-75725599D01*
X176028041Y-75679816D01*
X176067641Y-75493263D01*
X176082992Y-75211996D01*
X176074668Y-75000626D01*
X176040749Y-74782826D01*
X175989610Y-74698393D01*
X175951179Y-74744177D01*
X175911579Y-74930730D01*
X175896228Y-75211996D01*
X172157026Y-75211996D01*
X172153355Y-74943432D01*
X172135547Y-74649659D01*
X172104251Y-74472575D01*
X172064974Y-74389398D01*
X171982228Y-74323721D01*
X171931940Y-74407349D01*
X171943377Y-74614471D01*
X171965908Y-74753009D01*
X171945408Y-74864974D01*
X171837171Y-74871272D01*
X171795495Y-74854685D01*
X171757964Y-74806666D01*
X171729338Y-74708729D01*
X171708610Y-74541328D01*
X171694774Y-74284913D01*
X171686824Y-73919936D01*
X171686771Y-73911426D01*
X171907907Y-73911426D01*
X171953089Y-74060990D01*
X172010996Y-74100215D01*
X172114242Y-74044717D01*
X172133812Y-73991243D01*
X172088631Y-73841679D01*
X172030724Y-73802454D01*
X171927478Y-73857952D01*
X171907907Y-73911426D01*
X171686771Y-73911426D01*
X171683754Y-73426849D01*
X171684556Y-72786103D01*
X171686075Y-72451706D01*
X171880786Y-72451706D01*
X171880795Y-72467831D01*
X171887627Y-72899453D01*
X171905409Y-73252319D01*
X171931505Y-73490434D01*
X171963277Y-73577805D01*
X172054415Y-73503431D01*
X172107308Y-73270140D01*
X172120955Y-72869911D01*
X172096185Y-72294742D01*
X172080176Y-72084704D01*
X172062740Y-71923454D01*
X175707404Y-71923454D01*
X175857174Y-72027006D01*
X175902379Y-72043238D01*
X176179732Y-72090733D01*
X176356174Y-72044778D01*
X176744041Y-72044778D01*
X176758995Y-72136568D01*
X176800459Y-72101197D01*
X176815379Y-72047196D01*
X176793087Y-71922214D01*
X176761210Y-71923660D01*
X176744041Y-72044778D01*
X176356174Y-72044778D01*
X176379698Y-72038651D01*
X176456522Y-71896923D01*
X176435374Y-71789123D01*
X176327369Y-71725820D01*
X176082992Y-71710158D01*
X175870663Y-71734976D01*
X175719207Y-71815859D01*
X175707404Y-71923454D01*
X172062740Y-71923454D01*
X172042329Y-71734685D01*
X172000054Y-71483286D01*
X171959866Y-71374480D01*
X171958118Y-71373673D01*
X171928023Y-71450693D01*
X171903441Y-71678666D01*
X171886865Y-72023651D01*
X171880786Y-72451706D01*
X171686075Y-72451706D01*
X171688225Y-71978151D01*
X171697454Y-70239386D01*
X171892475Y-70239386D01*
X171897861Y-70595412D01*
X171908056Y-70893821D01*
X171923715Y-71029884D01*
X171946716Y-71017287D01*
X171978935Y-70869717D01*
X172012068Y-70624570D01*
X172045118Y-70224146D01*
X172056850Y-69917824D01*
X175841918Y-69917824D01*
X175854867Y-70612916D01*
X175916055Y-71430011D01*
X176193443Y-71430011D01*
X176202122Y-71430003D01*
X176382045Y-71412419D01*
X176427670Y-71350414D01*
X176866333Y-71350414D01*
X176923433Y-71401371D01*
X176982608Y-71419785D01*
X177190752Y-71485206D01*
X177262055Y-71530937D01*
X177218807Y-71645120D01*
X177191499Y-71743173D01*
X177162121Y-71992935D01*
X177136358Y-72349052D01*
X177115537Y-72769714D01*
X177100987Y-73213111D01*
X177094034Y-73637431D01*
X177096006Y-74000864D01*
X177108231Y-74261601D01*
X177132036Y-74377830D01*
X177194479Y-74365237D01*
X177323933Y-74253273D01*
X177381753Y-74162279D01*
X177427969Y-74000170D01*
X177457883Y-73744562D01*
X177474956Y-73364398D01*
X177482647Y-72828619D01*
X177483094Y-72736605D01*
X177480147Y-72259518D01*
X177469272Y-71843018D01*
X177451983Y-71529154D01*
X177429793Y-71359974D01*
X177410928Y-71297751D01*
X177350030Y-71183837D01*
X177238586Y-71176025D01*
X177016816Y-71259818D01*
X176981161Y-71275297D01*
X176866333Y-71350414D01*
X176427670Y-71350414D01*
X176447834Y-71323010D01*
X176442857Y-71105316D01*
X176440719Y-70922186D01*
X176493273Y-70714245D01*
X176597560Y-70639949D01*
X176733384Y-70725686D01*
X176738271Y-70731481D01*
X176940197Y-70856763D01*
X177162638Y-70832377D01*
X177367896Y-70685041D01*
X177518277Y-70441475D01*
X177576082Y-70128395D01*
X177575804Y-70088058D01*
X177534747Y-69552300D01*
X177426857Y-69168944D01*
X177255455Y-68950188D01*
X177056231Y-68851445D01*
X176778478Y-68767558D01*
X176683932Y-68754418D01*
X176340327Y-68800787D01*
X176085132Y-69010791D01*
X175918834Y-69383460D01*
X175841918Y-69917824D01*
X172056850Y-69917824D01*
X172060629Y-69819166D01*
X172052796Y-69506944D01*
X172022208Y-69275196D01*
X171974169Y-69188835D01*
X171947375Y-69222635D01*
X171913973Y-69415675D01*
X171895133Y-69761542D01*
X171892475Y-70239386D01*
X171697454Y-70239386D01*
X171703407Y-69117834D01*
X171278844Y-68943224D01*
X171133728Y-68878612D01*
X170932884Y-68766587D01*
X170853930Y-68686985D01*
X170875763Y-68607242D01*
X170966872Y-68371339D01*
X171119174Y-68009343D01*
X171129233Y-67986360D01*
X171837317Y-67986360D01*
X171854510Y-68150747D01*
X171915869Y-68364380D01*
X171995787Y-68549549D01*
X172068656Y-68628541D01*
X172093057Y-68603830D01*
X172160448Y-68447816D01*
X172237949Y-68195758D01*
X172274840Y-68050904D01*
X172320879Y-67834884D01*
X172327354Y-67739731D01*
X172283629Y-67734252D01*
X172129939Y-67781021D01*
X171955010Y-67867557D01*
X171846597Y-67954636D01*
X171837317Y-67986360D01*
X171129233Y-67986360D01*
X171322125Y-67545645D01*
X171475409Y-67204460D01*
X172311961Y-67204460D01*
X172355658Y-67332356D01*
X172428522Y-67397427D01*
X172526097Y-67302636D01*
X172666391Y-67039606D01*
X172770497Y-66790565D01*
X172789081Y-66637024D01*
X172698054Y-66632703D01*
X172498609Y-66779450D01*
X172472925Y-66802569D01*
X172317934Y-67003243D01*
X172311961Y-67204460D01*
X171475409Y-67204460D01*
X171565184Y-67004637D01*
X171837806Y-66410710D01*
X171879830Y-66322352D01*
X172039830Y-66023366D01*
X172179681Y-65814987D01*
X172273058Y-65737907D01*
X172338211Y-65752086D01*
X172546940Y-65832984D01*
X172812624Y-65960813D01*
X173230859Y-66179498D01*
X173699757Y-65755576D01*
X173725525Y-65732520D01*
X174354421Y-65278371D01*
X175101217Y-64910458D01*
X175908447Y-64657354D01*
X176152686Y-64611666D01*
X176800637Y-64556875D01*
X177497650Y-64571469D01*
G37*
G36*
X178381667Y-109139062D02*
G01*
X178389296Y-109153502D01*
X178400201Y-109179933D01*
X178412661Y-109214328D01*
X178417667Y-109228779D01*
X178429676Y-109261907D01*
X178439282Y-109286303D01*
X178444760Y-109297498D01*
X178447368Y-109299107D01*
X178464575Y-109305539D01*
X178493526Y-109314366D01*
X178529714Y-109324172D01*
X178544995Y-109328134D01*
X178579028Y-109337299D01*
X178604159Y-109344549D01*
X178615808Y-109348587D01*
X178617434Y-109349595D01*
X178621073Y-109353810D01*
X178618574Y-109360065D01*
X178607728Y-109370616D01*
X178586327Y-109387720D01*
X178552165Y-109413632D01*
X178481542Y-109466788D01*
X178484686Y-109558128D01*
X178485254Y-109583683D01*
X178484846Y-109617582D01*
X178483042Y-109640831D01*
X178480045Y-109649459D01*
X178476607Y-109648268D01*
X178460066Y-109638981D01*
X178434061Y-109622490D01*
X178402462Y-109601201D01*
X178332667Y-109552951D01*
X178291579Y-109568625D01*
X178283747Y-109571612D01*
X178245484Y-109586207D01*
X178208941Y-109600144D01*
X178195142Y-109605023D01*
X178173202Y-109610869D01*
X178162322Y-109610920D01*
X178161983Y-109602231D01*
X178166358Y-109580369D01*
X178174758Y-109550865D01*
X178180216Y-109533749D01*
X178192642Y-109493104D01*
X178198899Y-109463930D01*
X178198317Y-109441451D01*
X178190224Y-109420893D01*
X178173949Y-109397482D01*
X178148819Y-109366442D01*
X178134192Y-109348358D01*
X178112622Y-109320889D01*
X178097785Y-109300915D01*
X178092265Y-109291846D01*
X178094951Y-109290518D01*
X178112052Y-109288432D01*
X178141450Y-109286996D01*
X178179063Y-109286460D01*
X178186695Y-109286461D01*
X178225213Y-109285936D01*
X178252762Y-109282658D01*
X178273600Y-109274080D01*
X178291984Y-109257654D01*
X178312170Y-109230829D01*
X178338416Y-109191059D01*
X178338896Y-109190323D01*
X178357171Y-109163706D01*
X178371870Y-109144759D01*
X178379851Y-109137541D01*
X178381667Y-109139062D01*
G37*
G36*
X179093829Y-108626348D02*
G01*
X179108443Y-108634737D01*
X179134396Y-108651070D01*
X179168756Y-108673478D01*
X179208594Y-108700092D01*
X179223904Y-108710387D01*
X179262064Y-108735654D01*
X179293670Y-108756017D01*
X179315786Y-108769606D01*
X179325475Y-108774551D01*
X179327100Y-108774219D01*
X179342454Y-108769076D01*
X179370727Y-108758671D01*
X179408589Y-108744248D01*
X179452709Y-108727050D01*
X179467469Y-108721294D01*
X179509706Y-108705504D01*
X179544535Y-108693481D01*
X179568680Y-108686314D01*
X179578868Y-108685094D01*
X179579292Y-108686851D01*
X179577347Y-108702704D01*
X179571251Y-108731907D01*
X179561756Y-108771083D01*
X179549611Y-108816856D01*
X179537308Y-108860529D01*
X179527633Y-108896936D01*
X179523119Y-108924460D01*
X179524771Y-108947062D01*
X179533591Y-108968703D01*
X179550583Y-108993344D01*
X179576750Y-109024945D01*
X179613096Y-109067467D01*
X179639827Y-109099559D01*
X179662684Y-109128090D01*
X179678151Y-109148663D01*
X179683837Y-109158215D01*
X179681343Y-109160671D01*
X179665411Y-109164549D01*
X179639627Y-109166557D01*
X179627929Y-109166931D01*
X179592448Y-109168498D01*
X179548500Y-109170817D01*
X179502979Y-109173537D01*
X179410542Y-109179425D01*
X179340099Y-109290040D01*
X179330978Y-109304241D01*
X179305795Y-109342157D01*
X179284267Y-109372736D01*
X179268437Y-109393144D01*
X179260348Y-109400549D01*
X179258910Y-109399668D01*
X179250778Y-109386475D01*
X179238272Y-109359914D01*
X179222814Y-109323148D01*
X179205827Y-109279337D01*
X179199266Y-109261930D01*
X179179786Y-109213049D01*
X179164211Y-109179394D01*
X179151516Y-109158922D01*
X179140675Y-109149588D01*
X179140354Y-109149451D01*
X179123248Y-109143873D01*
X179092439Y-109135282D01*
X179052199Y-109124825D01*
X179006798Y-109113648D01*
X179001502Y-109112373D01*
X178959108Y-109101653D01*
X178924569Y-109092040D01*
X178901316Y-109084542D01*
X178892782Y-109080166D01*
X178894332Y-109077866D01*
X178907168Y-109065532D01*
X178930889Y-109044881D01*
X178962951Y-109018097D01*
X179000815Y-108987362D01*
X179108925Y-108900742D01*
X179103303Y-108844627D01*
X179100181Y-108812480D01*
X179094821Y-108750877D01*
X179091200Y-108699267D01*
X179089428Y-108659774D01*
X179089616Y-108634522D01*
X179091874Y-108625632D01*
X179093829Y-108626348D01*
G37*
G36*
X180656870Y-108974949D02*
G01*
X180730012Y-108992909D01*
X180800378Y-109028368D01*
X180866210Y-109081282D01*
X180892189Y-109108709D01*
X180927041Y-109155007D01*
X180956072Y-109208354D01*
X180981256Y-109272604D01*
X181004565Y-109351612D01*
X181005652Y-109355987D01*
X181012376Y-109405277D01*
X181012935Y-109464552D01*
X181007564Y-109527047D01*
X180996495Y-109585995D01*
X180980015Y-109641042D01*
X180942139Y-109726589D01*
X180893024Y-109799706D01*
X180833728Y-109858943D01*
X180765307Y-109902854D01*
X180703421Y-109933327D01*
X180043374Y-109937981D01*
X179383327Y-109942635D01*
X179200035Y-110491774D01*
X179195636Y-110504950D01*
X179163341Y-110601605D01*
X179132731Y-110693057D01*
X179104333Y-110777751D01*
X179078670Y-110854128D01*
X179056266Y-110920631D01*
X179037647Y-110975703D01*
X179023338Y-111017785D01*
X179013861Y-111045322D01*
X179009743Y-111056755D01*
X179006996Y-111066375D01*
X179008772Y-111082350D01*
X179010158Y-111083016D01*
X179025871Y-111084946D01*
X179056988Y-111086686D01*
X179101087Y-111088225D01*
X179155745Y-111089548D01*
X179218540Y-111090644D01*
X179287048Y-111091500D01*
X179358847Y-111092103D01*
X179431515Y-111092441D01*
X179502628Y-111092500D01*
X179569764Y-111092268D01*
X179630501Y-111091732D01*
X179682416Y-111090880D01*
X179723086Y-111089698D01*
X179750088Y-111088175D01*
X179761000Y-111086297D01*
X179761871Y-111084032D01*
X179758995Y-111068954D01*
X179749445Y-111046460D01*
X179742533Y-111032079D01*
X179717078Y-110958661D01*
X179701674Y-110876201D01*
X179696727Y-110790380D01*
X179702642Y-110706881D01*
X179719825Y-110631385D01*
X179730057Y-110602892D01*
X179770287Y-110520428D01*
X179821791Y-110449256D01*
X179882844Y-110391476D01*
X179951723Y-110349184D01*
X179954290Y-110347987D01*
X179983845Y-110335747D01*
X180011608Y-110328531D01*
X180044367Y-110325107D01*
X180088906Y-110324240D01*
X180111336Y-110324366D01*
X180147639Y-110325968D01*
X180175651Y-110330582D01*
X180202334Y-110339660D01*
X180234648Y-110354654D01*
X180275715Y-110378918D01*
X180333238Y-110426205D01*
X180383525Y-110482962D01*
X180421278Y-110543818D01*
X180438984Y-110581940D01*
X180458848Y-110633791D01*
X180471107Y-110683444D01*
X180477281Y-110737754D01*
X180478890Y-110803573D01*
X180478586Y-110837351D01*
X180476785Y-110880212D01*
X180472600Y-110914603D01*
X180465148Y-110946759D01*
X180453549Y-110982913D01*
X180452100Y-110987038D01*
X180436362Y-111027634D01*
X180419201Y-111066097D01*
X180404083Y-111094603D01*
X180381662Y-111125662D01*
X180349451Y-111162240D01*
X180313642Y-111197325D01*
X180278963Y-111226310D01*
X180250142Y-111244589D01*
X180242250Y-111248322D01*
X180228659Y-111254766D01*
X180215806Y-111260464D01*
X180202553Y-111265462D01*
X180187762Y-111269806D01*
X180170293Y-111273541D01*
X180149009Y-111276713D01*
X180122772Y-111279369D01*
X180090442Y-111281554D01*
X180050881Y-111283313D01*
X180002951Y-111284692D01*
X179945514Y-111285738D01*
X179877431Y-111286496D01*
X179797563Y-111287012D01*
X179704773Y-111287331D01*
X179597922Y-111287500D01*
X179475871Y-111287564D01*
X179337482Y-111287568D01*
X179181616Y-111287560D01*
X179079926Y-111287531D01*
X178952072Y-111287412D01*
X178830450Y-111287207D01*
X178716300Y-111286921D01*
X178610859Y-111286562D01*
X178515365Y-111286135D01*
X178431057Y-111285648D01*
X178359173Y-111285107D01*
X178300952Y-111284517D01*
X178257630Y-111283887D01*
X178230447Y-111283222D01*
X178220640Y-111282528D01*
X178221493Y-111272496D01*
X178227604Y-111248500D01*
X178237973Y-111214184D01*
X178251577Y-111173166D01*
X178264987Y-111134087D01*
X178283673Y-111079321D01*
X178304999Y-111016585D01*
X178327255Y-110950913D01*
X178348728Y-110887340D01*
X178352757Y-110875398D01*
X178371445Y-110820306D01*
X178388336Y-110770968D01*
X178402401Y-110730361D01*
X178412611Y-110701457D01*
X178417938Y-110687230D01*
X178422318Y-110675704D01*
X178431984Y-110648574D01*
X178445475Y-110609815D01*
X178461664Y-110562672D01*
X178479422Y-110510388D01*
X178485656Y-110491948D01*
X178506183Y-110431359D01*
X178529558Y-110362512D01*
X178554899Y-110287996D01*
X178581322Y-110210397D01*
X178607945Y-110132307D01*
X178633884Y-110056312D01*
X178658255Y-109985001D01*
X178680175Y-109920962D01*
X178698761Y-109866785D01*
X178713130Y-109825058D01*
X178722398Y-109798369D01*
X178740358Y-109747178D01*
X179514589Y-109744798D01*
X179585791Y-109744550D01*
X179700922Y-109744021D01*
X179809733Y-109743365D01*
X179910858Y-109742597D01*
X180002931Y-109741735D01*
X180084586Y-109740794D01*
X180154457Y-109739792D01*
X180211178Y-109738743D01*
X180253383Y-109737666D01*
X180279704Y-109736577D01*
X180288778Y-109735491D01*
X180288275Y-109733000D01*
X180282751Y-109716349D01*
X180272425Y-109688576D01*
X180258920Y-109654104D01*
X180249196Y-109629239D01*
X180239879Y-109601810D01*
X180233958Y-109576125D01*
X180230649Y-109547097D01*
X180229163Y-109509634D01*
X180228714Y-109458648D01*
X180228690Y-109434149D01*
X180229334Y-109388598D01*
X180231500Y-109354368D01*
X180235860Y-109326374D01*
X180243088Y-109299532D01*
X180253857Y-109268755D01*
X180288847Y-109189621D01*
X180330942Y-109124156D01*
X180382446Y-109069007D01*
X180438367Y-109026507D01*
X180509290Y-108991704D01*
X180582711Y-108974532D01*
X180656870Y-108974949D01*
G37*
G36*
X169592606Y-101528036D02*
G01*
X169621586Y-101534290D01*
X169637389Y-101544726D01*
X169647330Y-101566968D01*
X169647097Y-101592464D01*
X169629490Y-101610438D01*
X169594276Y-101621080D01*
X169541223Y-101624585D01*
X169530691Y-101624561D01*
X169495245Y-101623628D01*
X169473198Y-101620495D01*
X169459713Y-101614023D01*
X169449955Y-101603071D01*
X169448903Y-101601562D01*
X169437064Y-101580819D01*
X169438624Y-101565561D01*
X169454246Y-101547146D01*
X169459053Y-101543330D01*
X169483670Y-101533611D01*
X169517940Y-101527772D01*
X169556155Y-101525889D01*
X169592606Y-101528036D01*
G37*
G36*
X169315873Y-101530206D02*
G01*
X169320056Y-101543478D01*
X169315799Y-101573765D01*
X169305941Y-101595545D01*
X168747562Y-101595545D01*
X168642828Y-101595534D01*
X168540616Y-101595463D01*
X168454910Y-101595281D01*
X168384192Y-101594938D01*
X168326942Y-101594381D01*
X168281641Y-101593559D01*
X168246772Y-101592422D01*
X168220816Y-101590917D01*
X168202255Y-101588994D01*
X168189568Y-101586601D01*
X168181239Y-101583687D01*
X168175748Y-101580201D01*
X168171577Y-101576091D01*
X168164523Y-101567635D01*
X168159220Y-101552333D01*
X168166873Y-101532532D01*
X168179774Y-101508426D01*
X168742932Y-101508426D01*
X169306090Y-101508426D01*
X169315873Y-101530206D01*
G37*
G36*
X169914678Y-102815217D02*
G01*
X169926338Y-102815690D01*
X169971646Y-102817526D01*
X170014273Y-102825360D01*
X170046996Y-102840750D01*
X170074247Y-102865729D01*
X170100463Y-102902329D01*
X170109158Y-102917852D01*
X170115748Y-102936477D01*
X170119622Y-102960730D01*
X170121473Y-102995185D01*
X170121995Y-103044415D01*
X170121945Y-103061904D01*
X170120275Y-103112582D01*
X170115578Y-103147384D01*
X170106939Y-103168962D01*
X170093444Y-103179966D01*
X170074180Y-103183045D01*
X170057685Y-103189753D01*
X170040769Y-103207245D01*
X170036774Y-103213093D01*
X170028504Y-103221783D01*
X170016550Y-103227182D01*
X169996994Y-103230071D01*
X169965917Y-103231231D01*
X169919400Y-103231444D01*
X169900913Y-103231420D01*
X169859662Y-103230837D01*
X169831760Y-103228839D01*
X169812760Y-103224593D01*
X169798216Y-103217267D01*
X169783680Y-103206027D01*
X169771456Y-103195096D01*
X169744705Y-103163046D01*
X169727508Y-103125259D01*
X169718322Y-103077406D01*
X169716086Y-103026225D01*
X169802722Y-103026225D01*
X169803202Y-103037320D01*
X169814913Y-103078542D01*
X169839618Y-103109558D01*
X169873736Y-103128950D01*
X169913691Y-103135297D01*
X169955904Y-103127183D01*
X169996796Y-103103186D01*
X170007455Y-103094116D01*
X170025249Y-103075217D01*
X170032702Y-103055952D01*
X170033838Y-103028167D01*
X170030635Y-102996981D01*
X170020913Y-102963715D01*
X170006811Y-102940251D01*
X169990471Y-102931368D01*
X169973445Y-102927730D01*
X169949859Y-102918014D01*
X169949131Y-102917645D01*
X169926338Y-102910209D01*
X169903927Y-102913411D01*
X169877801Y-102928790D01*
X169843861Y-102957889D01*
X169822115Y-102980038D01*
X169807028Y-103003264D01*
X169802722Y-103026225D01*
X169716086Y-103026225D01*
X169715603Y-103015159D01*
X169715603Y-102923941D01*
X169754350Y-102888935D01*
X169769999Y-102875431D01*
X169790395Y-102859955D01*
X169802097Y-102853929D01*
X169808563Y-102850213D01*
X169817242Y-102834569D01*
X169819897Y-102828219D01*
X169827336Y-102821292D01*
X169842249Y-102817364D01*
X169868595Y-102815611D01*
X169910334Y-102815210D01*
X169914678Y-102815217D01*
G37*
G36*
X170193298Y-104064065D02*
G01*
X170197160Y-104064120D01*
X170240000Y-104064731D01*
X170279875Y-104066357D01*
X170308745Y-104068704D01*
X170322433Y-104071534D01*
X170326660Y-104074791D01*
X170345242Y-104096337D01*
X170369480Y-104132395D01*
X170397785Y-104180469D01*
X170428566Y-104238066D01*
X170437135Y-104254999D01*
X170454578Y-104292385D01*
X170464736Y-104321767D01*
X170469469Y-104349499D01*
X170470633Y-104381936D01*
X170470360Y-104402201D01*
X170467348Y-104432419D01*
X170459276Y-104454699D01*
X170444014Y-104476615D01*
X170410053Y-104518116D01*
X170381598Y-104551041D01*
X170360919Y-104572123D01*
X170346067Y-104583329D01*
X170335095Y-104586627D01*
X170315171Y-104590773D01*
X170290242Y-104601087D01*
X170282278Y-104604535D01*
X170254784Y-104610832D01*
X170213634Y-104614356D01*
X170156037Y-104615404D01*
X170049559Y-104615260D01*
X169988057Y-104575872D01*
X169958275Y-104555728D01*
X169933974Y-104534511D01*
X169916152Y-104510007D01*
X169898970Y-104475645D01*
X169883079Y-104444312D01*
X169867758Y-104420325D01*
X169856413Y-104409062D01*
X169854332Y-104408058D01*
X169847944Y-104399976D01*
X169843999Y-104382742D01*
X169841998Y-104352961D01*
X169841441Y-104307238D01*
X169841442Y-104305779D01*
X169920963Y-104305779D01*
X169929665Y-104341340D01*
X169948469Y-104369327D01*
X169960664Y-104383380D01*
X169967280Y-104398914D01*
X169967354Y-104401531D01*
X169975017Y-104428939D01*
X169991536Y-104453372D01*
X170011581Y-104466680D01*
X170033034Y-104477203D01*
X170055168Y-104495487D01*
X170063762Y-104503872D01*
X170076653Y-104511932D01*
X170094656Y-104516409D01*
X170122518Y-104518301D01*
X170164985Y-104518609D01*
X170252836Y-104518351D01*
X170311748Y-104462950D01*
X170345922Y-104430505D01*
X170368361Y-104406728D01*
X170379739Y-104388347D01*
X170381536Y-104371330D01*
X170375232Y-104351649D01*
X170362308Y-104325271D01*
X170350348Y-104300112D01*
X170339464Y-104273226D01*
X170335225Y-104256917D01*
X170330709Y-104242242D01*
X170317065Y-104222427D01*
X170303552Y-104206006D01*
X170287685Y-104181883D01*
X170284798Y-104176950D01*
X170276202Y-104168272D01*
X170261722Y-104163372D01*
X170236872Y-104161203D01*
X170197160Y-104160713D01*
X170180799Y-104160919D01*
X170120394Y-104165936D01*
X170074082Y-104177216D01*
X170037001Y-104193452D01*
X169997447Y-104215063D01*
X169962405Y-104238152D01*
X169936336Y-104259763D01*
X169923699Y-104276938D01*
X169920963Y-104305779D01*
X169841442Y-104305779D01*
X169841445Y-104299251D01*
X169841887Y-104257430D01*
X169843767Y-104229575D01*
X169848089Y-104211013D01*
X169855853Y-104197074D01*
X169868061Y-104183085D01*
X169872139Y-104178894D01*
X169890127Y-104163064D01*
X169913576Y-104147104D01*
X169946569Y-104128451D01*
X169993189Y-104104541D01*
X169993875Y-104104198D01*
X170015225Y-104093330D01*
X170041372Y-104079816D01*
X170045530Y-104077794D01*
X170066017Y-104071141D01*
X170094684Y-104066894D01*
X170135244Y-104064665D01*
X170191411Y-104064062D01*
X170193298Y-104064065D01*
G37*
G36*
X170624604Y-102774557D02*
G01*
X170644531Y-102796234D01*
X170662941Y-102826983D01*
X170676301Y-102861929D01*
X170678785Y-102873135D01*
X170683839Y-102905981D01*
X170688642Y-102948484D01*
X170692420Y-102994287D01*
X170693916Y-103015196D01*
X170699062Y-103064067D01*
X170706465Y-103097757D01*
X170717489Y-103119369D01*
X170733497Y-103132010D01*
X170755850Y-103138783D01*
X170762376Y-103140152D01*
X170768196Y-103142727D01*
X170785377Y-103150330D01*
X170795896Y-103169009D01*
X170808769Y-103192987D01*
X170834968Y-103221662D01*
X170869679Y-103250540D01*
X170908235Y-103275753D01*
X170945969Y-103293432D01*
X170966975Y-103299980D01*
X171012792Y-103310836D01*
X171056266Y-103317632D01*
X171114345Y-103323403D01*
X171145613Y-103415362D01*
X171152661Y-103435633D01*
X171169806Y-103482120D01*
X171186647Y-103524544D01*
X171200379Y-103555720D01*
X171208405Y-103573227D01*
X171223401Y-103610776D01*
X171233682Y-103642839D01*
X171255493Y-103726091D01*
X171281853Y-103817542D01*
X171307985Y-103896860D01*
X171335208Y-103967990D01*
X171364841Y-104034874D01*
X171381122Y-104071224D01*
X171392576Y-104104973D01*
X171398036Y-104137835D01*
X171399554Y-104178289D01*
X171398918Y-104209989D01*
X171393625Y-104252950D01*
X171382831Y-104278258D01*
X171366341Y-104286551D01*
X171363417Y-104287109D01*
X171348070Y-104297869D01*
X171330848Y-104318011D01*
X171318122Y-104335539D01*
X171300791Y-104353873D01*
X171282811Y-104361953D01*
X171257695Y-104363842D01*
X171256875Y-104363849D01*
X171233801Y-104366876D01*
X171220824Y-104373670D01*
X171218762Y-104375043D01*
X171200741Y-104378465D01*
X171166571Y-104381084D01*
X171118619Y-104382760D01*
X171059250Y-104383350D01*
X171025660Y-104383317D01*
X170976366Y-104382937D01*
X170941622Y-104381821D01*
X170918299Y-104379597D01*
X170903271Y-104375886D01*
X170893409Y-104370316D01*
X170885584Y-104362509D01*
X170873015Y-104346676D01*
X170866768Y-104335889D01*
X170866241Y-104332135D01*
X170861345Y-104310855D01*
X170851533Y-104284091D01*
X170834733Y-104246032D01*
X170824098Y-104219922D01*
X170813503Y-104185261D01*
X170809384Y-104158913D01*
X170806916Y-104138874D01*
X170798216Y-104104821D01*
X170785414Y-104068754D01*
X170770416Y-104023967D01*
X170761260Y-103952459D01*
X170755801Y-103896993D01*
X170740703Y-103841140D01*
X170732298Y-103818316D01*
X170721536Y-103786320D01*
X170715205Y-103763838D01*
X170709725Y-103746067D01*
X170699232Y-103726072D01*
X170698905Y-103725611D01*
X170694228Y-103709877D01*
X170689414Y-103679318D01*
X170685013Y-103638140D01*
X170681572Y-103590554D01*
X170677849Y-103528114D01*
X170671337Y-103436741D01*
X170664253Y-103360362D01*
X170661668Y-103339555D01*
X170752995Y-103339555D01*
X170755731Y-103374223D01*
X170757204Y-103391418D01*
X170760545Y-103437056D01*
X170763866Y-103489740D01*
X170766626Y-103541200D01*
X170767986Y-103563998D01*
X170772565Y-103611072D01*
X170778693Y-103649267D01*
X170785619Y-103673342D01*
X170785697Y-103673510D01*
X170795624Y-103702019D01*
X170799749Y-103727797D01*
X170802091Y-103743339D01*
X170810878Y-103773091D01*
X170823949Y-103806469D01*
X170827982Y-103815920D01*
X170843549Y-103867410D01*
X170848149Y-103923556D01*
X170848277Y-103934241D01*
X170854598Y-103988652D01*
X170872348Y-104040643D01*
X170882459Y-104066206D01*
X170892615Y-104099827D01*
X170896548Y-104124704D01*
X170896719Y-104128491D01*
X170904572Y-104157174D01*
X170920748Y-104185773D01*
X170923681Y-104189824D01*
X170938850Y-104219232D01*
X170944947Y-104246845D01*
X170948130Y-104267367D01*
X170963671Y-104286210D01*
X170973571Y-104289670D01*
X171003344Y-104294033D01*
X171043239Y-104295963D01*
X171087403Y-104295578D01*
X171129979Y-104292996D01*
X171165111Y-104288334D01*
X171186944Y-104281711D01*
X171207986Y-104272637D01*
X171233131Y-104267534D01*
X171248794Y-104263162D01*
X171266145Y-104242992D01*
X171276710Y-104226685D01*
X171289101Y-104218792D01*
X171295705Y-104216815D01*
X171306907Y-104203480D01*
X171310016Y-104191784D01*
X171312279Y-104167181D01*
X171311276Y-104158872D01*
X171304424Y-104131682D01*
X171293111Y-104096877D01*
X171279720Y-104061031D01*
X171266634Y-104030720D01*
X171256234Y-104012519D01*
X171248545Y-103999404D01*
X171235408Y-103967978D01*
X171219689Y-103923216D01*
X171202409Y-103868242D01*
X171184588Y-103806182D01*
X171167249Y-103740159D01*
X171155734Y-103697417D01*
X171139875Y-103645550D01*
X171123897Y-103599544D01*
X171109944Y-103565921D01*
X171096536Y-103537152D01*
X171078142Y-103494894D01*
X171063825Y-103458921D01*
X171046070Y-103410522D01*
X170988249Y-103405682D01*
X170941507Y-103397826D01*
X170899894Y-103379062D01*
X170895529Y-103376075D01*
X170870626Y-103362712D01*
X170850762Y-103357283D01*
X170849798Y-103357252D01*
X170830259Y-103349766D01*
X170809429Y-103333083D01*
X170808255Y-103331858D01*
X170787248Y-103315591D01*
X170768196Y-103308883D01*
X170766653Y-103308901D01*
X170757655Y-103311093D01*
X170753370Y-103319911D01*
X170752995Y-103339555D01*
X170661668Y-103339555D01*
X170656287Y-103296241D01*
X170647127Y-103241638D01*
X170636461Y-103193815D01*
X170635201Y-103188734D01*
X170625395Y-103139878D01*
X170618461Y-103089067D01*
X170615832Y-103046525D01*
X170614302Y-103012263D01*
X170609466Y-102975124D01*
X170602473Y-102948636D01*
X170599851Y-102942322D01*
X170578469Y-102881744D01*
X170568562Y-102832927D01*
X170570104Y-102796847D01*
X170583069Y-102774482D01*
X170607429Y-102766810D01*
X170624604Y-102774557D01*
G37*
G36*
X170662222Y-101683352D02*
G01*
X170677584Y-101688538D01*
X170688908Y-101702732D01*
X170701759Y-101730438D01*
X170708175Y-101747201D01*
X170718332Y-101784024D01*
X170722360Y-101815137D01*
X170728634Y-101851594D01*
X170746257Y-101890781D01*
X170746422Y-101891048D01*
X170757069Y-101910248D01*
X170764003Y-101929521D01*
X170768034Y-101953687D01*
X170769971Y-101987566D01*
X170770623Y-102035979D01*
X170770944Y-102067295D01*
X170772429Y-102107040D01*
X170775618Y-102134039D01*
X170781112Y-102152433D01*
X170789509Y-102166362D01*
X170807877Y-102190266D01*
X170894943Y-102144360D01*
X170914960Y-102134015D01*
X170978638Y-102103913D01*
X171036456Y-102080768D01*
X171085001Y-102065847D01*
X171120863Y-102060417D01*
X171122724Y-102060346D01*
X171148404Y-102053055D01*
X171174102Y-102037516D01*
X171180951Y-102032003D01*
X171215865Y-102010445D01*
X171245993Y-102005380D01*
X171273102Y-102017489D01*
X171298960Y-102047456D01*
X171325333Y-102095965D01*
X171332926Y-102112431D01*
X171347248Y-102145812D01*
X171360085Y-102180039D01*
X171372121Y-102217716D01*
X171384039Y-102261448D01*
X171396523Y-102313840D01*
X171410255Y-102377495D01*
X171425920Y-102455018D01*
X171444200Y-102549013D01*
X171449302Y-102575185D01*
X171463746Y-102644107D01*
X171476945Y-102698013D01*
X171489728Y-102740070D01*
X171502924Y-102773450D01*
X171512023Y-102794771D01*
X171521902Y-102822180D01*
X171525740Y-102839270D01*
X171525741Y-102839463D01*
X171530138Y-102858870D01*
X171540509Y-102883449D01*
X171555277Y-102912008D01*
X171838165Y-102911817D01*
X171846703Y-102911806D01*
X171922553Y-102911336D01*
X171995171Y-102910251D01*
X172061331Y-102908644D01*
X172117808Y-102906610D01*
X172161377Y-102904242D01*
X172188812Y-102901634D01*
X172193569Y-102900950D01*
X172248394Y-102894717D01*
X172321816Y-102888739D01*
X172413148Y-102883051D01*
X172521704Y-102877687D01*
X172646797Y-102872682D01*
X172787738Y-102868069D01*
X172943842Y-102863884D01*
X173019210Y-102861936D01*
X173095058Y-102859715D01*
X173163161Y-102857453D01*
X173221196Y-102855239D01*
X173266842Y-102853162D01*
X173297777Y-102851310D01*
X173311678Y-102849774D01*
X173318606Y-102848215D01*
X173344110Y-102844137D01*
X173380718Y-102839365D01*
X173422996Y-102834637D01*
X173433777Y-102833497D01*
X173488854Y-102827014D01*
X173546297Y-102819405D01*
X173595280Y-102812088D01*
X173675605Y-102799009D01*
X173672719Y-102843092D01*
X173672600Y-102845012D01*
X173671820Y-102862171D01*
X173669874Y-102874263D01*
X173663804Y-102882825D01*
X173650655Y-102889394D01*
X173627468Y-102895508D01*
X173591287Y-102902702D01*
X173539155Y-102912515D01*
X173536969Y-102912929D01*
X173500815Y-102919087D01*
X173461114Y-102924447D01*
X173415888Y-102929125D01*
X173363163Y-102933240D01*
X173300960Y-102936908D01*
X173227304Y-102940248D01*
X173140219Y-102943377D01*
X173037727Y-102946413D01*
X172917852Y-102949472D01*
X172900171Y-102949904D01*
X172817784Y-102952084D01*
X172741832Y-102954361D01*
X172674469Y-102956654D01*
X172617849Y-102958877D01*
X172574124Y-102960949D01*
X172545449Y-102962785D01*
X172533975Y-102964304D01*
X172524040Y-102966379D01*
X172497427Y-102969401D01*
X172457665Y-102972858D01*
X172408042Y-102976468D01*
X172351848Y-102979950D01*
X172310679Y-102982413D01*
X172247599Y-102986596D01*
X172188281Y-102990977D01*
X172137915Y-102995166D01*
X172101693Y-102998772D01*
X172093979Y-102999543D01*
X172060486Y-103001678D01*
X172013589Y-103003551D01*
X171956267Y-103005141D01*
X171891498Y-103006428D01*
X171822259Y-103007391D01*
X171751529Y-103008008D01*
X171682285Y-103008258D01*
X171617505Y-103008121D01*
X171560167Y-103007575D01*
X171513249Y-103006600D01*
X171479728Y-103005174D01*
X171462584Y-103003277D01*
X171462486Y-103003250D01*
X171444872Y-102989042D01*
X171430742Y-102958776D01*
X171429904Y-102956075D01*
X171423665Y-102931467D01*
X171425151Y-102917542D01*
X171434912Y-102907539D01*
X171438709Y-102904549D01*
X171445765Y-102894295D01*
X171445917Y-102877907D01*
X171439667Y-102849232D01*
X171436584Y-102837955D01*
X171423480Y-102799262D01*
X171408948Y-102765568D01*
X171405198Y-102756990D01*
X171394811Y-102725337D01*
X171382558Y-102679847D01*
X171369288Y-102624188D01*
X171355851Y-102562024D01*
X171343097Y-102497024D01*
X171331873Y-102432854D01*
X171328979Y-102416618D01*
X171319748Y-102373264D01*
X171307758Y-102323913D01*
X171294365Y-102273552D01*
X171280928Y-102227166D01*
X171268802Y-102189744D01*
X171259344Y-102166271D01*
X171251718Y-102152911D01*
X171241261Y-102143799D01*
X171224177Y-102141624D01*
X171194192Y-102144270D01*
X171176625Y-102146788D01*
X171142399Y-102154325D01*
X171117246Y-102163172D01*
X171094064Y-102171922D01*
X171068266Y-102176338D01*
X171062903Y-102176950D01*
X171039683Y-102183860D01*
X171007831Y-102196471D01*
X170972700Y-102212293D01*
X170939647Y-102228833D01*
X170914025Y-102243598D01*
X170901191Y-102254096D01*
X170898518Y-102257636D01*
X170877329Y-102273175D01*
X170845335Y-102287533D01*
X170809371Y-102298077D01*
X170776276Y-102302176D01*
X170760655Y-102301509D01*
X170732147Y-102292982D01*
X170717052Y-102272412D01*
X170712630Y-102236989D01*
X170709640Y-102215404D01*
X170701107Y-102197726D01*
X170697150Y-102189019D01*
X170691679Y-102163070D01*
X170686723Y-102124501D01*
X170682874Y-102077211D01*
X170679672Y-102035944D01*
X170670021Y-101966553D01*
X170655994Y-101914981D01*
X170647641Y-101891490D01*
X170638989Y-101862803D01*
X170635507Y-101844802D01*
X170632615Y-101835358D01*
X170617245Y-101827862D01*
X170615201Y-101827948D01*
X170590601Y-101838528D01*
X170559915Y-101866202D01*
X170524081Y-101910141D01*
X170507283Y-101931986D01*
X170479728Y-101965851D01*
X170451659Y-101998689D01*
X170429816Y-102023729D01*
X170399258Y-102059421D01*
X170373835Y-102089803D01*
X170359603Y-102106935D01*
X170329554Y-102142335D01*
X170300753Y-102175493D01*
X170283561Y-102195624D01*
X170260627Y-102224407D01*
X170244871Y-102246517D01*
X170228190Y-102273136D01*
X170061435Y-102273196D01*
X170051529Y-102273206D01*
X169987731Y-102273751D01*
X169940141Y-102275268D01*
X169905994Y-102277963D01*
X169882520Y-102282044D01*
X169866955Y-102287716D01*
X169862663Y-102289525D01*
X169852678Y-102292051D01*
X169837565Y-102294225D01*
X169816030Y-102296074D01*
X169786779Y-102297622D01*
X169748519Y-102298894D01*
X169699956Y-102299915D01*
X169639795Y-102300710D01*
X169566744Y-102301305D01*
X169479508Y-102301723D01*
X169376794Y-102301992D01*
X169257307Y-102302134D01*
X169119755Y-102302176D01*
X169118643Y-102302176D01*
X169002428Y-102302283D01*
X168891919Y-102302590D01*
X168788634Y-102303079D01*
X168694089Y-102303733D01*
X168609802Y-102304537D01*
X168537289Y-102305473D01*
X168478068Y-102306523D01*
X168433655Y-102307673D01*
X168405568Y-102308904D01*
X168395323Y-102310199D01*
X168394751Y-102311433D01*
X168398796Y-102326338D01*
X168415852Y-102348845D01*
X168443179Y-102376177D01*
X168478036Y-102405556D01*
X168517682Y-102434205D01*
X168523478Y-102438059D01*
X168556585Y-102459892D01*
X168583512Y-102476981D01*
X168608959Y-102492007D01*
X168637626Y-102507647D01*
X168674211Y-102526583D01*
X168723415Y-102551492D01*
X168741688Y-102561078D01*
X168786316Y-102587068D01*
X168827357Y-102614133D01*
X168857779Y-102637758D01*
X168871986Y-102649742D01*
X168907693Y-102676912D01*
X168950266Y-102706742D01*
X168993298Y-102734651D01*
X169015969Y-102748883D01*
X169060636Y-102777955D01*
X169102078Y-102806104D01*
X169133595Y-102828833D01*
X169159609Y-102847666D01*
X169198134Y-102873158D01*
X169231637Y-102892906D01*
X169258321Y-102907505D01*
X169284128Y-102924433D01*
X169302878Y-102943065D01*
X169319591Y-102968708D01*
X169339291Y-103006670D01*
X169352058Y-103033302D01*
X169361437Y-103057091D01*
X169367896Y-103081765D01*
X169372345Y-103111938D01*
X169375696Y-103152226D01*
X169378858Y-103207245D01*
X169382279Y-103270377D01*
X169387627Y-103360880D01*
X169392604Y-103433745D01*
X169397304Y-103490041D01*
X169401823Y-103530842D01*
X169406252Y-103557217D01*
X169410687Y-103570240D01*
X169412444Y-103576083D01*
X169415614Y-103599666D01*
X169418871Y-103637978D01*
X169422017Y-103688113D01*
X169424855Y-103747168D01*
X169427186Y-103812237D01*
X169428038Y-103839500D01*
X169430552Y-103910337D01*
X169433371Y-103978711D01*
X169436299Y-104040401D01*
X169439142Y-104091182D01*
X169441705Y-104126833D01*
X169444557Y-104174372D01*
X169442854Y-104220284D01*
X169435070Y-104248159D01*
X169421233Y-104257817D01*
X169410899Y-104261050D01*
X169391339Y-104275833D01*
X169364663Y-104303616D01*
X169329813Y-104345530D01*
X169285730Y-104402710D01*
X169278514Y-104412296D01*
X169231586Y-104474457D01*
X169195353Y-104522065D01*
X169169118Y-104556026D01*
X169152180Y-104577244D01*
X169143843Y-104586627D01*
X169139033Y-104591431D01*
X169120854Y-104614205D01*
X169098555Y-104646304D01*
X169075820Y-104682023D01*
X169056334Y-104715658D01*
X169043783Y-104741505D01*
X169033474Y-104766535D01*
X169011798Y-104811047D01*
X168985518Y-104853881D01*
X168952098Y-104898590D01*
X168909000Y-104948729D01*
X168853688Y-105007852D01*
X168815961Y-105048624D01*
X168784832Y-105085328D01*
X168763226Y-105114446D01*
X168753424Y-105133128D01*
X168746194Y-105149096D01*
X168727283Y-105175700D01*
X168702346Y-105202400D01*
X168682540Y-105222755D01*
X168666979Y-105243339D01*
X168662640Y-105256202D01*
X168662658Y-105256253D01*
X168674407Y-105263705D01*
X168700560Y-105268971D01*
X168736304Y-105271970D01*
X168776826Y-105272625D01*
X168817313Y-105270856D01*
X168852953Y-105266586D01*
X168878934Y-105259735D01*
X168885133Y-105257373D01*
X168920926Y-105248465D01*
X168957561Y-105244859D01*
X168996836Y-105239658D01*
X169032311Y-105220659D01*
X169055088Y-105206370D01*
X169082164Y-105198550D01*
X169119894Y-105196460D01*
X169126781Y-105196394D01*
X169176012Y-105190397D01*
X169220619Y-105172780D01*
X169225974Y-105170033D01*
X169258623Y-105157072D01*
X169296959Y-105149119D01*
X169347768Y-105144675D01*
X169353680Y-105144324D01*
X169400840Y-105139686D01*
X169447122Y-105132466D01*
X169483286Y-105124070D01*
X169486886Y-105122980D01*
X169617800Y-105089449D01*
X169739803Y-105070695D01*
X169760171Y-105068489D01*
X169812802Y-105060766D01*
X169858711Y-105051224D01*
X169893697Y-105040833D01*
X169913556Y-105030564D01*
X169915011Y-105029655D01*
X169931967Y-105025877D01*
X169961724Y-105023223D01*
X169998892Y-105022222D01*
X170005354Y-105022184D01*
X170043979Y-105020447D01*
X170076035Y-105016635D01*
X170095132Y-105011464D01*
X170103003Y-105008243D01*
X170131092Y-105001344D01*
X170171313Y-104994684D01*
X170219753Y-104988582D01*
X170272502Y-104983356D01*
X170325648Y-104979324D01*
X170375281Y-104976803D01*
X170417489Y-104976112D01*
X170448360Y-104977568D01*
X170463984Y-104981489D01*
X170479934Y-104989632D01*
X170504513Y-104997478D01*
X170513638Y-105000772D01*
X170540059Y-105016740D01*
X170576991Y-105045481D01*
X170625175Y-105087598D01*
X170685356Y-105143690D01*
X170686147Y-105144431D01*
X170714736Y-105163152D01*
X170746842Y-105174189D01*
X170748604Y-105174498D01*
X170779559Y-105185415D01*
X170805136Y-105202726D01*
X170806055Y-105203634D01*
X170825732Y-105219108D01*
X170841636Y-105225499D01*
X170854885Y-105231905D01*
X170876660Y-105250618D01*
X170902876Y-105277996D01*
X170930032Y-105310366D01*
X170954627Y-105344054D01*
X170966661Y-105361652D01*
X170978750Y-105375939D01*
X170987939Y-105378740D01*
X170998666Y-105372969D01*
X171002913Y-105368192D01*
X171014241Y-105347324D01*
X171027668Y-105315820D01*
X171041161Y-105279028D01*
X171052688Y-105242298D01*
X171060216Y-105210979D01*
X171061301Y-105205392D01*
X171069396Y-105174661D01*
X171078682Y-105151117D01*
X171085650Y-105134887D01*
X171090146Y-105113684D01*
X171093293Y-105104215D01*
X171107356Y-105083458D01*
X171128876Y-105059809D01*
X171164984Y-105032339D01*
X171204327Y-105020569D01*
X171244753Y-105027889D01*
X171287586Y-105054253D01*
X171299166Y-105063175D01*
X171335274Y-105087888D01*
X171369727Y-105108007D01*
X171382267Y-105114917D01*
X171410166Y-105133551D01*
X171429061Y-105150612D01*
X171435544Y-105157471D01*
X171451309Y-105166626D01*
X171476069Y-105172103D01*
X171515000Y-105175396D01*
X171523072Y-105175831D01*
X171565002Y-105176506D01*
X171590799Y-105171775D01*
X171603096Y-105159293D01*
X171604526Y-105136715D01*
X171597721Y-105101695D01*
X171592966Y-105073801D01*
X171589124Y-105031213D01*
X171586421Y-104973671D01*
X171584790Y-104899713D01*
X171584164Y-104807880D01*
X171584153Y-104799338D01*
X171584020Y-104725191D01*
X171583524Y-104667987D01*
X171582190Y-104625529D01*
X171579542Y-104595625D01*
X171575106Y-104576079D01*
X171568407Y-104564697D01*
X171558968Y-104559284D01*
X171546315Y-104557646D01*
X171529973Y-104557588D01*
X171510768Y-104552033D01*
X171500300Y-104531890D01*
X171498757Y-104525637D01*
X171496012Y-104510754D01*
X171497043Y-104499143D01*
X171503800Y-104490406D01*
X171518229Y-104484144D01*
X171542278Y-104479960D01*
X171577896Y-104477456D01*
X171627030Y-104476234D01*
X171691628Y-104475896D01*
X171773638Y-104476044D01*
X171863732Y-104476703D01*
X171944217Y-104478380D01*
X172009429Y-104481227D01*
X172061479Y-104485420D01*
X172102479Y-104491130D01*
X172134539Y-104498533D01*
X172159772Y-104507801D01*
X172174022Y-104513333D01*
X172202992Y-104523060D01*
X172237211Y-104533516D01*
X172264348Y-104541603D01*
X172296306Y-104551611D01*
X172317526Y-104558841D01*
X172329592Y-104561451D01*
X172359172Y-104564456D01*
X172399219Y-104566508D01*
X172444602Y-104567268D01*
X172503228Y-104568615D01*
X172551936Y-104573401D01*
X172584194Y-104581787D01*
X172584518Y-104581922D01*
X172607950Y-104588580D01*
X172642144Y-104593035D01*
X172689945Y-104595530D01*
X172754203Y-104596307D01*
X172760515Y-104596316D01*
X172813372Y-104597132D01*
X172855365Y-104599145D01*
X172883665Y-104602161D01*
X172895443Y-104605987D01*
X172899518Y-104608972D01*
X172918831Y-104613773D01*
X172947006Y-104615667D01*
X172948321Y-104615671D01*
X172991396Y-104621635D01*
X173030552Y-104641464D01*
X173046000Y-104650773D01*
X173096713Y-104668850D01*
X173149767Y-104672156D01*
X173198687Y-104659980D01*
X173201569Y-104658688D01*
X173225529Y-104649714D01*
X173242994Y-104649766D01*
X173263590Y-104658647D01*
X173264281Y-104659002D01*
X173285926Y-104666330D01*
X173294880Y-104669361D01*
X173328046Y-104673687D01*
X173333188Y-104673793D01*
X173356978Y-104677052D01*
X173369757Y-104683426D01*
X173376074Y-104687149D01*
X173397568Y-104691436D01*
X173427665Y-104693106D01*
X173460749Y-104694906D01*
X173486694Y-104702711D01*
X173510801Y-104719368D01*
X173529230Y-104733249D01*
X173547425Y-104740929D01*
X173571575Y-104743617D01*
X173608343Y-104742923D01*
X173674673Y-104740215D01*
X173674673Y-104880924D01*
X173674580Y-104916063D01*
X173673808Y-104963503D01*
X173671909Y-104997492D01*
X173668468Y-105021764D01*
X173663074Y-105040055D01*
X173655313Y-105056101D01*
X173651903Y-105062451D01*
X173640540Y-105088719D01*
X173635954Y-105108330D01*
X173631019Y-105126735D01*
X173617770Y-105149206D01*
X173599209Y-105175224D01*
X173578650Y-105210164D01*
X173564061Y-105241988D01*
X173558515Y-105264706D01*
X173557597Y-105271403D01*
X173549009Y-105295039D01*
X173534315Y-105322298D01*
X173527217Y-105334044D01*
X173514963Y-105357520D01*
X173510115Y-105372011D01*
X173509532Y-105375242D01*
X173501042Y-105392736D01*
X173485655Y-105415459D01*
X173477081Y-105428336D01*
X173459689Y-105462397D01*
X173446090Y-105498652D01*
X173435712Y-105529216D01*
X173418538Y-105571503D01*
X173397860Y-105616865D01*
X173375502Y-105661808D01*
X173353287Y-105702842D01*
X173333036Y-105736476D01*
X173316573Y-105759216D01*
X173305719Y-105767572D01*
X173297456Y-105773763D01*
X173282374Y-105792002D01*
X173264496Y-105817118D01*
X173247352Y-105843854D01*
X173234476Y-105866953D01*
X173229399Y-105881159D01*
X173228934Y-105884839D01*
X173219308Y-105905854D01*
X173200019Y-105934124D01*
X173174756Y-105965043D01*
X173147206Y-105994007D01*
X173121060Y-106016410D01*
X173112712Y-106022736D01*
X173083029Y-106047397D01*
X173047923Y-106078753D01*
X173013326Y-106111566D01*
X172982297Y-106141512D01*
X172960512Y-106160239D01*
X172944281Y-106169794D01*
X172929601Y-106172526D01*
X172912471Y-106170784D01*
X172908506Y-106170071D01*
X172883832Y-106162453D01*
X172869301Y-106152691D01*
X172867503Y-106149077D01*
X172864565Y-106125262D01*
X172867648Y-106089255D01*
X172876432Y-106045869D01*
X172878724Y-106027249D01*
X172874720Y-106019249D01*
X172873067Y-106019701D01*
X172859040Y-106028541D01*
X172835689Y-106046349D01*
X172807083Y-106070069D01*
X172802008Y-106074415D01*
X172770800Y-106100664D01*
X172743272Y-106123099D01*
X172724875Y-106137260D01*
X172720640Y-106140277D01*
X172695497Y-106158288D01*
X172667966Y-106178124D01*
X172660071Y-106183808D01*
X172627540Y-106206946D01*
X172595367Y-106229511D01*
X172569164Y-106248546D01*
X172516719Y-106291214D01*
X172456368Y-106345945D01*
X172445511Y-106355872D01*
X172426836Y-106371317D01*
X172416617Y-106377405D01*
X172407082Y-106383195D01*
X172387563Y-106398843D01*
X172362443Y-106420894D01*
X172337232Y-106442012D01*
X172310111Y-106461063D01*
X172290451Y-106470846D01*
X172288191Y-106471473D01*
X172249727Y-106486828D01*
X172205649Y-106510791D01*
X172163649Y-106538754D01*
X172131421Y-106566109D01*
X172120261Y-106576606D01*
X172096912Y-106593412D01*
X172078872Y-106600042D01*
X172066891Y-106601706D01*
X172053294Y-106609722D01*
X172048216Y-106613285D01*
X172027659Y-106617645D01*
X171998305Y-106619174D01*
X171966862Y-106617973D01*
X171940041Y-106614143D01*
X171924551Y-106607786D01*
X171913850Y-106585606D01*
X171917961Y-106556119D01*
X171937135Y-106524368D01*
X171941293Y-106519279D01*
X171955569Y-106498936D01*
X171961335Y-106485649D01*
X171961584Y-106483900D01*
X171969381Y-106468582D01*
X171984704Y-106447916D01*
X172000431Y-106426746D01*
X172024788Y-106387287D01*
X172050655Y-106339513D01*
X172076115Y-106287572D01*
X172099254Y-106235615D01*
X172118153Y-106187793D01*
X172130898Y-106148256D01*
X172135573Y-106121154D01*
X172136537Y-106115219D01*
X172147797Y-106093938D01*
X172167644Y-106071850D01*
X172171896Y-106067963D01*
X172194387Y-106044591D01*
X172218235Y-106016370D01*
X172239788Y-105988043D01*
X172255397Y-105964351D01*
X172261411Y-105950038D01*
X172257911Y-105944523D01*
X172240375Y-105942488D01*
X172211081Y-105947289D01*
X172173390Y-105957812D01*
X172130667Y-105972939D01*
X172086273Y-105991557D01*
X172043572Y-106012548D01*
X172005925Y-106034798D01*
X171987630Y-106046873D01*
X171933194Y-106082403D01*
X171881006Y-106115925D01*
X171834528Y-106145251D01*
X171797218Y-106168188D01*
X171772537Y-106182548D01*
X171771302Y-106183222D01*
X171742221Y-106200607D01*
X171712963Y-106220107D01*
X171707333Y-106224058D01*
X171687542Y-106236763D01*
X171676595Y-106241886D01*
X171676332Y-106241914D01*
X171665049Y-106247666D01*
X171642756Y-106261500D01*
X171613995Y-106280606D01*
X171570216Y-106306718D01*
X171535858Y-106318152D01*
X171511088Y-106314248D01*
X171494939Y-106295126D01*
X171493168Y-106290923D01*
X171489528Y-106265962D01*
X171499381Y-106240714D01*
X171524184Y-106212791D01*
X171565397Y-106179805D01*
X171580056Y-106168746D01*
X171618304Y-106137729D01*
X171660332Y-106101454D01*
X171699385Y-106065675D01*
X171721031Y-106045345D01*
X171766682Y-106003548D01*
X171815550Y-105959854D01*
X171860199Y-105920957D01*
X171892280Y-105893429D01*
X171899608Y-105887099D01*
X172038774Y-105887099D01*
X172044281Y-105891813D01*
X172062748Y-105893161D01*
X172087956Y-105889931D01*
X172113337Y-105882526D01*
X172122423Y-105878882D01*
X172156281Y-105865587D01*
X172187879Y-105853877D01*
X172227531Y-105839902D01*
X172243057Y-105833965D01*
X172278587Y-105817253D01*
X172306744Y-105800159D01*
X172327003Y-105788439D01*
X172360433Y-105778680D01*
X172391857Y-105778580D01*
X172414353Y-105788868D01*
X172415185Y-105789739D01*
X172424739Y-105813399D01*
X172423058Y-105848183D01*
X172410313Y-105889809D01*
X172404286Y-105902921D01*
X172382698Y-105942076D01*
X172353879Y-105988053D01*
X172321573Y-106035280D01*
X172289525Y-106078189D01*
X172261480Y-106111208D01*
X172249016Y-106125789D01*
X172226925Y-106158536D01*
X172212916Y-106188647D01*
X172207629Y-106203505D01*
X172193876Y-106236863D01*
X172175475Y-106278032D01*
X172154925Y-106321304D01*
X172139854Y-106352975D01*
X172125086Y-106386465D01*
X172116004Y-106410237D01*
X172114158Y-106420523D01*
X172118493Y-106423815D01*
X172142289Y-106427186D01*
X172177621Y-106417872D01*
X172222860Y-106396719D01*
X172276382Y-106364575D01*
X172336561Y-106322287D01*
X172401769Y-106270702D01*
X172408635Y-106265001D01*
X172460952Y-106222394D01*
X172517825Y-106177256D01*
X172572836Y-106134630D01*
X172619566Y-106099560D01*
X172619975Y-106099261D01*
X172686153Y-106050002D01*
X172742951Y-106006089D01*
X172788696Y-105968882D01*
X172821715Y-105939742D01*
X172840333Y-105920030D01*
X172850315Y-105910203D01*
X172867146Y-105903091D01*
X172872247Y-105902140D01*
X172893441Y-105894693D01*
X172924956Y-105881459D01*
X172962053Y-105864371D01*
X172979556Y-105856193D01*
X173015991Y-105840540D01*
X173045411Y-105829702D01*
X173062691Y-105825652D01*
X173063772Y-105825689D01*
X173083184Y-105833945D01*
X173102156Y-105852271D01*
X173104886Y-105855975D01*
X173117389Y-105870913D01*
X173125782Y-105871658D01*
X173136281Y-105859531D01*
X173144785Y-105846509D01*
X173160364Y-105819058D01*
X173176934Y-105786932D01*
X173189425Y-105763592D01*
X173209543Y-105731804D01*
X173227382Y-105709493D01*
X173240647Y-105694678D01*
X173264030Y-105663944D01*
X173288908Y-105627372D01*
X173311914Y-105590225D01*
X173329682Y-105557765D01*
X173338844Y-105535255D01*
X173343898Y-105514159D01*
X173356485Y-105464834D01*
X173366868Y-105430351D01*
X173376062Y-105407601D01*
X173385080Y-105393475D01*
X173404312Y-105367724D01*
X173424849Y-105335033D01*
X173443296Y-105301377D01*
X173456602Y-105272330D01*
X173461716Y-105253467D01*
X173465157Y-105233415D01*
X173475102Y-105207633D01*
X173493645Y-105171802D01*
X173515227Y-105128946D01*
X173529263Y-105099031D01*
X173536868Y-105079634D01*
X173539155Y-105068333D01*
X173540825Y-105060026D01*
X173549591Y-105037053D01*
X173563355Y-105008631D01*
X173571729Y-104991503D01*
X173583097Y-104962105D01*
X173587554Y-104940931D01*
X173592090Y-104922595D01*
X173606914Y-104901223D01*
X173619030Y-104886385D01*
X173626256Y-104863284D01*
X173619820Y-104844757D01*
X173608196Y-104841575D01*
X173582617Y-104839208D01*
X173548909Y-104838304D01*
X173520305Y-104837821D01*
X173494248Y-104834785D01*
X173476770Y-104827449D01*
X173461716Y-104814104D01*
X173445710Y-104800316D01*
X173423386Y-104791961D01*
X173389849Y-104789597D01*
X173375149Y-104788959D01*
X173343244Y-104783821D01*
X173321927Y-104775077D01*
X173307104Y-104766512D01*
X173285926Y-104760865D01*
X173283617Y-104760968D01*
X173259188Y-104767753D01*
X173228145Y-104782358D01*
X173197890Y-104800855D01*
X173175825Y-104819314D01*
X173162239Y-104831801D01*
X173149432Y-104838304D01*
X173134469Y-104844084D01*
X173110859Y-104861285D01*
X173084274Y-104885699D01*
X173059331Y-104913049D01*
X173040647Y-104939060D01*
X173039545Y-104940901D01*
X173019586Y-104968888D01*
X172991470Y-105002451D01*
X172960916Y-105034728D01*
X172954501Y-105041043D01*
X172927534Y-105067832D01*
X172906094Y-105089507D01*
X172894345Y-105101866D01*
X172889755Y-105106784D01*
X172872477Y-105124376D01*
X172846967Y-105149806D01*
X172816906Y-105179390D01*
X172800471Y-105195510D01*
X172772336Y-105223316D01*
X172750688Y-105244983D01*
X172739221Y-105256829D01*
X172737983Y-105258188D01*
X172718008Y-105278596D01*
X172687698Y-105308020D01*
X172650823Y-105342950D01*
X172611152Y-105379873D01*
X172572453Y-105415280D01*
X172538498Y-105445658D01*
X172513054Y-105467496D01*
X172500987Y-105477529D01*
X172469002Y-105504569D01*
X172428512Y-105539183D01*
X172383483Y-105577970D01*
X172337886Y-105617534D01*
X172313342Y-105638906D01*
X172268466Y-105677938D01*
X172226818Y-105714111D01*
X172192186Y-105744136D01*
X172168356Y-105764724D01*
X172143854Y-105785955D01*
X172100009Y-105824862D01*
X172066935Y-105855582D01*
X172046051Y-105876774D01*
X172038774Y-105887099D01*
X171899608Y-105887099D01*
X171925316Y-105864893D01*
X171951216Y-105842317D01*
X171966178Y-105828998D01*
X171977071Y-105819081D01*
X172000775Y-105797711D01*
X172031985Y-105769701D01*
X172066825Y-105738533D01*
X172093931Y-105714252D01*
X172127923Y-105683608D01*
X172155916Y-105658157D01*
X172173675Y-105641734D01*
X172181255Y-105634818D01*
X172204412Y-105614495D01*
X172237376Y-105586099D01*
X172276933Y-105552392D01*
X172319865Y-105516138D01*
X172341026Y-105498292D01*
X172386224Y-105459824D01*
X172428393Y-105423499D01*
X172463584Y-105392733D01*
X172487846Y-105370940D01*
X172507443Y-105352471D01*
X172542989Y-105318027D01*
X172586003Y-105275579D01*
X172634559Y-105227097D01*
X172686730Y-105174550D01*
X172740591Y-105119907D01*
X172794215Y-105065137D01*
X172845676Y-105012210D01*
X172893048Y-104963095D01*
X172934405Y-104919762D01*
X172967820Y-104884179D01*
X172991367Y-104858316D01*
X173003119Y-104844142D01*
X173008160Y-104837084D01*
X173028108Y-104813908D01*
X173045666Y-104799486D01*
X173045997Y-104799308D01*
X173061985Y-104786066D01*
X173060782Y-104772059D01*
X173041773Y-104756372D01*
X173004342Y-104738090D01*
X172952249Y-104720312D01*
X172890119Y-104712438D01*
X172869149Y-104711600D01*
X172840553Y-104707266D01*
X172824304Y-104700366D01*
X172816306Y-104696391D01*
X172789734Y-104690507D01*
X172748130Y-104685202D01*
X172694109Y-104680868D01*
X172679363Y-104679941D01*
X172577339Y-104673283D01*
X172491502Y-104667002D01*
X172419068Y-104660641D01*
X172357250Y-104653739D01*
X172303263Y-104645838D01*
X172254321Y-104636480D01*
X172207638Y-104625204D01*
X172160430Y-104611552D01*
X172109910Y-104595066D01*
X172053294Y-104575285D01*
X172036815Y-104571521D01*
X172002459Y-104567326D01*
X171957164Y-104563914D01*
X171905249Y-104561397D01*
X171851034Y-104559886D01*
X171798838Y-104559492D01*
X171752980Y-104560327D01*
X171717781Y-104562501D01*
X171697558Y-104566126D01*
X171670938Y-104576468D01*
X171670938Y-104803572D01*
X171671098Y-104869831D01*
X171671963Y-104935632D01*
X171673978Y-104989220D01*
X171677582Y-105034511D01*
X171683215Y-105075417D01*
X171691317Y-105115854D01*
X171702327Y-105159737D01*
X171716684Y-105210979D01*
X171721027Y-105241234D01*
X171719769Y-105273899D01*
X171716259Y-105291943D01*
X171709140Y-105303259D01*
X171693488Y-105308324D01*
X171663898Y-105310696D01*
X171632848Y-105310876D01*
X171604881Y-105304616D01*
X171576952Y-105288917D01*
X171561679Y-105279374D01*
X171538819Y-105269865D01*
X171510766Y-105265358D01*
X171470477Y-105264219D01*
X171465483Y-105264213D01*
X171430113Y-105263398D01*
X171408385Y-105260230D01*
X171395172Y-105253329D01*
X171385342Y-105241317D01*
X171373350Y-105229097D01*
X171348140Y-105210832D01*
X171315430Y-105190813D01*
X171279922Y-105171566D01*
X171246320Y-105155618D01*
X171219327Y-105145495D01*
X171203646Y-105143722D01*
X171196261Y-105149058D01*
X171180809Y-105168925D01*
X171165179Y-105196353D01*
X171153082Y-105224473D01*
X171148225Y-105246410D01*
X171145826Y-105262198D01*
X171136413Y-105286635D01*
X171119831Y-105321607D01*
X171104765Y-105377945D01*
X171099971Y-105445025D01*
X171098627Y-105484020D01*
X171093720Y-105513169D01*
X171084614Y-105529724D01*
X171081775Y-105532589D01*
X171072289Y-105541203D01*
X171062927Y-105543485D01*
X171047586Y-105539334D01*
X171020162Y-105528648D01*
X170984758Y-105508666D01*
X170944235Y-105475361D01*
X170904896Y-105433936D01*
X170871738Y-105389090D01*
X170866933Y-105381874D01*
X170845158Y-105354820D01*
X170823930Y-105335086D01*
X170818432Y-105331149D01*
X170792186Y-105311884D01*
X170764207Y-105290838D01*
X170734768Y-105273096D01*
X170693187Y-105264219D01*
X170671584Y-105262507D01*
X170652387Y-105252891D01*
X170634019Y-105230405D01*
X170628176Y-105222176D01*
X170612919Y-105203864D01*
X170603013Y-105196526D01*
X170601562Y-105196093D01*
X170588400Y-105186894D01*
X170566321Y-105168185D01*
X170539219Y-105143220D01*
X170533082Y-105137476D01*
X170504454Y-105113338D01*
X170479699Y-105096382D01*
X170463605Y-105089981D01*
X170442053Y-105085907D01*
X170416081Y-105075521D01*
X170403765Y-105070105D01*
X170366279Y-105062072D01*
X170329192Y-105063746D01*
X170300666Y-105075153D01*
X170292730Y-105079575D01*
X170260216Y-105087063D01*
X170209277Y-105089819D01*
X170167721Y-105091930D01*
X170127546Y-105097109D01*
X170097958Y-105104222D01*
X170077397Y-105109833D01*
X170038638Y-105116018D01*
X169998608Y-105118596D01*
X169969868Y-105119682D01*
X169939478Y-105122948D01*
X169921169Y-105127557D01*
X169894929Y-105138053D01*
X169846937Y-105150542D01*
X169790009Y-105159998D01*
X169730123Y-105165244D01*
X169720621Y-105165747D01*
X169684444Y-105168885D01*
X169656955Y-105173161D01*
X169643488Y-105177803D01*
X169631966Y-105183526D01*
X169609608Y-105186839D01*
X169585168Y-105190819D01*
X169557198Y-105201359D01*
X169531076Y-105211176D01*
X169502169Y-105215819D01*
X169478466Y-105218187D01*
X169448161Y-105225973D01*
X169447752Y-105226126D01*
X169424337Y-105231829D01*
X169389220Y-105237088D01*
X169349841Y-105240781D01*
X169340075Y-105241500D01*
X169280229Y-105250987D01*
X169231040Y-105269347D01*
X169188994Y-105285914D01*
X169131035Y-105293258D01*
X169100785Y-105294648D01*
X169073454Y-105301611D01*
X169050497Y-105316583D01*
X169047036Y-105319397D01*
X169025259Y-105332305D01*
X168996811Y-105340049D01*
X168955375Y-105344484D01*
X168920161Y-105347684D01*
X168877710Y-105353263D01*
X168844414Y-105359457D01*
X168830990Y-105361843D01*
X168794761Y-105365430D01*
X168747140Y-105368089D01*
X168693224Y-105369740D01*
X168638107Y-105370301D01*
X168586885Y-105369694D01*
X168544654Y-105367836D01*
X168516508Y-105364647D01*
X168515136Y-105364370D01*
X168495971Y-105358254D01*
X168487906Y-105346203D01*
X168486258Y-105321542D01*
X168488298Y-105296595D01*
X168498096Y-105281191D01*
X168520980Y-105268011D01*
X168522494Y-105267277D01*
X168554173Y-105243130D01*
X168581479Y-105202988D01*
X168591103Y-105186387D01*
X168616944Y-105149072D01*
X168643556Y-105117755D01*
X168656963Y-105103116D01*
X168673427Y-105080921D01*
X168679856Y-105065742D01*
X168682103Y-105060362D01*
X168695580Y-105041929D01*
X168719191Y-105014243D01*
X168750583Y-104980011D01*
X168787405Y-104941941D01*
X168807234Y-104921774D01*
X168861551Y-104864011D01*
X168903378Y-104814564D01*
X168934780Y-104770633D01*
X168957823Y-104729417D01*
X168974571Y-104688116D01*
X168980709Y-104672024D01*
X168996824Y-104639433D01*
X169013278Y-104615667D01*
X169018861Y-104609329D01*
X169039839Y-104582411D01*
X169060202Y-104552748D01*
X169066178Y-104543592D01*
X169087689Y-104513570D01*
X169107349Y-104489641D01*
X169125576Y-104468707D01*
X169156001Y-104430865D01*
X169190643Y-104385470D01*
X169225827Y-104337365D01*
X169257876Y-104291391D01*
X169280898Y-104260213D01*
X169306303Y-104230754D01*
X169327286Y-104211242D01*
X169338238Y-104202742D01*
X169350854Y-104188077D01*
X169356285Y-104168493D01*
X169357448Y-104136794D01*
X169356679Y-104115924D01*
X169353165Y-104090729D01*
X169347768Y-104078434D01*
X169347387Y-104078082D01*
X169344191Y-104064463D01*
X169341567Y-104033147D01*
X169339581Y-103985629D01*
X169338297Y-103923404D01*
X169337780Y-103847965D01*
X169337677Y-103808737D01*
X169337135Y-103742643D01*
X169336032Y-103692460D01*
X169334231Y-103655879D01*
X169331594Y-103630595D01*
X169327983Y-103614301D01*
X169323260Y-103604690D01*
X169321988Y-103602863D01*
X169314563Y-103582573D01*
X169310368Y-103548416D01*
X169309048Y-103497727D01*
X169308834Y-103478493D01*
X169307099Y-103441276D01*
X169303997Y-103413595D01*
X169299985Y-103400358D01*
X169297759Y-103393656D01*
X169294609Y-103369912D01*
X169291749Y-103332628D01*
X169289426Y-103285240D01*
X169287885Y-103231185D01*
X169286965Y-103185878D01*
X169285589Y-103138627D01*
X169283639Y-103104995D01*
X169280642Y-103081674D01*
X169276127Y-103065355D01*
X169269620Y-103052728D01*
X169260649Y-103040486D01*
X169258712Y-103038141D01*
X169240422Y-103019919D01*
X169214089Y-102997259D01*
X169184218Y-102973617D01*
X169155316Y-102952450D01*
X169131887Y-102937215D01*
X169118438Y-102931368D01*
X169113277Y-102928985D01*
X169096259Y-102917379D01*
X169072888Y-102899370D01*
X169055610Y-102886010D01*
X169024566Y-102863465D01*
X168989507Y-102839142D01*
X168954376Y-102815663D01*
X168923117Y-102795647D01*
X168899673Y-102781716D01*
X168887986Y-102776490D01*
X168887170Y-102776312D01*
X168874934Y-102768548D01*
X168853057Y-102751594D01*
X168825658Y-102728613D01*
X168807815Y-102714330D01*
X168767649Y-102686222D01*
X168720859Y-102656972D01*
X168674305Y-102631006D01*
X168641514Y-102613704D01*
X168605109Y-102593648D01*
X168577501Y-102577462D01*
X168562935Y-102567564D01*
X168552686Y-102559645D01*
X168539956Y-102553853D01*
X168539541Y-102553812D01*
X168527075Y-102547967D01*
X168503756Y-102534152D01*
X168474276Y-102515133D01*
X168471469Y-102513264D01*
X168442558Y-102494627D01*
X168420431Y-102481426D01*
X168409681Y-102476414D01*
X168403379Y-102472762D01*
X168386710Y-102458401D01*
X168364805Y-102436874D01*
X168349718Y-102422253D01*
X168319375Y-102396704D01*
X168292661Y-102378406D01*
X168287533Y-102375494D01*
X168247257Y-102350250D01*
X168206527Y-102321430D01*
X168174185Y-102295239D01*
X168165257Y-102284060D01*
X168157595Y-102258392D01*
X168161187Y-102232863D01*
X168175866Y-102215398D01*
X168183997Y-102213812D01*
X168211898Y-102211839D01*
X168259084Y-102210128D01*
X168325513Y-102208679D01*
X168411145Y-102207492D01*
X168515936Y-102206568D01*
X168639844Y-102205907D01*
X168782828Y-102205510D01*
X168944845Y-102205377D01*
X169093661Y-102205263D01*
X169232726Y-102204901D01*
X169354279Y-102204294D01*
X169458058Y-102203445D01*
X169543796Y-102202359D01*
X169611232Y-102201037D01*
X169660101Y-102199484D01*
X169690140Y-102197703D01*
X169701083Y-102195697D01*
X169701495Y-102195270D01*
X169715380Y-102192098D01*
X169747006Y-102189527D01*
X169794939Y-102187617D01*
X169857743Y-102186427D01*
X169933983Y-102186018D01*
X170160900Y-102186018D01*
X170213758Y-102130358D01*
X170216692Y-102127249D01*
X170244597Y-102095794D01*
X170268583Y-102065732D01*
X170283737Y-102043183D01*
X170285774Y-102039600D01*
X170302148Y-102017965D01*
X170317987Y-102006232D01*
X170327182Y-102001725D01*
X170335115Y-101990701D01*
X170340372Y-101980750D01*
X170356286Y-101961211D01*
X170379138Y-101937207D01*
X170398694Y-101916817D01*
X170427147Y-101883874D01*
X170448811Y-101855046D01*
X170454873Y-101846455D01*
X170477596Y-101817934D01*
X170507352Y-101783730D01*
X170539313Y-101749475D01*
X170564136Y-101724307D01*
X170588201Y-101702087D01*
X170606563Y-101689518D01*
X170623349Y-101683933D01*
X170642686Y-101682664D01*
X170662222Y-101683352D01*
G37*
%TD*%
M02*
