M48
; DRILL file {KiCad 9.0.7} date 2026-03-21T11:52:18-0500
; FORMAT={-:-/ absolute / metric / decimal}
; #@! TF.CreationDate,2026-03-21T11:52:18-05:00
; #@! TF.GenerationSoftware,Kicad,Pcbnew,9.0.7
; #@! TF.FileFunction,Plated,1,2,PTH
FMAT,2
METRIC
; #@! TA.AperFunction,Plated,PTH,ViaDrill
T1C0.300
; #@! TA.AperFunction,Plated,PTH,ComponentDrill
T2C0.600
; #@! TA.AperFunction,Plated,PTH,ComponentDrill
T3C1.000
%
G90
G05
T1
X166.929Y-97.028
X169.901Y-112.319
X169.977Y-97.511
X170.028Y-101.879
X170.396Y-98.192
X171.044Y-92.888
X171.069Y-95.352
X171.272Y-96.799
X171.425Y-80.112
X171.45Y-83.16
X171.501Y-74.32
X172.06Y-106.35
X172.079Y-85.868
X172.212Y-86.843
X172.67Y-90.658
X172.771Y-81.788
X173.927Y-90.919
X174.092Y-79.146
X174.346Y-84.684
X174.574Y-94.31
X174.747Y-88.214
X174.755Y-72.616
X174.955Y-80.471
X175.489Y-83.693
X175.59Y-75.26
X175.692Y-94.005
X175.92Y-73.406
X176.354Y-109.129
X176.37Y-90.68
X176.543Y-96.279
X176.759Y-107.899
X177.775Y-101.981
X178.156Y-84.861
X178.435Y-86.131
X178.435Y-106.172
X178.765Y-102.108
X179.172Y-73.457
X179.324Y-107.112
X179.451Y-105.131
X179.781Y-91.923
X179.959Y-101.075
X180.061Y-101.981
X180.111Y-103.683
X180.264Y-72.111
X180.721Y-88.214
X180.721Y-91.186
X180.746Y-106.629
X180.825Y-65.168
X180.825Y-69.348
X180.899Y-105.613
X181.28Y-82.55
X181.356Y-111.481
X181.402Y-92.204
X181.686Y-90.574
X182.347Y-106.274
X182.662Y-94.513
X182.855Y-64.973
X182.905Y-76.86
X183.109Y-68.885
X183.337Y-104.038
X183.423Y-105.633
X186.106Y-107.188
X186.182Y-81.864
X186.182Y-94.412
T3
X167.665Y-65.202
X167.665Y-67.742
X167.665Y-70.282
X167.665Y-72.822
X167.665Y-75.362
X167.665Y-77.902
X167.665Y-80.442
X167.665Y-82.982
X167.665Y-85.522
X167.665Y-88.062
X167.665Y-90.602
X167.665Y-93.142
X167.665Y-95.682
X167.665Y-98.222
X167.665Y-100.762
X167.665Y-103.302
X167.665Y-105.842
X167.665Y-108.382
X167.665Y-110.922
X167.665Y-113.462
X174.015Y-113.222
X176.555Y-113.222
X179.095Y-113.222
X185.445Y-65.202
X185.445Y-67.742
X185.445Y-70.282
X185.445Y-72.822
X185.445Y-75.362
X185.445Y-77.902
X185.445Y-80.442
X185.445Y-82.982
X185.445Y-85.522
X185.445Y-88.062
X185.445Y-90.602
X185.445Y-93.142
X185.445Y-95.682
X185.445Y-98.222
X185.445Y-100.762
X185.445Y-103.302
X185.445Y-105.842
X185.445Y-108.382
X185.445Y-110.922
X185.445Y-113.462
T2
G00X172.185Y-65.468
M15
G01X172.185Y-64.868
M16
G05
G00X172.185Y-69.898
M15
G01X172.185Y-68.798
M16
G05
G00X180.825Y-65.468
M15
G01X180.825Y-64.868
M16
G05
G00X180.825Y-69.898
M15
G01X180.825Y-68.798
M16
G05
M30
